<?xml version="1.0" encoding="utf-8"?>
<!-- Generator: Adobe Illustrator 26.5.0, SVG Export Plug-In . SVG Version: 6.00 Build 0)  -->
<svg version="1.1" id="Слой_1" xmlns="http://www.w3.org/2000/svg" xmlns:xlink="http://www.w3.org/1999/xlink" x="0px" y="0px"
	 viewBox="0 0 850.4 850.4" style="enable-background:new 0 0 850.4 850.4;" xml:space="preserve">
<style type="text/css">
	.st0{fill:#010202;}
	.st1{fill:none;stroke:#F39200;stroke-width:7;stroke-miterlimit:10;}
	.st2{fill:#F39200;}
</style>
<circle class="st0" cx="425.2" cy="425.2" r="418"/>
<g>
	<rect x="84.5" y="235.7" class="st1" width="681.3" height="256.7"/>
	<circle class="st2" cx="259.2" cy="364.1" r="115.6"/>
	<circle class="st2" cx="584" cy="364.5" r="115.6"/>
</g>
<g>
	<path class="st2" d="M142.1,577c0,3.4-0.6,6.5-2,9.1c-1.3,2.6-3,4.8-5.2,6.5c-2.6,2-5.5,3.5-8.6,4.4c-3.1,0.9-7.1,1.3-11.9,1.3
		H86.8V529h24.4c5.1,0,8.9,0.2,11.5,0.6c2.6,0.4,5.1,1.2,7.4,2.4c2.5,1.3,4.3,3.1,5.5,5.3c1.2,2.2,1.8,4.8,1.8,7.7
		c0,3.4-0.8,6.4-2.5,9c-1.7,2.6-4,4.6-7,5.8v0.4c4.3,0.9,7.7,2.7,10.3,5.5C140.8,568.5,142.1,572.3,142.1,577z M119.9,548.6
		c0-1.1-0.3-2.3-0.9-3.4c-0.6-1.2-1.5-2-2.7-2.6c-1.1-0.5-2.5-0.8-4.1-0.8c-1.6,0-3.9-0.1-7-0.1h-1.2v14.6h2.2c3,0,5.1,0,6.2-0.1
		c1.2-0.1,2.4-0.4,3.7-1c1.4-0.7,2.4-1.5,2.9-2.7C119.6,551.4,119.9,550.1,119.9,548.6z M124.2,576.7c0-2.1-0.4-3.8-1.3-5
		c-0.9-1.2-2.2-2.1-3.9-2.7c-1.1-0.4-2.5-0.6-4.3-0.7c-1.8,0-4.3-0.1-7.4-0.1h-3.2v17.3h0.9c4.5,0,7.6,0,9.4-0.1
		c1.7-0.1,3.5-0.5,5.3-1.3c1.6-0.7,2.7-1.7,3.5-3C123.9,579.8,124.2,578.3,124.2,576.7z"/>
	<path class="st2" d="M173.1,598.2h-16.2v-72.2h16.2V598.2z"/>
	<path class="st2" d="M207.9,538.6h-17.2v-12.7h17.2V538.6z M207.5,598.2h-16.2V546h16.2V598.2z"/>
	<path class="st2" d="M274.5,598.2h-16.3v-25.9c0-2.1-0.1-4.2-0.3-6.3c-0.2-2.1-0.5-3.6-1-4.6c-0.6-1.2-1.4-2-2.4-2.5
		c-1.1-0.5-2.5-0.8-4.2-0.8c-1.3,0-2.7,0.2-4,0.7c-1.4,0.5-2.8,1.3-4.4,2.4v37h-16.2V546h16.2v5.8c2.7-2.3,5.3-4,7.8-5.3
		c2.5-1.3,5.3-1.9,8.4-1.9c5.3,0,9.4,1.7,12.2,5c2.8,3.4,4.2,8.2,4.2,14.6V598.2z"/>
	<path class="st2" d="M339.6,598.2h-16.2v-5.4c-1.1,0.9-2.3,1.8-3.6,2.8c-1.3,1-2.5,1.7-3.6,2.2c-1.3,0.6-2.6,1.1-3.9,1.4
		c-1.3,0.3-2.8,0.5-4.6,0.5c-5.9,0-10.6-2.5-14.1-7.4c-3.5-4.9-5.2-11.5-5.2-19.7c0-4.6,0.6-8.5,1.8-11.8c1.2-3.3,2.8-6.3,4.9-8.7
		c1.9-2.3,4.2-4,6.9-5.4c2.7-1.3,5.5-2,8.5-2c2.7,0,5,0.3,6.7,0.9c1.7,0.6,3.8,1.5,6.1,2.7v-22.2h16.2V598.2z M323.3,583.8v-25.6
		c-0.8-0.4-1.9-0.7-3.2-1c-1.3-0.3-2.4-0.4-3.3-0.4c-3.9,0-6.8,1.4-8.8,4.1c-2,2.7-2.9,6.5-2.9,11.4c0,5.1,0.8,8.9,2.3,11.1
		c1.6,2.3,4.1,3.4,7.6,3.4c1.4,0,2.9-0.3,4.3-0.8C320.8,585.5,322.1,584.7,323.3,583.8z"/>
	<path class="st2" d="M384.4,599.5c-9.8,0-17.4-2.4-22.6-7.1s-7.9-11.4-7.9-20.1c0-8.5,2.4-15.3,7.3-20.4s11.7-7.6,20.5-7.6
		c8,0,14,2.2,18,6.5c4,4.3,6,10.5,6,18.5v5.8h-35.6c0.2,2.4,0.7,4.4,1.5,6.1c0.9,1.6,2,2.9,3.4,3.9c1.4,1,3,1.6,4.9,2.1
		c1.9,0.4,3.9,0.6,6.1,0.6c1.9,0,3.7-0.2,5.6-0.6c1.8-0.4,3.5-1,5-1.6c1.3-0.6,2.6-1.2,3.7-1.9c1.1-0.7,2.1-1.3,2.8-1.8h1.7v13.4
		c-1.3,0.5-2.5,1-3.6,1.5c-1.1,0.4-2.6,0.9-4.5,1.4c-1.8,0.5-3.6,0.8-5.5,1.1C389.4,599.4,387.1,599.5,384.4,599.5z M389.8,565.4
		c-0.1-3.4-0.9-6.1-2.4-7.8c-1.5-1.8-3.8-2.7-6.9-2.7c-3.2,0-5.6,0.9-7.4,2.8c-1.8,1.9-2.8,4.5-2.9,7.7H389.8z"/>
	<path class="st2" d="M454.9,561.4h-1.3c-0.6-0.2-1.5-0.4-2.7-0.5c-1.2-0.1-2.5-0.2-3.9-0.2c-1.7,0-3.5,0.2-5.4,0.7
		c-1.9,0.5-3.7,1.1-5.5,1.8v34.9h-16.2V546h16.2v7.5c0.7-0.7,1.8-1.5,3.1-2.6c1.3-1,2.5-1.9,3.6-2.5c1.2-0.7,2.5-1.3,4.1-1.8
		c1.6-0.5,3-0.8,4.4-0.8c0.5,0,1.1,0,1.8,0c0.7,0,1.2,0.1,1.8,0.1V561.4z"/>
	<path class="st2" d="M514.6,598.2v-55.9h-20.4V529h58.2v13.2H532v55.9H514.6z"/>
	<path class="st2" d="M614.4,572.1c0,8.6-2.3,15.3-7,20.3c-4.7,4.9-11.3,7.4-19.9,7.4c-8.5,0-15.1-2.5-19.8-7.4
		c-4.7-4.9-7.1-11.7-7.1-20.3c0-8.7,2.4-15.5,7.1-20.4c4.7-4.9,11.3-7.4,19.8-7.4c8.5,0,15.2,2.5,19.9,7.4
		C612,556.7,614.4,563.5,614.4,572.1z M597.7,572.2c0-3.1-0.3-5.7-0.8-7.7c-0.5-2.1-1.2-3.7-2.1-4.9c-1-1.3-2-2.2-3.2-2.7
		c-1.2-0.5-2.6-0.8-4.1-0.8c-1.5,0-2.8,0.2-3.9,0.7c-1.2,0.4-2.3,1.3-3.2,2.6c-0.9,1.2-1.7,2.9-2.2,5c-0.6,2.1-0.8,4.8-0.8,7.9
		c0,3.2,0.3,5.8,0.8,7.7c0.5,2,1.2,3.5,2,4.7c0.9,1.2,2,2.1,3.2,2.6s2.7,0.8,4.3,0.8c1.3,0,2.6-0.3,4-0.8c1.3-0.6,2.4-1.4,3.2-2.5
		c1-1.3,1.7-2.9,2.2-4.8S597.7,575.5,597.7,572.2z"/>
	<path class="st2" d="M678.8,572.1c0,8.6-2.3,15.3-7,20.3c-4.7,4.9-11.3,7.4-19.9,7.4c-8.5,0-15.1-2.5-19.8-7.4
		c-4.7-4.9-7.1-11.7-7.1-20.3c0-8.7,2.4-15.5,7.1-20.4c4.7-4.9,11.3-7.4,19.8-7.4c8.5,0,15.2,2.5,19.9,7.4
		C676.4,556.7,678.8,563.5,678.8,572.1z M662.1,572.2c0-3.1-0.3-5.7-0.8-7.7c-0.5-2.1-1.2-3.7-2.1-4.9c-1-1.3-2-2.2-3.2-2.7
		c-1.2-0.5-2.6-0.8-4.1-0.8c-1.5,0-2.8,0.2-3.9,0.7c-1.2,0.4-2.3,1.3-3.2,2.6c-0.9,1.2-1.7,2.9-2.2,5c-0.6,2.1-0.8,4.8-0.8,7.9
		c0,3.2,0.3,5.8,0.8,7.7c0.5,2,1.2,3.5,2,4.7c0.9,1.2,2,2.1,3.2,2.6s2.7,0.8,4.3,0.8c1.3,0,2.6-0.3,4-0.8c1.3-0.6,2.4-1.4,3.2-2.5
		c1-1.3,1.7-2.9,2.2-4.8S662.1,575.5,662.1,572.2z"/>
	<path class="st2" d="M709.4,598.2h-16.2v-72.2h16.2V598.2z"/>
	<path class="st2" d="M743.4,599.6c-3.8,0-7.5-0.4-10.9-1.3c-3.4-0.8-6.2-1.8-8.5-2.9v-13.7h1.3c0.8,0.6,1.7,1.2,2.6,2
		c1,0.7,2.4,1.5,4.1,2.2c1.5,0.7,3.2,1.3,5.1,1.8s4,0.8,6.2,0.8c2.3,0,4.3-0.4,6.1-1.1c1.7-0.7,2.6-1.8,2.6-3.4
		c0-1.2-0.4-2.1-1.2-2.7c-0.8-0.6-2.4-1.2-4.7-1.8c-1.2-0.3-2.8-0.6-4.7-1c-1.9-0.4-3.6-0.8-5-1.2c-4.1-1.3-7.2-3.1-9.2-5.6
		c-2.1-2.5-3.1-5.8-3.1-9.8c0-2.3,0.5-4.5,1.6-6.6c1.1-2.1,2.6-3.9,4.7-5.5c2.1-1.6,4.6-2.8,7.7-3.8s6.5-1.4,10.3-1.4
		c3.7,0,7,0.4,10.1,1.1c3.1,0.7,5.6,1.6,7.8,2.6v13.2h-1.3c-0.6-0.4-1.4-1-2.6-1.7c-1.2-0.7-2.4-1.4-3.5-1.9
		c-1.4-0.6-2.9-1.1-4.6-1.5c-1.7-0.4-3.4-0.6-5.2-0.6c-2.4,0-4.3,0.4-6,1.2c-1.6,0.8-2.4,1.9-2.4,3.2c0,1.2,0.4,2.1,1.2,2.8
		c0.8,0.7,2.6,1.3,5.2,2c1.4,0.3,3,0.7,4.8,1s3.6,0.8,5.2,1.3c3.7,1.2,6.6,3,8.5,5.3c1.9,2.3,2.9,5.4,2.9,9.3c0,2.4-0.6,4.8-1.7,7
		c-1.1,2.2-2.8,4.1-4.9,5.6c-2.2,1.6-4.9,2.9-7.9,3.8C751.2,599.1,747.6,599.6,743.4,599.6z"/>
</g>
</svg>
