<?xml version="1.0" encoding="utf-8"?>
<!-- Generator: Adobe Illustrator 26.5.0, SVG Export Plug-In . SVG Version: 6.00 Build 0)  -->
<svg version="1.1" id="Слой_1" xmlns="http://www.w3.org/2000/svg" xmlns:xlink="http://www.w3.org/1999/xlink" x="0px" y="0px"
	 viewBox="0 0 850.4 850.4" style="enable-background:new 0 0 850.4 850.4;" xml:space="preserve">
<style type="text/css">
	.st0{fill:#FFDCC4;}
</style>
<circle class="st0" cx="425.2" cy="425.2" r="418"/>
<g>
	<path d="M126.6,324.5h75.4c10.9,0,20.6,1.2,29.1,3.5c8.4,2.3,15,5.2,19.7,8.8c4.7,3.6,8.5,7.8,11.5,12.7c3,4.9,4.9,9.5,5.9,14
		c1,4.4,1.4,9,1.4,13.8c0,22.1-9.6,36.5-28.8,43.4c11.9,2.5,21.2,8.1,27.9,16.7c6.7,8.6,10.1,19.3,10.1,31.9
		c0,37.8-24.2,56.7-72.5,56.7h-79.7V324.5z M157.6,353.8v54.7h47.5c23.2,0,34.8-9.1,34.8-27.3c0-18.2-11.6-27.3-34.8-27.3H157.6z
		 M157.6,435.3v61.3h55c24.4,0,36.5-10.2,36.5-30.5c0-9.2-3-16.6-9.1-22.3c-6-5.7-15.2-8.5-27.5-8.5H157.6z"/>
	<path d="M325.7,324.5h65c26.9,0,48.3,7,64.4,20.9c16.1,13.9,24.2,32.2,24.2,54.8c0,22.8-8.1,41.1-24.2,55
		c-16.1,13.8-37.6,20.7-64.4,20.7h-34v50.1h-31.1V324.5z M356.7,446.8h36c16.5,0,30.2-3.9,41-11.7c10.8-7.8,16.3-19.4,16.3-35
		c0-15.1-5.5-26.7-16.4-34.5c-10.9-7.9-24.6-11.8-40.9-11.8h-36V446.8z"/>
	<path d="M723.8,525.9h-31.1V382.6l-67.6,85.2l-67.9-85.2v143.3h-31.1V324.5h18.1l80.8,102.1L706,324.5h17.8V525.9z"/>
</g>
<g>
	<path d="M347.5,606.4v43.1h-7.8v-43.1H325v-7.3h37.2v7.3H347.5z"/>
	<path d="M376.5,606.1c5-5,11-7.5,18.1-7.5c7.1,0,13.2,2.5,18.2,7.5c5,5,7.5,11.1,7.5,18.2c0,7.1-2.5,13.2-7.5,18.2
		c-5,5-11.1,7.5-18.2,7.5c-7.1,0-13.2-2.5-18.1-7.5c-5-5-7.5-11.1-7.5-18.2C369,617.2,371.5,611.1,376.5,606.1z M407.4,611.2
		c-3.5-3.5-7.7-5.2-12.7-5.2s-9.3,1.7-12.7,5.2c-3.4,3.5-5.1,7.9-5.1,13.1c0,5.3,1.7,9.7,5.1,13.2c3.4,3.5,7.7,5.2,12.7,5.2
		s9.3-1.7,12.7-5.2s5.2-7.8,5.2-13.2C412.6,619,410.9,614.6,407.4,611.2z"/>
	<path d="M437,606.1c5-5,11-7.5,18.1-7.5c7.1,0,13.2,2.5,18.2,7.5c5,5,7.5,11.1,7.5,18.2c0,7.1-2.5,13.2-7.5,18.2
		c-5,5-11.1,7.5-18.2,7.5c-7.1,0-13.2-2.5-18.1-7.5s-7.5-11.1-7.5-18.2C429.5,617.2,432,611.1,437,606.1z M467.9,611.2
		c-3.5-3.5-7.7-5.2-12.7-5.2s-9.3,1.7-12.7,5.2c-3.4,3.5-5.1,7.9-5.1,13.1c0,5.3,1.7,9.7,5.1,13.2c3.4,3.5,7.7,5.2,12.7,5.2
		s9.3-1.7,12.7-5.2s5.2-7.8,5.2-13.2C473.1,619,471.4,614.6,467.9,611.2z"/>
	<path d="M525.4,649.5h-32v-50.4h7.8v43.1h24.3V649.5z"/>
</g>
</svg>
