<?xml version="1.0" encoding="utf-8"?>
<!-- Generator: Adobe Illustrator 26.5.0, SVG Export Plug-In . SVG Version: 6.00 Build 0)  -->
<svg version="1.1" id="Слой_1" xmlns="http://www.w3.org/2000/svg" xmlns:xlink="http://www.w3.org/1999/xlink" x="0px" y="0px"
	 viewBox="0 0 850.4 850.4" style="enable-background:new 0 0 850.4 850.4;" xml:space="preserve">
<style type="text/css">
	.st0{fill:#915EBC;}
	.st1{fill:#F39200;}
	.st2{fill:#FFFFFF;}
	.st3{fill:#97AFD6;}
	.st4{fill:#A7BADD;}
	.st5{opacity:0.5;fill:#B2C2E1;enable-background:new    ;}
	.st6{fill:#C2CEE8;}
	.st7{fill:#676C92;}
	.st8{fill:none;stroke:#B8C6E3;stroke-width:2;stroke-miterlimit:10;}
	.st9{fill:none;stroke:#F39200;stroke-width:3;stroke-linecap:round;stroke-miterlimit:10;}
</style>
<circle class="st0" cx="425.2" cy="425.2" r="418"/>
<g>
	<g>
		<path class="st1" d="M647.4,737.5H227.7c-8.9,0-16.1-7.2-16.1-16.1V120.2c0-8.9,7.2-16.1,16.1-16.1h419.7
			c8.9,0,16.1,7.2,16.1,16.1v601.2C663.5,730.3,656.3,737.5,647.4,737.5z"/>
		<rect x="238.3" y="131" class="st2" width="398.5" height="552.7"/>
		<g>
			<path class="st3" d="M523.4,87.1h-32.2c-2.8-23.2-25.8-41.3-53.6-41.3c-27.9,0-50.8,18.1-53.6,41.3h-32.2
				c-29.3,0-53.1,23.8-53.1,53.1v9.4h277.9v-9.4C576.5,110.9,552.7,87.1,523.4,87.1z M437.5,101c-10,0-18-8.1-18-18s8.1-18,18-18
				c10,0,18,8.1,18,18S447.5,101,437.5,101z"/>
			<g>
				<path class="st4" d="M343.3,149.6l31.4-62.5h-23c-6.6,0-12.9,1.2-18.8,3.4l-29.7,59h40.1V149.6z"/>
				<path class="st4" d="M528.9,149.6l26.1-52c-8.8-6.6-19.8-10.5-31.6-10.5h-3.2l-31.4,62.5H528.9z"/>
				<path class="st4" d="M571.4,117.5c-2.1-4.5-4.9-8.6-8.1-12.3L541,149.6h14.3L571.4,117.5z"/>
			</g>
			<rect x="298.6" y="141.8" class="st5" width="277.9" height="7.8"/>
		</g>
	</g>
	<g>
		<rect x="352.4" y="325.3" class="st6" width="201.2" height="3"/>
		<rect x="352.4" y="339.3" class="st6" width="201.2" height="3"/>
		<rect x="352.4" y="353.3" class="st6" width="201.2" height="3"/>
		<g>
			<rect x="352" y="305" class="st7" width="104.9" height="10"/>
		</g>
		<g>
			<g>
				<rect x="273.2" y="305" class="st8" width="51.1" height="51.1"/>
			</g>
			<polyline class="st9" points="279.9,333.6 295.4,347.5 335,291.2 			"/>
		</g>
	</g>
	<g>
		<rect x="352.4" y="498.5" class="st6" width="201.2" height="3"/>
		<rect x="352.4" y="512.4" class="st6" width="201.2" height="3"/>
		<rect x="352.4" y="526.4" class="st6" width="201.2" height="3"/>
		<g>
			<rect x="352" y="478.2" class="st7" width="114" height="10"/>
			<rect x="475.8" y="478.2" class="st7" width="52.2" height="10"/>
		</g>
		<g>
			<g>
				<rect x="273.2" y="478.4" class="st8" width="51.1" height="51.1"/>
			</g>
			<polyline class="st9" points="279.9,506.9 295.4,520.8 335,464.6 			"/>
		</g>
	</g>
	<g>
		<rect x="352.4" y="585" class="st6" width="201.2" height="3"/>
		<rect x="352.4" y="599" class="st6" width="201.2" height="3"/>
		<rect x="352.4" y="613" class="st6" width="201.2" height="3"/>
		<g>
			<rect x="352" y="564.7" class="st7" width="60.5" height="10"/>
		</g>
		<g>
			<g>
				<rect x="273.2" y="564.9" class="st8" width="51.1" height="51.1"/>
			</g>
			<polyline class="st9" points="279.9,593.5 295.4,607.4 335,551.1 			"/>
		</g>
	</g>
	<g>
		<g>
			<rect x="273.2" y="218.4" class="st8" width="51.1" height="51.1"/>
			<rect x="352.4" y="238.7" class="st6" width="201.2" height="3"/>
			<rect x="352.4" y="252.7" class="st6" width="201.2" height="3"/>
			<rect x="352.4" y="266.7" class="st6" width="201.2" height="3"/>
			<g>
				<rect x="352" y="218.4" class="st7" width="74.4" height="10"/>
				<rect x="436.4" y="218.4" class="st7" width="91.6" height="10"/>
			</g>
		</g>
		<polyline class="st9" points="279.9,247 295.4,260.9 335,204.6 		"/>
	</g>
	<g>
		<g>
			<rect x="352.4" y="411.9" class="st6" width="201.2" height="3"/>
			<rect x="352.4" y="425.9" class="st6" width="201.2" height="3"/>
			<rect x="352.4" y="439.8" class="st6" width="201.2" height="3"/>
			<g>
				<rect x="352" y="391.6" class="st7" width="35.8" height="10"/>
				<rect x="399.7" y="391.6" class="st7" width="83" height="10"/>
			</g>
		</g>
		<g>
			<g>
				<rect x="273.2" y="391.8" class="st8" width="51.1" height="51.1"/>
			</g>
			<polyline class="st9" points="279.9,420.4 295.4,434.3 335,378 			"/>
		</g>
	</g>
</g>
<g>
	<path class="st1" d="M290.1,194.2c-2.2,0-4.3-0.4-6.1-1.1c-1.9-0.7-3.4-1.8-4.8-3.3c-1.3-1.5-2.4-3.3-3.1-5.5
		c-0.7-2.2-1.1-4.7-1.1-7.6c0-2.8,0.3-5.3,1.1-7.4c0.7-2.1,1.7-3.9,3.1-5.5c1.3-1.5,3-2.6,4.8-3.4s3.9-1.1,6.2-1.1
		c1.1,0,2.2,0.1,3.2,0.2c1,0.2,1.9,0.4,2.8,0.7c0.7,0.2,1.5,0.5,2.2,0.8c0.7,0.3,1.5,0.7,2.2,1.1v5.4h-0.3c-0.4-0.3-0.9-0.8-1.5-1.3
		c-0.7-0.5-1.4-1-2.3-1.5c-0.8-0.5-1.8-0.8-2.8-1.1s-2.2-0.5-3.5-0.5c-1.4,0-2.8,0.3-4.1,0.9c-1.3,0.6-2.4,1.5-3.4,2.6
		c-1,1.1-1.7,2.6-2.2,4.3c-0.5,1.7-0.8,3.7-0.8,5.8c0,2.3,0.2,4.3,0.8,6c0.6,1.6,1.3,3,2.3,4.2c0.9,1.1,2.1,2,3.3,2.5
		c1.2,0.6,2.6,0.8,4,0.8c1.3,0,2.5-0.2,3.6-0.5c1.1-0.3,2.1-0.7,3-1.2c0.8-0.5,1.6-1,2.1-1.5s1.1-0.9,1.4-1.2h0.3v5.3
		c-0.7,0.3-1.5,0.7-2.1,1c-0.7,0.3-1.5,0.7-2.4,0.9c-1,0.3-1.9,0.6-2.7,0.7C292.6,194.1,291.4,194.2,290.1,194.2z"/>
	<path class="st1" d="M319.3,194.4c-2,0-3.7-0.2-5.2-0.8c-1.5-0.5-2.7-1.3-3.8-2.3c-1.1-1.1-2-2.5-2.5-4.2c-0.5-1.6-0.7-3.7-0.7-6.1
		v-21h4.5v21c0,1.6,0.1,2.9,0.3,3.9c0.2,1.1,0.6,2.1,1.1,2.9c0.6,0.9,1.4,1.6,2.5,2.1c1.1,0.5,2.3,0.7,3.8,0.7
		c1.4,0,2.6-0.2,3.7-0.7c1.1-0.5,2-1.1,2.5-2.1c0.6-0.8,0.9-1.8,1.1-2.9c0.2-1.1,0.3-2.3,0.3-3.9v-21.2h4.5v21c0,2.3-0.2,4.3-0.7,6
		c-0.5,1.6-1.3,3.1-2.5,4.3c-1.1,1.1-2.3,1.8-3.8,2.3C323.1,194,321.4,194.4,319.3,194.4z"/>
	<path class="st1" d="M340.7,193.6v-33.7h21.1v4h-16.6v9.3h15.4v4h-15.4v12.5h16.6v4L340.7,193.6L340.7,193.6z"/>
	<path class="st1" d="M380.9,180.9h-12.8v-4.1h12.8V180.9z"/>
	<path class="st1" d="M408.4,193.6h-4.3V172h-8.7c-0.1,1.2-0.1,2.5-0.2,3.6c-0.1,1.1-0.1,2.2-0.2,3.1c-0.1,2.4-0.2,4.3-0.5,6
		c-0.2,1.6-0.5,2.9-0.8,3.9c-0.3,1-0.7,1.8-1.1,2.3c-0.4,0.6-0.8,1.1-1.3,1.5c-0.5,0.5-1.1,0.8-1.6,1c-0.6,0.2-1.2,0.3-2,0.3
		c-0.2,0-0.6,0-0.9,0c-0.4,0-0.7,0-0.8,0v-3.7h0.2c0.1,0,0.2,0,0.3,0c0.1,0,0.2,0,0.4,0c0.3,0,0.7-0.1,1.1-0.2
		c0.3-0.1,0.7-0.3,0.9-0.6c0.7-0.7,1.3-2.1,1.6-3.9c0.3-1.8,0.6-4.4,0.7-7.7c0.1-1.2,0.1-2.7,0.2-4.3c0.1-1.7,0.1-3.3,0.2-4.8h16.7
		L408.4,193.6L408.4,193.6z"/>
	<path class="st1" d="M437.3,193.6h-4.2v-18.9l-11.9,18.9h-3.9v-25.3h4.2v18.5l11.7-18.5h4V193.6L437.3,193.6z"/>
	<path class="st1" d="M456.2,194.2c-1.7,0-3.4-0.2-4.8-0.8c-1.4-0.6-2.7-1.3-3.7-2.5c-1.1-1.1-1.9-2.5-2.5-4.1
		c-0.6-1.6-0.8-3.6-0.8-5.8s0.3-4.1,0.9-5.7c0.6-1.6,1.4-3,2.4-4.1c1-1.1,2.2-2,3.7-2.5c1.5-0.6,3.1-0.9,4.8-0.9
		c1.4,0,2.7,0.2,4,0.6c1.3,0.4,2.5,0.8,3.4,1.4v4.8h-0.2c-0.3-0.2-0.7-0.6-1.1-0.9c-0.5-0.3-1.1-0.7-1.7-1c-0.6-0.3-1.3-0.6-2.1-0.8
		c-0.7-0.2-1.6-0.3-2.3-0.3c-2.2,0-3.9,0.8-5.3,2.5c-1.3,1.6-2,4-2,7.1c0,3,0.7,5.3,2,7c1.3,1.6,3.1,2.5,5.3,2.5
		c1.4,0,2.7-0.2,3.9-0.8c1.2-0.6,2.4-1.3,3.4-2.2h0.2v4.8c-0.4,0.2-1,0.4-1.6,0.7c-0.7,0.2-1.2,0.5-1.7,0.7c-0.7,0.2-1.4,0.4-2,0.5
		C457.9,194.1,457.1,194.2,456.2,194.2z"/>
	<path class="st1" d="M488.8,172.1h-8.6v21.6h-4.3v-21.6h-8.6v-3.7h21.4L488.8,172.1L488.8,172.1z"/>
</g>
</svg>
