<?xml version="1.0" encoding="utf-8"?>
<!-- Generator: Adobe Illustrator 26.5.0, SVG Export Plug-In . SVG Version: 6.00 Build 0)  -->
<svg version="1.1" id="Слой_1" xmlns="http://www.w3.org/2000/svg" xmlns:xlink="http://www.w3.org/1999/xlink" x="0px" y="0px"
	 viewBox="0 0 850.4 850.4" style="enable-background:new 0 0 850.4 850.4;" xml:space="preserve">
<style type="text/css">
	.st0{stroke:#E9961A;stroke-width:16;stroke-miterlimit:10;}
	.st1{fill:#112129;}
	.st2{fill:#FFFFFF;}
	.st3{fill:#4D4D4D;}
	.st4{opacity:0.5;}
	.st5{opacity:0.5;fill:#FFFFFF;}
	.st6{fill:#E9961A;}
	.st7{fill:#333333;}
</style>
<circle class="st0" cx="425.2" cy="426" r="413"/>
<g transform="translate(0.000000,512.000000) scale(0.100000,-0.100000)">
	<path class="st1" d="M2687.7,4159.2c-232.5-26.2-467.5-110.7-650.9-232.5c-281.5-186.8-470.8-450.6-542.7-753.2l-18.6-78.6H1347
		c-140.3,0-177.5-7.6-190.2-39.7c-4.2-11.8-7.6-398.1-7.6-949.3v-928.2l20.3-24.5c11-12.7,96.4-95.5,190.2-184.3
		c169.1-159.8,169.1-159.8,146.2-169.9c-12.7-5.1-27.1-14.4-32.1-21.1c-10.1-11.8-282.3-867.3-282.3-885.9c0-5.9,9.3-19.4,21.1-30.4
		l20.3-21.1h1623.9h1623.9l20.3,21.1c11.8,11,21.1,24.5,21.1,30.4c0,18.6-272.2,874.1-282.3,885.9c-5.1,6.8-19.4,16.1-32.1,21.1
		c-22.8,10.1-22,11,147.1,169.9c93,88.8,178.4,171.6,189.4,184.3l20.3,24.5v928.2c0,551.1-3.4,937.5-7.6,949.3
		c-12.7,32.1-49.9,39.7-190.2,39.7H4238l-18.6,78.6C4069.8,3807.5,3397.7,4240.3,2687.7,4159.2z M3140.7,4021.4
		c264.6-55.8,485.2-173.3,667-355.9c131.9-131.9,208.8-251.1,265.4-412.5c29.6-83.7,30.4-89.6,16.1-75.2
		c-27.9,27.9-91.3-2.5-91.3-42.3c0-11,15.2-54.9,34.7-98.9c92.1-214.7,122.6-487.7,79.5-719.4c-97.2-517.3-478.4-908.7-1000-1024.5
		c-111.6-25.4-381.2-27.1-494.5-4.2c-517.3,104.8-909.6,497.9-1013.5,1016.1c-27.1,130.2-26.2,357.6,0,482.7
		c72.7,341.5,262.9,625.5,546.1,815.7c460.7,310.2,1079.5,281.5,1511.4-71c60-49,80.3-54.9,110.7-31.3
		c23.7,19.4,29.6,48.2,14.4,76.1c-11.8,22-151.3,125.1-233.3,172.4c-341.5,197.8-763.3,240.1-1138.6,115
		c-305.2-102.3-585.8-327.1-750.6-601.9c-22.8-38-41.4-65.9-41.4-63.4c0,2.5,10.1,33,22,66.8c54.1,151.3,134.4,273,261.2,399.8
		c207.1,207.9,464.9,332.2,781.9,376.2c30.4,4.2,121.7,5.9,202.9,4.2C3007.2,4043.4,3060.4,4038.3,3140.7,4021.4z M1428.1,2934.3
		v-43.1l-77.8,2.5l-78.6,2.5l-2.5,27.9c-5.1,49.9-1.7,52.4,82.8,52.4h76.1V2934.3z M4441.7,2934.3v-38l-77.8-2.5l-78.6-2.5v43.1
		v43.1l78.6-2.5l77.8-2.5V2934.3z M1461.9,2043.4V1313l146.2-140.3l145.4-140.3h1103.1h1103.1l146.2,140.3l145.4,140.3v730.4v730.4
		h97.2h97.2v-776.8V1220l-217.2-207.9l-218.1-207.9H2856.7H1702.9l-217.2,207.9L1267.5,1220v776.8v776.8h97.2h97.2V2043.4z
		 M1724,1732.3c71.9-103.1,219.8-250.2,325.4-323.8l83.7-59.2l-111.6-2.5l-112.4-2.5l-164,136.1l-164.8,136.1v179.2v179.2l44.8-82
		C1648.8,1847.3,1693.6,1775.4,1724,1732.3z M4133.2,1794v-177.5l-162.3-135.3L3807.7,1346l-111.6-0.8c-61.7,0-112.4,1.7-112.4,3.4
		c0,1.7,37.2,29.6,82,60.9c164,115.8,328.8,303.5,421.8,481.8c22.8,44,42.3,79.5,44,79.5C4132.3,1970.7,4133.2,1891.2,4133.2,1794z
		 M1845.7,1244.5c12.7-11.8,54.9-14.4,291.6-17.8l275.6-4.2l98.1-27.1c54.1-15.2,126-30.4,160.6-34.7c44-5.9-74.4-8.5-406.6-9.3
		l-469.2-0.8l-107.4,107.4l-108.2,108.2v49v48.2l125.1-102.3C1773.9,1304.6,1836.4,1252.1,1845.7,1244.5z M4025.8,1258.9
		l-108.2-108.2l-469.2,0.8c-329.7,0.8-450.6,3.4-407.4,9.3c34.7,4.2,106.5,19.4,160.6,34.7l98.9,26.2l275.6,5.1l275.6,4.2l58.3,48.2
		c32.1,26.2,94.7,77.8,138.6,114.1l80.3,66.8l2.5-46.5l2.5-46.5L4025.8,1258.9z M4260.8,339.2c59.2-188.5,109.9-350.8,113.3-361.8
		l4.2-18.6H2856.7c-836.9,0-1521.6,1.7-1521.6,3.4c0,3.4,214.7,688.1,224,713.4c2.5,8.5,267.1,10.1,1298.4,8.5l1295-2.5
		L4260.8,339.2z"/>
	<path class="st1" d="M2697.8,3728.1c-256.1-33-495.4-153-686.4-344.9c-139.5-139.5-225.7-279.8-287.4-464.9
		c-43.1-127.6-59.2-230.8-59.2-377.9c0-250.2,63.4-457.3,204.6-668.6c175-262,457.3-445.5,780.2-507.2
		c105.7-19.4,310.2-19.4,418.4,0.8c411.7,78.6,745.6,352.5,898.6,736.3c55.8,138.6,74.4,235,79.5,399
		c5.9,174.1-7.6,269.7-56.6,417.6c-38.9,117.5-74.4,189.4-142,291.6c-189.4,281.5-504.7,476.8-840.2,519
		C2927.7,3738.2,2776.4,3738.2,2697.8,3728.1z M3121.3,3586.9c181.7-47.3,339.8-135.3,479.3-268.8
		c218.1-208.8,330.5-471.7,330.5-772.6c0-184.3-33.8-329.7-114.1-487.7c-220.6-437.9-698.2-666.1-1184.3-568.1
		c-420.1,85.4-761.6,437.9-836.9,865.6c-17.8,99.7-17.8,282.3,0,376.2c29.6,156.4,96.4,314.5,187.7,442.1
		c60,82,190.2,208.8,270.5,262c126.8,84.5,298.4,151.3,447.2,175c27.9,4.2,110.7,5.9,185.1,4.2
		C3003,3612.3,3035.1,3608.9,3121.3,3586.9z"/>
	<path class="st1" d="M2751.1,3556.5c-53.3-24.5-116.7-93.8-134.4-146.2c-41.4-121.7,16.9-258.7,134.4-315.3
		c33-15.2,55.8-20.3,105.7-20.3c76.9,0,130.2,22.8,183.4,77.8c118.3,121.7,77.8,332.2-77.8,404.1
		C2903.2,3584.4,2810.2,3584.4,2751.1,3556.5z M2933.6,3437.3c41.4-26.2,61.7-71,56.6-124.3c-2.5-22.8-11.8-52.4-21.1-64.2
		c-19.4-27.1-82-60.9-112.4-60.9s-93,33.8-112.4,60.9c-9.3,11.8-18.6,41.4-21.1,64.2C2712.2,3430.5,2832.2,3501.5,2933.6,3437.3z"/>
	<path class="st1" d="M2220.2,3336.7c-106.5-39.7-169.9-130.2-169.9-241.8c0-96.4,52.4-179.2,142.9-226.5
		c35.5-18.6,53.3-22,109.9-22s74.4,3.4,109.9,22c124.3,65.1,176.7,207.1,120.9,328.8c-28.7,61.7-55.8,92.1-109,121.7
		C2370.7,3347.7,2273.5,3357,2220.2,3336.7z M2374.9,3210.7c88.8-59.2,82-188.5-11.8-233.3c-44-22-75.2-22-120-1.7
		c-39.7,17.8-67.6,58.3-75.2,106.5c-6.8,43.1,22,102.3,62.6,128.5C2270.1,3237.8,2336,3237.8,2374.9,3210.7z"/>
	<path class="st1" d="M3329.3,3337.5c-47.3-17.8-90.4-47.3-113.3-76.9c-103.1-135.3-65.1-313.6,84.5-392.2
		c35.5-18.6,53.3-22,109.9-22s74.4,3.4,109.9,22c152.2,80.3,190.2,263.7,81.2,396.5c-40.6,49-104,77.8-178.4,81.2
		C3383.4,3347.7,3347.9,3344.3,3329.3,3337.5z M3483.1,3210.7c40.6-26.2,69.3-85.4,62.6-128.5c-7.6-48.2-35.5-88.8-75.2-106.5
		c-44.8-20.3-76.1-20.3-120,1.7c-93,44.8-99.7,175-11.8,233.3C3377.4,3237.8,3443.4,3237.8,3483.1,3210.7z"/>
	<path class="st1" d="M2007.2,2788.1c-52.4-17.8-82-35.5-115.8-71c-99.7-103.1-93-269.7,15.2-365.2c47.3-41.4,99.7-60,172.4-60
		c136.9,0,245.1,108.2,245.1,246c0,71.9-18.6,124.3-60,171.6C2202.4,2779.6,2087.5,2814.3,2007.2,2788.1z M2145,2657.9
		c110.7-82.8,64.2-249.4-69.3-249.4c-87.1,0-156.4,81.2-136.1,159.8C1962.4,2662.1,2074,2710.3,2145,2657.9z"/>
	<path class="st1" d="M2787.4,2788.1c-179.2-50.7-243.5-273-120-411.7c60-65.9,93-80.3,189.4-80.3s129.3,14.4,189.4,80.3
		c138.6,154.7,38.9,400.7-169.1,418.4C2848.3,2797.4,2810.2,2794,2787.4,2788.1z M2939.6,2650.3c102.3-78.6,46.5-241.8-82.8-241.8
		c-99.7,0-163.1,97.2-123.4,191c11.8,28.7,55.8,67.6,85.4,75.2C2852.5,2684.1,2910,2672.3,2939.6,2650.3z"/>
	<path class="st1" d="M3575.2,2788.1c-182.6-51.6-247.7-271.3-123.4-417.6c12.7-14.4,45.6-38.9,74.4-52.4
		c92.1-46.5,204.6-33,280.6,33.8c109.9,97.2,115,268,11,369.4C3753.6,2784.7,3656.4,2810.9,3575.2,2788.1z M3702,2662.1
		c113.3-57.5,89.6-224.9-34.7-251.1c-134.4-28.7-217.2,138.6-115.8,233.3C3593.8,2684.1,3645.4,2690,3702,2662.1z"/>
	<path class="st1" d="M2220.2,2229.3c-84.5-31.3-140.3-93.8-163.1-182.6c-23.7-91.3,4.2-177.5,78.6-245.1
		c99.7-91.3,235.8-90.4,336.4,1.7c135.3,123.4,103.1,331.4-63.4,416.7C2369.8,2240.3,2263.3,2245.4,2220.2,2229.3z M2374.9,2103.4
		c87.1-58.3,82-188.5-9.3-234.2c-85.4-44-181.7,6.8-197.8,103.1c-7.6,42.3,22,104.8,62.6,131
		C2270.1,2129.6,2336,2129.6,2374.9,2103.4z"/>
	<path class="st1" d="M3327.6,2229.3c-104.8-38.9-169.1-131-169.1-241.8c0-75.2,25.4-131.9,82.8-184.3
		c100.6-92.1,236.7-93,336.4-1.7c101.4,92.1,115,234.2,33,342.4c-46.5,60.9-106.5,91.3-186.8,94.7
		C3382.5,2240.3,3347.9,2236.9,3327.6,2229.3z M3483.1,2103.4c40.6-26.2,70.2-88.8,62.6-131c-11.8-69.3-68.5-120-135.3-120
		c-132.7,0-183.4,176.7-71.9,251.1C3377.4,2129.6,3443.4,2129.6,3483.1,2103.4z"/>
	<path class="st1" d="M2789.1,2005.3c-68.5-22-126.8-70.2-158.9-131c-19.4-37.2-22.8-53.3-22.8-115s3.4-77.8,22.8-114.1
		c26.2-50.7,65.1-87.9,116.7-115c31.3-16.9,50.7-20.3,109.9-20.3c64.2,0,76.9,2.5,116.7,24.5c50.7,27.9,85.4,64.2,113.3,117.5
		c16.1,28.7,19.4,49,19.4,107.4s-3.4,78.6-19.4,107.4c-48.2,90.4-120.9,138.6-216.4,142.9
		C2837.3,2011.2,2800.9,2009.6,2789.1,2005.3z M2925.2,1875.1c44-29.6,66.8-69.3,66.8-115.8c0-27.1-5.9-49-19.4-68.5
		c-60-89.6-171.6-89.6-231.6,0c-55.8,82.8,12.7,203.7,115.8,203.7C2883.8,1894.6,2905.8,1888.7,2925.2,1875.1z"/>
	<path class="st1" d="M2292.9,559c-33.8-13.5-36.3-33-36.3-242.6c0-191.9,0.8-202.9,16.9-220.6l17.8-18.6h565.5h565.5l17.8,18.6
		c16.1,17.8,16.9,28.7,16.9,223.2c0,188.5-0.8,206.3-16.1,224l-16.1,20.3l-557.1,1.7C2557.5,565.7,2303,563.2,2292.9,559z
		 M2755.3,443.2c0-3.4-54.1-60.9-120-126.8l-120.9-120.9h-69.3h-70.2v126.8v126.8h190.2C2669.9,449.1,2755.3,446.6,2755.3,443.2z
		 M3042.7,423.7c0-33,26.2-59.2,60-59.2c19.4,0,36.3,10.1,70.2,42.3l44.8,42.3h60h60.9V322.3V195.5h-186.8h-186.8l30.4,33.8
		c38,42.3,40.6,75.2,8.5,100.6c-12.7,10.1-30.4,17.8-39.7,17.8c-9.3,0-49-31.3-93.8-76.1l-77.8-76.1h-59.2H2675l127.6,126.8
		l126.8,126.8h56.6h56.6V423.7z"/>
</g>
<g>
	<path class="st2" d="M555.1,357H526V223l-63.2,79.6L399.3,223v134h-29.1V168.7h16.9l75.6,95.5l75.6-95.5h16.7V357z"/>
	<path class="st2" d="M645.5,314.8L628.2,357h-32L674,168.7h16.9L767.9,357h-32l-16.9-42.2H645.5z M682.3,221.7l-26.6,65.6H709
		L682.3,221.7z"/>
</g>
<g>
	<path class="st2" d="M381.7,472.3H422v12.3h-40.2V521h-13.5v-84.3H425V449h-43.2V472.3z"/>
	<path class="st2" d="M452.3,452.5c-1.4,1.2-3.2,1.9-5.2,1.9c-2.1,0-3.8-0.6-5.3-1.9c-1.5-1.2-2.2-2.8-2.2-4.6
		c0-1.8,0.7-3.4,2.2-4.6c1.5-1.2,3.2-1.8,5.3-1.8c2.1,0,3.8,0.6,5.2,1.9c1.4,1.2,2.1,2.8,2.1,4.5
		C454.4,449.7,453.7,451.3,452.3,452.5z M440.7,521v-60.2h12.5V521H440.7z"/>
	<path class="st2" d="M501.8,499.8L484.2,521h-14.5l25.2-31.2l-23.8-29h14.5l16.7,19.5l16.3-19.5H533l-23.8,29.5l25.2,30.7h-14.5
		L501.8,499.8z"/>
	<path class="st2" d="M567.1,472.3V521h-12.5v-48.7h-8.6v-11.6h8.6v-20.2h12.5v20.2h8.7v11.6H567.1z"/>
	<path class="st2" d="M652,521h-8.5l-0.9-11.6c-2.2,4.1-5.3,7.2-9.5,9.3c-4.2,2.1-8.7,3.1-13.6,3.1c-8.6,0-15.3-2.6-20.1-7.8
		c-4.7-5.2-7.1-12.3-7.1-21.3v-32h12.5v31.4c0,12,5.5,18.1,16.6,18.1c5.6,0,10-1.7,13.3-5.2c3.3-3.5,4.9-8.5,4.9-15.1v-29.1H652V521
		z"/>
	<path class="st2" d="M712.1,471.5h-5c-7.1,0-12.3,2.1-15.8,6.3c-3.5,4.2-5.2,9.8-5.2,16.7V521h-12.5v-60.2h8.5l1.4,14.7
		c5-10.4,13.8-15.5,26.5-15.5h2.1V471.5z"/>
	<path class="st2" d="M755.2,459.9c6.6,0,12.3,1.5,17.1,4.5c4.7,3,8.3,7.1,10.6,12.5c1.2,2.5,1.8,5.4,2,8.7c0.2,3.3-0.1,6.1-0.9,8.4
		h-47.5c0,5.1,1.8,9.2,5.4,12.2c3.6,3,8.3,4.5,14,4.5c7.2,0,13.9-1.8,20.1-5.3l6.7,7c-8.4,6.2-17.3,9.3-26.8,9.3
		c-9.6,0-17.3-2.9-23.3-8.7c-6-5.8-9-13.2-9-22.2c0-8.8,2.9-16.1,8.7-22C738.1,462.9,745.7,459.9,755.2,459.9z M755.3,470.9
		c-5.2,0-9.4,1.5-12.8,4.5c-3.4,3-5.2,6.6-5.5,10.9h35.8c0-2.1-0.5-4.1-1.5-5.9c-1.3-2.9-3.4-5.2-6.2-6.9
		C762.3,471.7,759,470.9,755.3,470.9z"/>
	<path class="st2" d="M381.7,616.9H422v12.3h-40.2v36.4h-13.5v-84.3H425v12.3h-43.2V616.9z"/>
	<path class="st2" d="M452.3,597c-1.4,1.2-3.2,1.9-5.2,1.9c-2.1,0-3.8-0.6-5.3-1.9c-1.5-1.2-2.2-2.8-2.2-4.6c0-1.8,0.7-3.4,2.2-4.6
		c1.5-1.2,3.2-1.8,5.3-1.8c2.1,0,3.8,0.6,5.2,1.9c1.4,1.2,2.1,2.8,2.1,4.5C454.4,594.3,453.7,595.8,452.3,597z M440.7,665.5v-60.2
		h12.5v60.2H440.7z"/>
	<path class="st2" d="M508.9,604.5c8.6,0,15.3,2.6,20.1,7.8c4.7,5.2,7.1,12.3,7.1,21.3v32h-12.5v-31.4c0-12-5.5-18.1-16.6-18.1
		c-5.6,0-10,1.7-13.2,5.2c-3.2,3.5-4.9,8.5-4.9,15.1v29.1h-12.5v-60.2h8.5l0.9,11.6c2.2-4.1,5.4-7.2,9.5-9.3
		C499.5,605.5,504,604.5,508.9,604.5z"/>
	<path class="st2" d="M616.9,665.5h-8.5l-0.7-11.1c-2.3,3.6-5.5,6.5-9.6,8.6c-4.1,2.1-8.5,3.2-13.3,3.2c-8.8,0-16.1-3-22-9
		c-5.9-6-8.8-13.3-8.8-21.9c0-8.7,2.9-16,8.8-22c5.9-6,13.2-9,22-9c4.1,0,7.9,0.9,11.4,2.7c3.5,1.8,6.3,4.2,8.3,7.2v-33.1h12.5
		V665.5z M572.1,649.3c3.8,3.6,8.4,5.4,13.7,5.4c5.3,0,9.9-1.8,13.8-5.5c3.9-3.7,5.8-8.3,5.8-13.8c0-5.6-1.9-10.3-5.8-13.9
		c-3.9-3.7-8.5-5.5-13.8-5.5c-5.3,0-9.9,1.8-13.7,5.5c-3.8,3.7-5.7,8.3-5.7,13.9C566.4,641,568.3,645.6,572.1,649.3z"/>
	<path class="st2" d="M666.8,604.5c6.6,0,12.3,1.5,17.1,4.5c4.7,3,8.3,7.1,10.6,12.5c1.2,2.5,1.8,5.4,2,8.7c0.2,3.3-0.1,6.1-0.9,8.4
		h-47.5c0,5.1,1.8,9.2,5.4,12.2c3.6,3,8.3,4.5,14,4.5c7.2,0,13.9-1.8,20.1-5.3l6.7,7c-8.4,6.2-17.3,9.3-26.8,9.3
		c-9.6,0-17.3-2.9-23.3-8.7c-6-5.8-9-13.2-9-22.2c0-8.8,2.9-16.1,8.7-22C649.7,607.4,657.4,604.5,666.8,604.5z M667,615.4
		c-5.2,0-9.4,1.5-12.8,4.5c-3.4,3-5.2,6.6-5.5,10.9h35.8c0-2.1-0.5-4.1-1.5-5.9c-1.3-2.9-3.4-5.2-6.2-6.9
		C673.9,616.3,670.7,615.4,667,615.4z"/>
	<path class="st2" d="M752.9,616h-5c-7.1,0-12.3,2.1-15.8,6.3c-3.5,4.2-5.2,9.8-5.2,16.7v26.5h-12.5v-60.2h8.5l1.4,14.7
		c5-10.4,13.8-15.5,26.5-15.5h2.1V616z"/>
</g>
<g>
	<g>
		<g>
			
				<rect x="264.6" y="553.5" transform="matrix(0.8773 -0.4799 0.4799 0.8773 -247.1163 203.8736)" class="st3" width="21.3" height="63.7"/>
			<path class="st1" d="M283.2,577.6l-11.5-21c-2.9,2-6,3.9-9.1,5.6c-3.2,1.7-6.4,3.3-9.6,4.7l11.5,21c3.2-1.4,6.4-3,9.6-4.7
				C277.2,581.4,280.2,579.5,283.2,577.6z"/>
			<g class="st4">
				<defs>
					
						<ellipse id="SVGID_1_" transform="matrix(0.7071 -0.7071 0.7071 0.7071 -263.3997 279.234)" class="st4" cx="205.4" cy="457.6" rx="109.7" ry="109.7"/>
				</defs>
				<use xlink:href="#SVGID_1_"  style="overflow:visible;fill:#DADADA;"/>
				<clipPath id="SVGID_00000102543358479644406720000007555265922768085412_">
					<use xlink:href="#SVGID_1_"  style="overflow:visible;"/>
				</clipPath>
			</g>
			<path class="st5" d="M116.4,449.2c-1.2,0.7-2.7,1-4.1,0.7c-3.6-0.6-6-3.9-5.5-7.5c1.1-7,2.9-13.8,5.4-20.4
				c1.3-3.4,5.1-5.1,8.5-3.8c3.4,1.3,5.1,5.1,3.8,8.5c-2.2,5.7-3.7,11.7-4.7,17.7C119.4,446.6,118.1,448.3,116.4,449.2z"/>
			<path class="st5" d="M165.7,546.1c-1.8,1-4.1,1.1-6.2,0.1c-17.7-9.1-32.2-23.2-41.7-40.7c-4.8-8.9-8.3-18.3-10.3-28.2
				c-0.7-3.6,1.6-7,5.1-7.7c3.6-0.7,7,1.6,7.7,5.1c1.7,8.5,4.7,16.7,8.9,24.4c8.3,15.2,20.9,27.4,36.2,35.4c3.2,1.7,4.5,5.6,2.8,8.8
				C167.8,544.6,166.8,545.5,165.7,546.1z"/>
			<path class="st6" d="M141.3,340.4c-64.7,35.4-88.5,116.5-53.1,181.2c35.4,64.7,116.5,88.5,181.2,53.1
				c64.7-35.4,88.5-116.5,53.1-181.2C287.1,328.8,206,305,141.3,340.4z M258,553.8c-53.1,29.1-119.8,9.5-148.8-43.6
				c-29.1-53.1-9.5-119.8,43.6-148.8c53.1-29.1,119.8-9.5,148.8,43.6C330.6,458.1,311.1,524.7,258,553.8z"/>
			
				<rect x="316.9" y="601.7" transform="matrix(0.8773 -0.4799 0.4799 0.8773 -292.8101 246.5074)" class="st1" width="37.8" height="188.6"/>
			
				<rect x="323.5" y="606.4" transform="matrix(0.8773 -0.4799 0.4799 0.8773 -296.0869 242.9892)" class="st7" width="7.5" height="188.6"/>
			
				<rect x="340.7" y="595.6" transform="matrix(0.8773 -0.4799 0.4799 0.8773 -288.5304 251.1052)" class="st1" width="12.4" height="188.6"/>
		</g>
	</g>
</g>
</svg>
