<?xml version="1.0" encoding="utf-8"?>
<!-- Generator: Adobe Illustrator 26.5.0, SVG Export Plug-In . SVG Version: 6.00 Build 0)  -->
<svg version="1.1" id="Слой_1" xmlns="http://www.w3.org/2000/svg" xmlns:xlink="http://www.w3.org/1999/xlink" x="0px" y="0px"
	 viewBox="0 0 476.2 85" style="enable-background:new 0 0 476.2 85;" xml:space="preserve">
<style type="text/css">
	.st0{fill:#FFD523;}
	.st1{fill:#332B2A;}
	.st2{fill:#231F1E;}
	.st3{fill:#FFD51D;}
	.st4{fill:#241B17;}
	.st5{fill:#201C1C;}
</style>
<g>
	<g transform="translate(50, 400) scale(1.7)">
		<g>
			<g id="symbol">
				<path class="st0" d="M-19.1-223.8c8.3-2.7,16.6-10.9,24.8-8.1c6.3,2.1,5.2,12.2,6.7,18.6c0.6,2.4,1.2,5.6-0.5,7.4
					c-2.3,2.6-6.2,3.7-9.7,3.9c-1.2,0.1,0.3-2.5,1.1-3.3c1.1-1.2,4.3-0.8,4.3-2.4c0.3-7.3-1.4-14.5-3.3-21.6c-0.5-2-1.6-4.8-3.6-4.9
					c-14.7-0.2-24.3,17.4-23.8,30.2c0.1,2.6,2.6,4.3,4,6.5c1,1.5,4.6,4.9,2.9,4.5c-7.8-1.7-11.6-2.9-10.5-16.1
					C-26.1-214.7-19.1-229.3-19.1-223.8"/>
				<path class="st1" d="M-11.7-229.6c4.2-1.5,8.4-3.2,12.6-4.6c0.9-0.3-1.7,0.9-2.6,1.2c-2.4,1-4.8,3.6-7.2,2.8
					c-1.9-0.5,4.2-1.7,4.6-3.6C-4.2-234.4-11.4-229.8-11.7-229.6"/>
				<path class="st2" d="M-19.8-217.8c2.7-3.9,5-8.1,8-11.8c0.3-0.5,7.5-4.4,7.4-4.2c-0.5,1.9-3.4,2.1-4.6,3.6
					c-6.5,7.9-11.5,16-10.1,27.1c0.2,2,3.9,1.7,5.2,3.4c1.1,1.4-0.3,5.5,1.5,5.2c4.2-0.5,7.8-3.7,10.7-6.8c1.6-1.7,0.8-4.8,2-6.9
					c1-1.6,3.9-1.7,4.4-3.5c1.1-3.6,1.4-7.7,0.3-11.2c-1.2-3.9-5.4-6.2-6.8-10c-0.3-0.9,1.7-1.7,2.6-1.2c1.7,1,3.1,2.9,3.6,4.9
					c1.8,7.1,3.6,14.3,3.2,21.6c-0.1,1.7-3.2,1.2-4.3,2.4c-1.7,1.8-0.2,5.6-2.2,7.1c-1,0.8-2.8-0.5-4,0.1c-3.7,2-6.7,5.1-10.1,7.3
					c-0.8,0.5-2,1.7-2.7,1c-1-0.8,0.1-2.5-0.4-3.6c-0.7-1.5-1.9-2.8-2.9-4.2c-1.4-2.1-3.9-3.9-4-6.5
					C-23.1-208.8-24-219.9-19.8-217.8"/>
				<path class="st3" d="M-16.3-219.2c4.9-4.6,8.3-16,14.6-13.8c7,2.5,5.9,13.8,6.5,21.2c0.2,1.9-3.4,1.9-4.4,3.5
					c-1.2,2-0.4,5.1-2,6.9c-2.9,3.1-6.5,6.3-10.7,6.8c-1.8,0.2-0.4-3.8-1.5-5.3c-1.2-1.6-4.9-1.4-5.2-3.4
					C-19.6-208.6-17.2-213.9-16.3-219.2 M-11-212c0.2,3.2-0.9,6.8,0.5,9.6c0.7,1.2,2-3.7,3-2.7c1.2,1.2-1.7,3.8-0.7,5.2
					c0.7,1,2.4-1.2,2.7-2.4c0.3-1.1-1.3-2.4-0.9-3.4c0.3-1,2.4-0.5,2.7-1.5c1-3,1.2-6.4,0.7-9.5c-0.2-0.8-1.7-0.6-2.4-0.2
					C-7.4-215.8-9-213.8-11-212"/>
				<path class="st4" d="M-11-212c1.9-1.7,3.6-3.7,5.8-5c0.7-0.4,2.1-0.6,2.4,0.2c0.2,0.4,0.8,7.7-0.7,9.5c-0.7,0.8-2.4,0.5-2.7,1.5
					c-0.4,1.1,1.2,2.3,0.9,3.4c-0.3,1.1-2,3.3-2.7,2.4c-1-1.4,1.8-3.9,0.7-5.2c-1-1-1.8,3.4-3,2.7c-1.5-0.9-0.7-3.4-0.9-5.1
					C-11.4-209.1-12.5-212-11-212"/>
				<path class="st5" d="M-13.1-189.3c4-2.6,7.5-6.2,12-7.9c1-0.3,1.8,1.7,1.7,2.7c-0.1,0.7-1.4,0.2-2,0.5c-2.9,1.4-5.8,3-8.5,4.8
					c-1.3,0.8-1.9,3.1-3.4,3.1C-14.4-186.2-13.1-190.2-13.1-189.3"/>
			</g>
		</g>
	</g>
</g>
<g>
	<path d="M117.6,31.4h-11.9l-2.7,7.4H99l10.9-28.5h3.3l10.9,28.5h-3.9L117.6,31.4z M106.7,28.3h9.7l-4.9-13.3L106.7,28.3z"/>
	<path d="M144.5,28.4c0,3.2-0.7,5.8-2.2,7.8c-1.5,2-3.5,3-6,3c-2.6,0-4.6-0.8-6.1-2.4v10.2h-3.6V17.6h3.3l0.2,2.4
		c1.5-1.8,3.5-2.7,6.2-2.7c2.5,0,4.6,1,6,2.9c1.5,1.9,2.2,4.6,2.2,8V28.4z M140.9,28c0-2.4-0.5-4.3-1.5-5.7c-1-1.4-2.4-2.1-4.2-2.1
		c-2.2,0-3.8,1-4.9,2.9v10.1c1.1,1.9,2.7,2.9,5,2.9c1.7,0,3.1-0.7,4.1-2.1C140.3,32.8,140.9,30.7,140.9,28z"/>
	<path d="M163.9,20.5h-7.1v18.3h-3.6V20.5h-7v-2.9h17.7V20.5z"/>
	<path d="M175,39.2c-2.9,0-5.2-0.9-7-2.8s-2.7-4.4-2.7-7.6v-0.7c0-2.1,0.4-4,1.2-5.6c0.8-1.7,1.9-2.9,3.4-3.9c1.4-0.9,3-1.4,4.7-1.4
		c2.8,0,4.9,0.9,6.4,2.7c1.5,1.8,2.3,4.4,2.3,7.8v1.5h-14.4c0.1,2.1,0.7,3.8,1.8,5.1c1.2,1.3,2.7,1.9,4.5,1.9c1.3,0,2.4-0.3,3.3-0.8
		c0.9-0.5,1.7-1.2,2.3-2.1l2.2,1.7C181.2,37.8,178.5,39.2,175,39.2z M174.5,20.2c-1.5,0-2.7,0.5-3.7,1.6s-1.6,2.6-1.8,4.5h10.6V26
		c-0.1-1.8-0.6-3.3-1.5-4.3C177.2,20.7,176,20.2,174.5,20.2z"/>
	<path d="M199.6,34l7.2-16.4h4.5v21.2h-3.6V23.4l-6.9,15.4h-2.5l-7-15.8v15.8h-3.6V17.6h4.7L199.6,34z"/>
	<path d="M248.7,29.7c-0.4,3-1.5,5.3-3.3,7c-1.9,1.6-4.4,2.5-7.5,2.5c-3.4,0-6.1-1.2-8.1-3.6c-2-2.4-3-5.6-3-9.7v-2.7
		c0-2.7,0.5-5,1.4-7c0.9-2,2.3-3.6,4-4.6c1.7-1.1,3.7-1.6,6-1.6c3,0,5.5,0.8,7.3,2.5c1.8,1.7,2.9,4,3.2,7h-3.8
		c-0.3-2.3-1-3.9-2.1-4.9c-1.1-1-2.6-1.5-4.6-1.5c-2.4,0-4.3,0.9-5.7,2.7c-1.4,1.8-2,4.3-2,7.6V26c0,3.1,0.6,5.6,1.9,7.4
		c1.3,1.8,3.1,2.7,5.4,2.7c2.1,0,3.7-0.5,4.8-1.4c1.1-0.9,1.9-2.6,2.2-4.9H248.7z"/>
	<path d="M257.2,24.9h5.5c2.4,0,4.3,0.7,5.7,1.9c1.4,1.2,2.1,2.9,2.1,5c0,2.1-0.7,3.8-2.2,5.1c-1.4,1.3-3.4,1.9-5.8,1.9h-9V17.6h3.6
		V24.9z M257.2,27.9v8h5.4c1.4,0,2.4-0.3,3.2-1c0.7-0.7,1.1-1.7,1.1-2.9c0-1.2-0.4-2.1-1.1-2.9c-0.7-0.8-1.7-1.1-3-1.2H257.2z
		 M278,38.8h-3.6V17.6h3.6V38.8z"/>
	<path d="M292.9,36.2c1.3,0,2.4-0.4,3.4-1.2c1-0.8,1.5-1.8,1.6-2.9h3.4c-0.1,1.2-0.5,2.4-1.3,3.5c-0.8,1.1-1.8,2-3.1,2.6
		c-1.3,0.7-2.6,1-4.1,1c-2.9,0-5.2-1-6.9-2.9c-1.7-1.9-2.6-4.6-2.6-7.9v-0.6c0-2.1,0.4-3.9,1.1-5.5c0.8-1.6,1.8-2.9,3.3-3.7
		s3.1-1.3,5-1.3c2.4,0,4.4,0.7,5.9,2.1c1.6,1.4,2.4,3.3,2.5,5.5h-3.4c-0.1-1.4-0.6-2.5-1.6-3.4c-0.9-0.9-2.1-1.3-3.5-1.3
		c-1.8,0-3.3,0.7-4.3,2c-1,1.3-1.5,3.2-1.5,5.7v0.7c0,2.4,0.5,4.3,1.5,5.6C289.6,35.6,291,36.2,292.9,36.2z"/>
	<path d="M304.4,28c0-2.1,0.4-3.9,1.2-5.6s2-2.9,3.4-3.8c1.5-0.9,3.1-1.4,5-1.4c2.9,0,5.2,1,7,3c1.8,2,2.7,4.7,2.7,8v0.3
		c0,2.1-0.4,3.9-1.2,5.6c-0.8,1.6-1.9,2.9-3.4,3.8c-1.5,0.9-3.2,1.4-5.1,1.4c-2.9,0-5.2-1-7-3c-1.8-2-2.7-4.6-2.7-7.9V28z
		 M308.1,28.4c0,2.4,0.5,4.2,1.6,5.7c1.1,1.4,2.5,2.1,4.4,2.1c1.8,0,3.3-0.7,4.4-2.2c1.1-1.4,1.6-3.5,1.6-6.1c0-2.3-0.6-4.2-1.7-5.7
		c-1.1-1.4-2.6-2.2-4.4-2.2c-1.8,0-3.2,0.7-4.3,2.1C308.6,23.7,308.1,25.8,308.1,28.4z"/>
	<path d="M345.3,17.6v21.2h-3.6V20.6h-7.2l-0.4,7.9c-0.2,3.6-0.8,6.2-1.8,7.8c-1,1.6-2.5,2.4-4.7,2.4h-1.4v-3.2l1-0.1
		c1.2-0.1,2-0.8,2.5-2c0.5-1.2,0.8-3.5,1-6.8l0.4-9.1H345.3z"/>
	<path d="M367.3,17.6v21.2h-3.6v-8.2h-5.5l-5,8.2h-3.9l5.3-8.8c-1.4-0.5-2.4-1.3-3.1-2.3c-0.7-1-1.1-2.2-1.1-3.6
		c0-1.9,0.7-3.5,2.2-4.7c1.4-1.2,3.4-1.8,5.8-1.8H367.3z M354.1,24.1c0,1,0.4,1.9,1.1,2.5c0.7,0.6,1.6,1,2.8,1h5.8v-7h-5.2
		c-1.3,0-2.4,0.3-3.2,1C354.5,22.2,354.1,23.1,354.1,24.1z"/>
	<path d="M388.9,20.5h-7.1v18.3h-3.6V20.5h-7v-2.9h17.7V20.5z"/>
	<path d="M406.1,17.6h3.6v21.2h-3.6V23.3l-9.8,15.5h-3.6V17.6h3.6v15.5L406.1,17.6z"/>
	<path d="M432.9,38.8h-3.6v-9.1h-9.7v9.1h-3.6V17.6h3.6v9.2h9.7v-9.2h3.6V38.8z"/>
</g>
<g>
	<path d="M104.5,60.2l3.2-4.8h1.6l-4,5.8l4.2,6h-1.5l-3.4-5l-3.4,5h-1.5l4.2-6l-4-5.8h1.5L104.5,60.2z"/>
	<path d="M115.4,65.3l3.5-10h1.4l-5.1,13.9l-0.3,0.6c-0.6,1.4-1.7,2.2-3,2.2c-0.3,0-0.6-0.1-1-0.2l0-1.1l0.7,0.1
		c0.6,0,1.2-0.2,1.6-0.5s0.7-0.9,1-1.6l0.6-1.6l-4.5-11.8h1.4L115.4,65.3z"/>
	<path d="M121.4,66.1l0.6-0.8c0.9-1.2,1.4-3.1,1.6-5.5l0.2-4.5h7v10.7h1.2v4.6h-1.3v-3.5h-8.9v3.5h-1.3l0-4.6H121.4z M122.9,66.1
		h6.5v-9.5h-4.4l-0.1,3.1C124.8,62.5,124.1,64.6,122.9,66.1z"/>
	<path d="M133.8,61.1c0-1.1,0.2-2.2,0.7-3.1c0.4-0.9,1.1-1.6,1.9-2.1s1.7-0.8,2.7-0.8c1.6,0,2.9,0.6,3.8,1.7c1,1.1,1.5,2.6,1.5,4.4
		v0.3c0,1.1-0.2,2.2-0.7,3.1c-0.4,0.9-1.1,1.6-1.9,2.1c-0.8,0.5-1.7,0.7-2.7,0.7c-1.6,0-2.8-0.6-3.8-1.7c-1-1.1-1.5-2.6-1.5-4.4
		V61.1z M135.2,61.5c0,1.4,0.4,2.6,1.1,3.5c0.7,0.9,1.7,1.4,2.9,1.4c1.2,0,2.1-0.5,2.9-1.4c0.7-0.9,1.1-2.1,1.1-3.6v-0.3
		c0-0.9-0.2-1.7-0.5-2.5c-0.3-0.8-0.8-1.3-1.4-1.7s-1.3-0.6-2.1-0.6c-1.2,0-2.1,0.5-2.9,1.4c-0.7,0.9-1.1,2.1-1.1,3.6V61.5z"/>
	<path d="M156,61.7h-1.6v5.5h-1.3v-5.5h-1.6l-4.4,5.5h-1.7l4.9-6.1l-4.4-5.8h1.6l3.9,5.2h1.6v-5.2h1.3v5.2h1.6l3.9-5.2h1.6l-4.4,5.8
		l4.9,6.1h-1.7L156,61.7z"/>
	<path d="M173.2,67.2h-1.3v-5.4h-6.4v5.4h-1.3V55.4h1.3v5.3h6.4v-5.3h1.3V67.2z"/>
	<path d="M184.5,55.4h1.3v11.8h-1.3v-9.7l-6.4,9.7h-1.3V55.4h1.3v9.7L184.5,55.4z"/>
	<path d="M192.5,61.8h-1.8v5.4h-1.3V55.4h1.3v5.3h1.8l4.3-5.3h1.7l-4.9,5.7l5.4,6.1h-1.7L192.5,61.8z"/>
	<path d="M215.5,67.2h-1.3V56.5h-6.4v10.7h-1.3V55.4h9V67.2z"/>
	<path d="M218.3,61.1c0-1.1,0.2-2.2,0.7-3.1c0.4-0.9,1.1-1.6,1.9-2.1s1.7-0.8,2.7-0.8c1.6,0,2.9,0.6,3.8,1.7c1,1.1,1.5,2.6,1.5,4.4
		v0.3c0,1.1-0.2,2.2-0.7,3.1c-0.4,0.9-1.1,1.6-1.9,2.1c-0.8,0.5-1.7,0.7-2.7,0.7c-1.6,0-2.8-0.6-3.8-1.7c-1-1.1-1.5-2.6-1.5-4.4
		V61.1z M219.6,61.5c0,1.4,0.4,2.6,1.1,3.5c0.7,0.9,1.7,1.4,2.9,1.4c1.2,0,2.1-0.5,2.9-1.4c0.7-0.9,1.1-2.1,1.1-3.6v-0.3
		c0-0.9-0.2-1.7-0.5-2.5c-0.3-0.8-0.8-1.3-1.4-1.7s-1.3-0.6-2.1-0.6c-1.2,0-2.1,0.5-2.9,1.4c-0.7,0.9-1.1,2.1-1.1,3.6V61.5z"/>
	<path d="M241.4,66.3c0.9,0,1.7-0.3,2.3-0.8s1-1.2,1-2h1.3c0,0.7-0.3,1.4-0.7,2c-0.4,0.6-1,1.1-1.7,1.4c-0.7,0.3-1.4,0.5-2.2,0.5
		c-1.6,0-2.8-0.5-3.7-1.6c-0.9-1.1-1.4-2.5-1.4-4.4v-0.4c0-1.2,0.2-2.2,0.6-3.1c0.4-0.9,1-1.6,1.8-2.1c0.8-0.5,1.7-0.7,2.7-0.7
		c1.3,0,2.4,0.4,3.2,1.2c0.8,0.8,1.3,1.8,1.4,3.1h-1.3c-0.1-0.9-0.4-1.7-1-2.2c-0.6-0.6-1.4-0.9-2.3-0.9c-1.2,0-2.1,0.4-2.8,1.3
		c-0.7,0.9-1,2.1-1,3.6v0.4c0,1.5,0.3,2.7,1,3.5S240.2,66.3,241.4,66.3z"/>
	<path d="M248.7,67.2V55.4h4.3c1.5,0,2.7,0.3,3.5,0.8c0.8,0.5,1.2,1.3,1.2,2.4c0,0.6-0.2,1.1-0.5,1.6c-0.4,0.5-0.9,0.8-1.6,1
		c0.8,0.1,1.4,0.5,1.9,1s0.7,1.1,0.7,1.8c0,1-0.4,1.9-1.2,2.4c-0.8,0.6-1.9,0.9-3.3,0.9H248.7z M250,60.7h3.3c2.1,0,3.1-0.7,3.1-2.1
		c0-0.7-0.3-1.2-0.8-1.6s-1.4-0.5-2.5-0.5h-3V60.7z M250,61.8v4.4h3.8c1,0,1.7-0.2,2.3-0.6c0.5-0.4,0.8-0.9,0.8-1.6
		c0-0.7-0.3-1.2-0.8-1.6c-0.5-0.4-1.3-0.6-2.3-0.6H250z"/>
	<path d="M265.7,67.4c-1,0-1.9-0.2-2.7-0.7c-0.8-0.5-1.4-1.2-1.9-2.1c-0.5-0.9-0.7-1.9-0.7-3v-0.5c0-1.1,0.2-2.2,0.7-3.1
		s1.1-1.6,1.8-2.2c0.8-0.5,1.6-0.8,2.6-0.8c1.4,0,2.6,0.5,3.4,1.5c0.8,1,1.3,2.3,1.3,4v0.7h-8.5v0.3c0,1.3,0.4,2.5,1.2,3.4
		c0.8,0.9,1.7,1.3,2.9,1.3c0.7,0,1.3-0.1,1.9-0.4s1-0.7,1.5-1.2l0.8,0.6C268.9,66.7,267.5,67.4,265.7,67.4z M265.4,56.3
		c-1,0-1.8,0.4-2.5,1.1c-0.7,0.7-1.1,1.7-1.2,2.9h7.1v-0.1c0-1.1-0.4-2.1-1-2.8C267.2,56.6,266.4,56.3,265.4,56.3z"/>
	<path d="M281.1,56.5h-4.3v10.7h-1.3V56.5h-4.2v-1.1h9.8V56.5z"/>
	<path d="M287.1,65.3l3.5-10h1.4l-5.1,13.9l-0.3,0.6c-0.7,1.4-1.7,2.2-3,2.2c-0.3,0-0.7-0.1-1-0.2l0-1.1l0.7,0.1
		c0.6,0,1.2-0.2,1.6-0.5s0.7-0.9,1-1.6l0.6-1.6L282,55.4h1.4L287.1,65.3z"/>
	<path d="M292.3,70.2l-0.8-0.6c0.7-0.9,1-1.8,1-2.8v-1.7h1.3v1.4C293.8,68,293.3,69.3,292.3,70.2z"/>
	<path d="M302.4,67.2V55.4h4.3c1.5,0,2.7,0.3,3.5,0.8c0.8,0.5,1.2,1.3,1.2,2.4c0,0.6-0.2,1.1-0.5,1.6c-0.4,0.5-0.9,0.8-1.6,1
		c0.8,0.1,1.4,0.5,1.9,1s0.7,1.1,0.7,1.8c0,1-0.4,1.9-1.2,2.4c-0.8,0.6-1.9,0.9-3.3,0.9H302.4z M303.7,60.7h3.3
		c2.1,0,3.1-0.7,3.1-2.1c0-0.7-0.3-1.2-0.8-1.6c-0.6-0.3-1.4-0.5-2.5-0.5h-3V60.7z M303.7,61.8v4.4h3.8c1,0,1.7-0.2,2.3-0.6
		c0.5-0.4,0.8-0.9,0.8-1.6c0-0.7-0.3-1.2-0.8-1.6c-0.5-0.4-1.3-0.6-2.3-0.6H303.7z"/>
	<path d="M322.6,55.4h1.3v11.8h-1.3v-9.7l-6.4,9.7h-1.3V55.4h1.3v9.7L322.6,55.4z"/>
	<path d="M327.2,66.1l0.6-0.8c0.9-1.2,1.4-3.1,1.6-5.5l0.2-4.5h7v10.7h1.2v4.6h-1.3v-3.5h-8.9v3.5h-1.3l0-4.6H327.2z M328.7,66.1
		h6.5v-9.5h-4.4l-0.1,3.1C330.5,62.5,329.8,64.6,328.7,66.1z"/>
	<path d="M344.9,67.4c-1,0-1.9-0.2-2.7-0.7c-0.8-0.5-1.4-1.2-1.9-2.1c-0.5-0.9-0.7-1.9-0.7-3v-0.5c0-1.1,0.2-2.2,0.7-3.1
		s1.1-1.6,1.8-2.2c0.8-0.5,1.6-0.8,2.6-0.8c1.4,0,2.6,0.5,3.4,1.5c0.8,1,1.3,2.3,1.3,4v0.7h-8.5v0.3c0,1.3,0.4,2.5,1.2,3.4
		c0.8,0.9,1.7,1.3,2.9,1.3c0.7,0,1.3-0.1,1.9-0.4s1-0.7,1.5-1.2l0.8,0.6C348.1,66.7,346.7,67.4,344.9,67.4z M344.6,56.3
		c-1,0-1.8,0.4-2.5,1.1c-0.7,0.7-1.1,1.7-1.2,2.9h7.1v-0.1c0-1.1-0.4-2.1-1-2.8C346.4,56.6,345.6,56.3,344.6,56.3z"/>
	<path d="M351.1,61.1c0-1.1,0.2-2.2,0.7-3.1c0.4-0.9,1.1-1.6,1.9-2.1c0.8-0.5,1.7-0.8,2.7-0.8c1.6,0,2.9,0.6,3.8,1.7
		c1,1.1,1.5,2.6,1.5,4.4v0.3c0,1.1-0.2,2.2-0.7,3.1c-0.4,0.9-1.1,1.6-1.9,2.1c-0.8,0.5-1.7,0.7-2.8,0.7c-1.6,0-2.8-0.6-3.8-1.7
		c-1-1.1-1.5-2.6-1.5-4.4V61.1z M352.5,61.5c0,1.4,0.4,2.6,1.1,3.5c0.7,0.9,1.7,1.4,2.9,1.4c1.2,0,2.1-0.5,2.9-1.4
		c0.7-0.9,1.1-2.1,1.1-3.6v-0.3c0-0.9-0.2-1.7-0.5-2.5s-0.8-1.3-1.4-1.7c-0.6-0.4-1.3-0.6-2.1-0.6c-1.2,0-2.1,0.5-2.9,1.4
		c-0.7,0.9-1.1,2.1-1.1,3.6V61.5z"/>
	<path d="M372.2,55.4h1.3v11.8h-1.3v-9.7l-6.4,9.7h-1.3V55.4h1.3v9.7L372.2,55.4z"/>
	<path d="M386.1,67.2h-1.3v-5.4h-6.4v5.4h-1.3V55.4h1.3v5.3h6.4v-5.3h1.3V67.2z"/>
	<path d="M398.7,61.7h-1.6v5.5h-1.3v-5.5h-1.6l-4.4,5.5h-1.7l4.9-6.1l-4.4-5.8h1.6l3.9,5.2h1.6v-5.2h1.3v5.2h1.6l3.9-5.2h1.6
		l-4.4,5.8l4.9,6.1h-1.7L398.7,61.7z"/>
	<path d="M411.2,67.4c-1,0-1.9-0.2-2.7-0.7c-0.8-0.5-1.4-1.2-1.9-2.1c-0.5-0.9-0.7-1.9-0.7-3v-0.5c0-1.1,0.2-2.2,0.7-3.1
		s1.1-1.6,1.8-2.2c0.8-0.5,1.6-0.8,2.6-0.8c1.4,0,2.6,0.5,3.4,1.5c0.8,1,1.3,2.3,1.3,4v0.7h-8.5v0.3c0,1.3,0.4,2.5,1.2,3.4
		c0.8,0.9,1.7,1.3,2.9,1.3c0.7,0,1.3-0.1,1.9-0.4s1-0.7,1.5-1.2l0.8,0.6C414.4,66.7,413.1,67.4,411.2,67.4z M411,56.3
		c-1,0-1.8,0.4-2.5,1.1c-0.7,0.7-1.1,1.7-1.2,2.9h7.1v-0.1c0-1.1-0.4-2.1-1-2.8C412.8,56.6,412,56.3,411,56.3z"/>
	<path d="M427.3,67.2H426v-5.4h-6.4v5.4h-1.3V55.4h1.3v5.3h6.4v-5.3h1.3V67.2z"/>
	<path d="M435.4,67.4c-1,0-1.9-0.2-2.7-0.7c-0.8-0.5-1.4-1.2-1.9-2.1c-0.5-0.9-0.7-1.9-0.7-3v-0.5c0-1.1,0.2-2.2,0.7-3.1
		s1.1-1.6,1.8-2.2c0.8-0.5,1.6-0.8,2.6-0.8c1.4,0,2.6,0.5,3.4,1.5c0.8,1,1.3,2.3,1.3,4v0.7h-8.5v0.3c0,1.3,0.4,2.5,1.2,3.4
		c0.8,0.9,1.7,1.3,2.9,1.3c0.7,0,1.3-0.1,1.9-0.4s1-0.7,1.5-1.2l0.8,0.6C438.6,66.7,437.2,67.4,435.4,67.4z M435.2,56.3
		c-1,0-1.8,0.4-2.5,1.1c-0.7,0.7-1.1,1.7-1.2,2.9h7.1v-0.1c0-1.1-0.4-2.1-1-2.8C437,56.6,436.2,56.3,435.2,56.3z"/>
	<path d="M451.9,61.4c0,1.8-0.4,3.3-1.2,4.4c-0.8,1.1-1.9,1.6-3.3,1.6c-1.6,0-2.9-0.6-3.7-1.7v6h-1.3V55.4h1.2l0.1,1.7
		c0.9-1.3,2.1-1.9,3.7-1.9c1.4,0,2.5,0.5,3.3,1.6s1.2,2.6,1.2,4.5V61.4z M450.6,61.2c0-1.5-0.3-2.7-0.9-3.6
		c-0.6-0.9-1.5-1.3-2.6-1.3c-0.8,0-1.5,0.2-2.1,0.6c-0.6,0.4-1,0.9-1.3,1.7v5.7c0.3,0.7,0.8,1.2,1.3,1.6c0.6,0.4,1.3,0.5,2.1,0.5
		c1.1,0,2-0.4,2.6-1.3S450.6,62.8,450.6,61.2z"/>
</g>
</svg>
