<?xml version="1.0" encoding="utf-8"?>
<!-- Generator: Adobe Illustrator 26.5.0, SVG Export Plug-In . SVG Version: 6.00 Build 0)  -->
<svg version="1.1" id="Ebene_1" xmlns="http://www.w3.org/2000/svg" xmlns:xlink="http://www.w3.org/1999/xlink" x="0px" y="0px"
	 viewBox="0 0 88.8 40" style="enable-background:new 0 0 88.8 40;" xml:space="preserve">
<style type="text/css">
	.st0{fill:#FCFCFC;}
	.st1{fill:#FFFFFF;}
</style>
<g id="MA_Logo_2-farbig_rgb" transform="translate(-19799.301 -8836.1)">
	<rect id="Rechteck_28" x="19799.3" y="8836.1" width="40" height="40"/>
	<rect id="Rechteck_29" x="19841.3" y="8836.1" width="40" height="40"/>
	<path id="Pfad_1" class="st0" d="M19827,8871l0.1-22.8h-0.1l-6,22.8h-3.9l-5.8-22.8h-0.1l0.1,22.8h-4.6v-29.7h6.8l5.7,21.7h0.2
		l5.6-21.7h7.1v29.7H19827z"/>
	<path id="Pfad_2" class="st1" d="M19868.4,8871.2l-2.4-7.9h-9.7l-2.5,7.9h-5.2l9.9-30.2h5.8l9.6,30.2H19868.4z M19861.3,8846.2
		L19861.3,8846.2c0,0-3.1,10.8-3.8,12.8h7.4C19864.6,8858.4,19861.5,8847.4,19861.3,8846.2z"/>
	<path id="Pfad_3" d="M19885,8838.5h0.6c0.2,0,0.4-0.1,0.4-0.4s-0.2-0.4-0.5-0.4h-0.6L19885,8838.5L19885,8838.5z M19884.5,8837.3
		h0.9c0.5,0,1.1,0.1,1.1,0.9c0,0.3-0.2,0.6-0.5,0.7l0.5,1.2h-0.6l-0.4-1.1h-0.6v1.1h-0.5L19884.5,8837.3L19884.5,8837.3z
		 M19885.5,8841c1.2,0,2.2-1,2.2-2.2s-1-2.2-2.2-2.2s-2.2,1-2.2,2.2l0,0C19883.2,8840,19884.2,8841,19885.5,8841z M19882.8,8838.7
		c0-1.5,1.2-2.6,2.6-2.6c1.5,0,2.6,1.2,2.6,2.6s-1.2,2.6-2.6,2.6l0,0C19884,8841.3,19882.8,8840.2,19882.8,8838.7z"/>
</g>
</svg>
