<?xml version="1.0" encoding="utf-8"?>
<!-- Generator: Adobe Illustrator 26.5.0, SVG Export Plug-In . SVG Version: 6.00 Build 0)  -->
<svg version="1.1" id="Слой_1" xmlns="http://www.w3.org/2000/svg" xmlns:xlink="http://www.w3.org/1999/xlink" x="0px" y="0px"
	 viewBox="0 0 850.4 850.4" style="enable-background:new 0 0 850.4 850.4;" xml:space="preserve">
<style type="text/css">
	.st0{stroke:#E9961A;stroke-width:16;stroke-miterlimit:10;}
	.st1{fill:#FFFFFF;}
</style>
<circle class="st0" cx="425.2" cy="426" r="413"/>
<g>
	<path d="M347.5,606.4v43.1h-7.8v-43.1H325v-7.3h37.2v7.3H347.5z"/>
	<path d="M376.5,606.1c5-5,11-7.5,18.1-7.5s13.2,2.5,18.2,7.5s7.5,11.1,7.5,18.2c0,7.1-2.5,13.2-7.5,18.2s-11.1,7.5-18.2,7.5
		s-13.2-2.5-18.1-7.5c-5-5-7.5-11.1-7.5-18.2C369,617.2,371.5,611.1,376.5,606.1z M407.4,611.2c-3.5-3.5-7.7-5.2-12.7-5.2
		s-9.3,1.7-12.7,5.2c-3.4,3.5-5.1,7.9-5.1,13.1c0,5.3,1.7,9.7,5.1,13.2s7.7,5.2,12.7,5.2s9.3-1.7,12.7-5.2s5.2-7.8,5.2-13.2
		C412.6,619,410.9,614.6,407.4,611.2z"/>
	<path d="M437,606.1c5-5,11-7.5,18.1-7.5s13.2,2.5,18.2,7.5s7.5,11.1,7.5,18.2c0,7.1-2.5,13.2-7.5,18.2s-11.1,7.5-18.2,7.5
		s-13.2-2.5-18.1-7.5s-7.5-11.1-7.5-18.2C429.5,617.2,432,611.1,437,606.1z M467.9,611.2c-3.5-3.5-7.7-5.2-12.7-5.2
		s-9.3,1.7-12.7,5.2c-3.4,3.5-5.1,7.9-5.1,13.1c0,5.3,1.7,9.7,5.1,13.2s7.7,5.2,12.7,5.2s9.3-1.7,12.7-5.2s5.2-7.8,5.2-13.2
		C473.1,619,471.4,614.6,467.9,611.2z"/>
	<path d="M525.4,649.5h-32v-50.4h7.8v43.1h24.3L525.4,649.5L525.4,649.5z"/>
</g>
<g>
	<path class="st1" d="M159.7,391.8c-0.3,0.2-0.8,0.3-1.1,0.7c-0.3-0.3-0.5-0.7-0.8-0.8c-0.8-0.2-3.1-0.2-3.9-0.2
		c-3.1-0.5-10.4-1.5-12.1-4.1c-0.2-0.7-0.2-1.1-0.3-2c-1.8-5.2-1.6-6.5-2.6-12.7c-0.2-0.5-0.7-1.5-0.3-2.1
		c-1.8-7.5-1.5-6.7-1.8-14.5c-0.5-5.4-1-28.7-1-40.3v-5.1c-0.2-2,0.8-4.9,0.8-6.8c0-0.5,0-1-0.2-1.3c-2.4,1.3-4.2,1.5-6.5,1.5H125
		c-1-0.2-2,0.3-2.8,0c-0.7-0.3-0.5-0.8-1.1-1c0.2-1,0.2-1.1,0-1.8c0.5-0.3,0.5-0.5,1.1-1l-0.8-0.3c0.2-0.2,0.3-0.5,0.7-0.8
		c-0.3-0.2-0.5-0.3-0.7-0.5c0.5-0.8,0.5-1,0.7-2c0.8-0.2,1.8-0.8,2.3-1.1c0-0.2-0.2-0.3-0.2-0.5c-0.8,0.2-1.6,0.3-2.4,0.3
		c0.2,0,0.2-0.2,0.3-0.3c0.5-0.5,1-1,1.6-1.5c-0.8,0.2-1.3,0.3-1.5,0c0,0,0.2-0.2,0.2-0.3l1.3-0.8c-0.3-0.5-0.3-0.3-0.3-0.8
		c1.8-1.1,3.6-2.4,5.5-3.8l-0.3-0.3c-0.5,0.2-1.5,0.5-1.8,0.2h0.3c0.3-0.8,1.6-1.5,2.4-1.6c0-0.2,0-0.5,0.2-0.7v-0.2
		c-1,0-1.6,0.5-2.3,0.2c2.3-0.5,3.9-2,5.7-2.9c3.3-2,7.2-3.4,11.3-4.6c5.2-1.6,16-2.6,23.8-2.6c2.6,0,4.7,0.2,6.4,0.3
		c6.2,1,9.5,2.4,13.4,3.9c4.9,2,8.3,3.1,12.1,5.9c4.1,3.3,8.2,6.4,10.8,10.8c1.6,2.4,3.3,5.5,4.7,7.7c1,1.5,2.8,8,2.8,16
		c0,5.5-0.8,11.7-3.4,17.4c-0.5,0.5-1,2-1.3,2.4c-1.3,2.8-2.4,4.4-4.7,6.5c-1.5,1.1-3.4,2.4-4.7,3.9c-2.8,2.9-5.7,5.1-9.6,6.7
		c-0.5,0-1,0.2-1.3,0c-1,0.5-1.6,1.6-2.8,2c-0.2-0.7-0.3-0.7-0.8-0.8c-0.7,0.7-5.5,2.8-6.7,2.1c-0.7-0.3-1.3-1.3-1.5-2
		c-1.3,0.3-2.4,0.3-3.8,0.5c-2.4,0.5-5.7-1-7.3-1.3c-1.8-0.5-5.5-1.8-3.4-3.3c0.2-0.2,0.2-0.3,0.3-0.7h0.5c-0.8-0.5-0.8-1.6-1.5-2.3
		c0.5-0.5,0.5-1.3,0.7-1.5c0.3-0.3,0.8-0.3,1.3-0.7v-0.2c-0.7,0.2-1.1,0-1.6-0.5l1-1c-0.3-0.5-0.5-0.3-0.7-1c0.7-0.5,0.8-1,1.1-1.8
		c-0.3-0.2-0.2,0-0.5-0.3l0.8-0.3c-0.2-0.5-0.3-0.8-0.2-1.3c0.5,0,0.8,0,1.3-0.2c0.2-1.8,0.3-2.8,1-4.1c0.3,0,0.7,0.2,0.8,0.2v-1.1
		c0.5,0,0.7,0,0.8-0.2c0-0.5,0-0.8,0.2-1.1c0.5,0.2,1,0.2,1.1-0.2l0.8-1h0.3c0.7,0,2.3-0.3,3.3-0.5c0.3-0.8,0.2-1.1,0.3-2
		c1,0.2,1.3,0,2.3,0.2l0.2-1c2-0.3,5.9-6,6.2-7.8c0.2-0.5,0.2-1.1,0.2-2c0-3.3-0.7-8.5-1-9.8c-1-3.9-4.7-8.6-8.5-10.4l-5.5-1.5
		c-1.5-0.7-6.4-1.8-9.3-1.8c-1,0-1.8,0.2-2.1,0.5c2,1.5,1.8,12.7,2.1,15c0.2,1.1,0.2,2.4,0.3,3.6c-0.2,1.1-0.3,3.1-0.3,5.5
		c0,12.2,2,37,1.6,42.2c0.5,2.8,0.8,5.4,0.8,7.8c0,1.5-0.2,2.8-0.3,4.1c-0.3,0.3,2,6.8,2,10.9c0,1.1-0.2,2.1-0.7,2.8
		c-1.5,0.3-2.1,2.4-4.1,2.1C161.3,392.7,160.7,391.8,159.7,391.8z"/>
	<path class="st1" d="M255.9,390c-2.6-2.1-5.7-4.2-9-6l-3.6-3.3c-2.4-1.1-6.4-6.4-8-9.1c-2.4-4.4-5.1-9-6.7-13.7
		c-1.5-4.7-2.3-9.3-2.3-13.7c0-11.9,5.1-22.2,11.7-30.3c2.3-2.8,11.1-8,14.5-9.3c1-0.3,1.8,0.3,2.6,0c2.4-0.8,4.2-2.9,7-3.8
		c2.1-0.7,5.5-0.2,7.7-1.1c3.4,0.8,6.5,0.8,9.9,1.8c11.7,3.4,22.2,11.4,28.7,20.7c1.3,2,2.4,4.6,3.6,6.2c-0.2,0.2-0.2,0.3-0.2,0.5
		c0,1.1,1.6,3.1,1.5,4.6v0.5c0,1.3,0.5,2.8,0.7,4.2c0.3,5.2-1.1,20.5-2.1,22.3c-0.2,0-0.3,1.8-0.5,1.6c-1.5,7.7-5.1,13-8.2,14.4
		c-0.7,0.2-0.8,0-1.5,0c-0.3,0.3-0.2,0.3-0.7,0.5c0.2,0.3,0.2,0.3,0.2,0.8c-1.1,0.3-1.8,1.5-2.6,1.8h-2.1c-0.3,0.8-4.1,5.7-5.2,5.9
		c-0.3-0.2-3.3,1.3-3.8,1.3l-5.4,2.3c-1.3,0.7-2.1,1.8-3.3,2.4c-1.8,0.3-3.4,0.5-5.2,0.7c-0.8,0.2-2.1,0.3-3.9,0.3
		C265.2,392.4,258,391.6,255.9,390z M276,366.5c1.1,0,3.1-1.6,4.6-1.6c2.8-1.3,4.1-11.3,4.1-17.4c0-1.5,0-2.8-0.2-3.6
		c-0.7-3.3-0.5-5.7-1.3-8.8c-0.2-0.5-1.5-2.4-1.5-2.4c-2-2.6-3.4-4.6-7.3-6.2c-2.3-1.1-3.9-0.7-5.4-2.1c-0.3,0.3-3.1,2-4.1,1.5
		c-1,1.3-3.6,0.5-4.7,1.8c-1.6,2.6-3.3,4.2-4.2,7.5c-0.5,2.4-0.8,4.9-0.8,7.3c0,6.4,1.8,12.6,5.7,16.8l5.4,4.4
		c2.4,1.6,3.4,3.3,6.7,3.3C273.7,366.8,274.7,366.7,276,366.5z"/>
	<path class="st1" d="M345.1,390.5V390c-1.8,0.8-7-2-8.8-3.1c-1.5-0.8-3.1-0.8-4.4-1.6c-4.2-3.1-10.3-10.6-9-14.8
		c2.9-2,3.3-2.1,3.9-1.6v-1c0-0.7,0.2-1.3,0.8-1.1c0.3-0.5,0.3-0.8,1.1-1.1l0.5,0.5c0-0.7,0.3-1,0.7-1.5c0.7,0,0.7,0.2,1.1,0.5
		c-0.2-0.7-0.2-1.1-0.3-1.5c1.1-0.7,1.3-1.5,3.1-1.8l1.6-1.5h0.5c1.6,0,2.3,0.8,3.4,1.3c0.2-0.5,0.2-0.7,0.8-0.3
		c2.1,1.6,3.8,3.9,5.9,5.2c1.5,0.8,3.8,1.8,5.5,2.3c2.3,0.7,5.4,1.3,8.2,1.3c3.6,0,7-1.1,8.2-4.6c-1.1-4.7-3.1-5.4-6.2-6.5
		c-1.3-1-3.1-1.5-4.1-2.4l-19.6-8c-1.5-1-2.9-2.3-4.6-3.4c-1.3-1-2.1-2.4-3.1-3.8c-2.6-3.9-3.1-8.3-3.6-12.7c0-0.7-0.2-1.3-0.2-2
		c0-5.1,2.1-9.9,3.9-13.2l3.1-5.9c1.3-1.5,3.3-2.3,4.7-3.8c4.7-4.1,9.9-4.6,19.4-5.1c1.6-0.2,3.3-0.2,4.7-0.2c3.6,0,6.5,0.3,7.8,0.7
		l3.1,0.8c0.7,0,1.5,0.2,2.3,0.3c1,0.3,2,1.1,3.1,1.5c1.6,0.5,3.3,1.1,5.1,1.6c2.3,1.1,3.1,1.6,4.9,3.1c1.3,1.3,1.3,2.6,2.3,4.1
		l-0.2,0.2c-2.6,0.8-2.1,2.4-3.6,4.1c-0.5,0-0.8,0.3-1.3,0.5c-0.3,0.5-0.5,1.1-0.8,1.6l-1.5,1c-0.7,0.5-0.3,1.1-1.1,1.8
		c0.2,0.3,0.2,0.5,0.2,0.8c0,0.8-0.7,1.1-1.3,2.1c-0.3,0.3-0.5,1-0.8,1.3l-1.8,1c-1,1.6-0.7,2.6-2.6,3.4c-2.3-3.3-9.8-5.7-15.7-5.7
		c-4.2,0-7.7,1.3-7.7,4.2c0,2.9,10.3,5.5,14.8,7.5c2.4,1,5.2,2.4,7.2,3.9c6.4,4.2,10.6,4.6,14.7,11.3c1.8,2.8,5.2,8.8,5.2,15.3
		c0,2.3-0.5,5.5-1.1,7.7c-0.8,2.3-2.4,4.9-4.2,6.8c-1,1.3-2.4,2.3-3.4,3.3c0,0-0.2,0-6.8,4.4c-2,0.7-3.4,1.6-5.1,2.3
		c-1,0.3-2,0.5-3.3,0.7c-1,0.3-2.3,1.6-3.4,2.1c-1.3,0.5-3.6,0.7-6,0.7C355.4,392.9,347.6,391.8,345.1,390.5z"/>
	<path class="st1" d="M417.7,284.6c-0.3-0.5-0.5-1-0.8-1.6c-0.5,0.2-2.8,1.3-4.7,1.3c-3.3,0-4.2-5.5-5.1-9.5
		c-0.2-1.5,0.2-4.4,0.2-6.5c0-1,0-1.6-0.3-2.1c-0.3-0.8-0.3-0.8-1.3-0.7l0.2-0.5l1.8-0.8c-0.2-0.8-0.5-0.5-0.2-1.3
		c0.2-0.2,0,0,0.2-0.3c-0.2-0.8-0.5-0.3,0-1c0.8-0.2,2.6-1,2.9-1.8l0.2-1.1h1.5c0-0.7,0-0.7,0.2-1c0.8,0.2,0.5,0,1.1-0.7
		c0.8,0.2,0.8,0.7,1.5,0.2c-0.3-0.3-0.3-0.5-0.5-1c1,0.5,1.1,0.5,2.4,0.3c-0.3-0.8-0.3-0.7-0.3-1.5l0.5-0.3c0.3,0.2,0.5,0.3,1,0.5
		c0.2-0.8,0-0.8,0.7-1.3c2.9,0.5,5.7,0.5,8.2,1.3c0-0.2,0.3-0.3,0.3-0.8c1.6,1,4.7,0.2,6.7,1.3c2.1,1.5,7.7,15,6.4,18.9
		c-1.6,4.2-5.2,5.4-7.5,9.1h-1.1c-2,0-1.6,0.5-3.6,1.3l-0.7,0.2c-1.1,0-2.3-1-2.8-1l-1,0.5c-0.8,0.3-1.8,0.7-2.8,0.7
		C419.6,285.4,418.5,285.1,417.7,284.6z M415.9,392.7c-0.7,0-1.3,0.3-2.3,0.2c-0.2-0.8-0.7-0.8-1-0.8c-0.5,0-1,0-1.5-0.5
		c-1.6-2.1-2.1-5.4-2.9-7.8c-2.3-6.7-2.6-19.4-2.6-27.7v-5.2c0.2-5.7,0.3-9,0.8-13.7c0.2-1,0.2-2,0.2-2.8c0-4.2-0.8-8.2-0.8-11.6
		c0-8.8-0.3-17,5.9-19.7c0.2,0.3,1.1,0,1.6,0c0-0.5,0-1.1,0.2-1.5h0.8l0.3,0.3c0.2-1.1,0.7-1.1,1.6-1.6c0.3,0.3,1,0.5,1.3,0.7
		l0.2-0.2c-0.2-0.2-0.2-0.5-0.3-0.7c0.2-0.2,0.2-0.3,0.3-0.3l1.1,0.3c0.5,0.2,1,0.5,1.3,0.7c0.2,0,0.2-0.2,0.3-0.2
		c0-1,0.3-1.8,0.8-2.3c0.2,0.5,0.2,0.5,0.7,0.8v-1.3c1.1,0.3,1.1,1,2,1.5h0.2c0-0.5,0-0.5,0.5-0.7c1,0.3,4.9,0.5,6.2,2.3
		c1.6,2.1,2.3,9.9,2.6,12.7c-0.2,1-0.3,1.6-0.7,2.6c0.8,4.4,1,9.8,1,15.3c0,4.2-0.2,8.5-0.2,12.6c0,2,0,3.9,0.2,5.7
		c0.2,1,0.2,2.3,0.3,3.3c0,1.1-0.3,3.1-0.8,4.2c0,0.3-0.2,0.7-0.2,1c0,1.1,0.3,2.4,0.3,3.8c0,0.5,0,1-0.2,1.5c0.2,1,0.5,1.8,0.7,2.8
		c-0.2,1-0.5,2-0.7,2.9c1,3.8,0.7,7.3,1.6,11.3c0.2,1,1.1,2.9,1,3.8c-0.7,1.8-2.1,2.3-3.6,3.3c0.5,0.5,0.7,0.3,0.8,1
		c-0.2,0.8-0.7,1.6-0.8,2.3c-0.3,0.3-0.7,0.5-1.1,0.5c-1.1,0-2.8-1.3-3.1-2c-0.5,0.5-5.9,3.3-6.4,3.4h-0.2c-0.8,0-2-0.7-2.8-0.2
		c-1.1,0.2-1.3,0.3-1.5,0.5C416.7,392.7,416.4,392.7,415.9,392.7z"/>
	<path class="st1" d="M485.5,390.3h-2.6c-5.4-1.3-12.2-1.8-15.8-5.1c-1.5-1.5-2-3.3-3.3-5.2c-0.3-0.3-1.3-0.7-1.6-1.1
		c-2-2.8-5.1-8.3-6.2-11.9c-1.3-3.6-1.3-7.8-2.3-11.1c-0.2-0.7-0.3-2.6-0.3-4.9c0-3.4,0.2-7.7,0.2-10.8c0-1.5,0-2.8-0.2-3.6
		c-0.2-0.7-0.2-1.3-0.2-2c0-3.4,0.8-6.7,0.8-10.9h-0.3c-0.5,0-11.7-0.3-12.6-0.7c-0.8-0.5-2-1.8-2.6-2.4v-0.2l0.7-0.5
		c-0.2-0.3-0.5-0.7-0.7-1.1c0.3-0.3,0.8-0.5,1.3-0.8c-0.2-1,0-1-0.3-2c0.7-0.2,1-1,1.8-1.6c-0.5-1-0.8-1.1-0.5-2
		c0.7-0.3,1.3-2.3,1-2.6l-0.5-2.8c-0.2-0.2-0.2-0.3-0.3-0.7c0.7-0.2,1.1-0.3,1.6-0.7v-0.3c0-0.8,0.5-1.5,0.2-2.4
		c1-1.1,2.3-1.5,4.2-2c1.1-0.2,6.7,0.5,7.7,0.2c0-3.9,0.2-13.4,1.6-16h0.8l0.5-2.1l1,0.5c1.6-0.8,2.9-2.3,3.8-3.8c1,0.2,2,0,2.8,0.2
		l0.5-2.1c0.7,0.2,1.3,0.5,2,0.7c0.7-0.5,0.5-1,1-1.3s1-0.5,1.6-0.5s1.5,0.2,2.1,0.3l2-1.8c0-0.3,0-0.7-0.2-1h1.1
		c0.2,0.2,0.7,0.2,1,0.2c0.7,0,1.5-0.2,1.8-0.5c0.5,0.2,2.3,0.2,2.6,0.3c1,1.3,0.5,2.6,1.5,3.9c1.3,2.9,1.8,5.1,1.8,10.6l-0.2,7.8
		c0,1.1,0,2.4,0.2,3.6h10.6c2.9-0.2,4.2-0.5,5.9-0.5c0.8,0,1.6,0,2.8,0.2c0.5,0,0.8,0.2,1.1,0.2c1.1,0,2-0.3,2.6-0.3
		c1,0,1.8,0.3,3.1,1.5v0.3c0,1.3,1,3.1,0.5,4.2c-0.3,0.3-0.7,0.8-1,1.3c0,0.2-0.2,0.5-0.2,0.8c0,1.1,0.5,2.8,0.5,3.3l-0.3,4.6
		c-0.3,0.5-0.7,1.1-1,1.8c-0.5,0.5-1,0.2-1.5,0.7c-0.3,1-0.7,2-0.8,3.1h-0.7c-1.1,0-1,0.5-1.8,1c-1,0.3-2.3,0.5-3.8,0.5
		c-1,0-2,0-2.9-0.2c-2.9-0.3-10.1,0.3-13,1.1c-0.2,4.7-1,6.8-1,11.1c0,1.5,0,3.1,0.3,4.7c0.3,2.1,0.5,9.6,0.8,11.1
		c0.5,3.6,0.3,9.9,3.4,11.7c1.1,0.7,2.4,1.8,3.3,1.8s2,0.2,2.9,0.2c1.1,0,2.4-0.2,3.4-0.5c3.8-1.3,4.9-0.8,9.6-2.9
		c0.8,1.3,1,2.6,1.1,4.6c-0.8,1.6,2,2.6,2.6,4.7c0,0.3-0.7,0.3-0.8,0.5c-0.3,1.5,1.8,3.8,1.5,5.2c0.5,1.1,0.7,2.3,0.7,3.1
		c0,1.1-0.3,2-0.5,2.1l0.5,2.1c-0.2,0.5-6.8,3.9-6.8,3.9c-3.9,2.1-10.4,3.3-16.3,3.3C487.6,390.5,486.5,390.3,485.5,390.3z"/>
	<path class="st1" d="M532.8,284.6c-0.3-0.5-0.5-1-0.8-1.6c-0.5,0.2-2.8,1.3-4.7,1.3c-3.3,0-4.2-5.5-5.1-9.5
		c-0.2-1.5,0.2-4.4,0.2-6.5c0-1,0-1.6-0.3-2.1c-0.3-0.8-0.3-0.8-1.3-0.7l0.2-0.5l1.8-0.8c-0.2-0.8-0.5-0.5-0.2-1.3
		c0.2-0.2,0,0,0.2-0.3c-0.2-0.8-0.5-0.3,0-1c0.8-0.2,2.6-1,2.9-1.8l0.2-1.1h1.5c0-0.7,0-0.7,0.2-1c0.8,0.2,0.5,0,1.1-0.7
		c0.8,0.2,0.8,0.7,1.5,0.2c-0.3-0.3-0.3-0.5-0.5-1c1,0.5,1.1,0.5,2.4,0.3c-0.3-0.8-0.3-0.7-0.3-1.5l0.5-0.3c0.3,0.2,0.5,0.3,1,0.5
		c0.2-0.8,0-0.8,0.7-1.3c2.9,0.5,5.7,0.5,8.2,1.3c0-0.2,0.3-0.3,0.3-0.8c1.6,1,4.7,0.2,6.7,1.3c2.1,1.5,7.7,15,6.4,18.9
		c-1.6,4.2-5.2,5.4-7.5,9.1h-1.1c-2,0-1.6,0.5-3.6,1.3l-0.7,0.2c-1.1,0-2.3-1-2.8-1l-1,0.5c-0.8,0.3-1.8,0.7-2.8,0.7
		C534.8,285.4,533.6,285.1,532.8,284.6z M531,392.7c-0.7,0-1.3,0.3-2.3,0.2c-0.2-0.8-0.7-0.8-1-0.8c-0.5,0-1,0-1.5-0.5
		c-1.6-2.1-2.1-5.4-2.9-7.8c-2.3-6.7-2.6-19.4-2.6-27.7v-5.2c0.2-5.7,0.3-9,0.8-13.7c0.2-1,0.2-2,0.2-2.8c0-4.2-0.8-8.2-0.8-11.6
		c0-8.8-0.3-17,5.9-19.7c0.2,0.3,1.1,0,1.6,0c0-0.5,0-1.1,0.2-1.5h0.8l0.3,0.3c0.2-1.1,0.7-1.1,1.6-1.6c0.3,0.3,1,0.5,1.3,0.7
		l0.2-0.2c-0.2-0.2-0.2-0.5-0.3-0.7c0.2-0.2,0.2-0.3,0.3-0.3l1.1,0.3c0.5,0.2,1,0.5,1.3,0.7c0.2,0,0.2-0.2,0.3-0.2
		c0-1,0.3-1.8,0.8-2.3c0.2,0.5,0.2,0.5,0.7,0.8v-1.3c1.1,0.3,1.1,1,2,1.5h0.2c0-0.5,0-0.5,0.5-0.7c1,0.3,4.9,0.5,6.2,2.3
		c1.6,2.1,2.3,9.9,2.6,12.7c-0.2,1-0.3,1.6-0.7,2.6c0.8,4.4,1,9.8,1,15.3c0,4.2-0.2,8.5-0.2,12.6c0,2,0,3.9,0.2,5.7
		c0.2,1,0.2,2.3,0.3,3.3c0,1.1-0.3,3.1-0.8,4.2c0,0.3-0.2,0.7-0.2,1c0,1.1,0.3,2.4,0.3,3.8c0,0.5,0,1-0.2,1.5c0.2,1,0.5,1.8,0.7,2.8
		c-0.2,1-0.5,2-0.7,2.9c1,3.8,0.7,7.3,1.6,11.3c0.2,1,1.1,2.9,1,3.8c-0.7,1.8-2.1,2.3-3.6,3.3c0.5,0.5,0.7,0.3,0.8,1
		c-0.2,0.8-0.7,1.6-0.8,2.3c-0.3,0.3-0.7,0.5-1.1,0.5c-1.1,0-2.8-1.3-3.1-2c-0.5,0.5-5.9,3.3-6.4,3.4h-0.2c-0.8,0-2-0.7-2.8-0.2
		c-1.1,0.2-1.3,0.3-1.5,0.5C531.8,392.7,531.5,392.7,531,392.7z"/>
	<path class="st1" d="M591.2,390c-2.6-2.1-5.7-4.2-9-6l-3.6-3.3c-2.4-1.1-6.4-6.4-8-9.1c-2.4-4.4-5.1-9-6.7-13.7
		c-1.5-4.7-2.3-9.3-2.3-13.7c0-11.9,5.1-22.2,11.7-30.3c2.3-2.8,11.1-8,14.5-9.3c1-0.3,1.8,0.3,2.6,0c2.4-0.8,4.2-2.9,7-3.8
		c2.1-0.7,5.5-0.2,7.7-1.1c3.4,0.8,6.5,0.8,9.9,1.8c11.7,3.4,22.2,11.4,28.7,20.7c1.3,2,2.4,4.6,3.6,6.2c-0.2,0.2-0.2,0.3-0.2,0.5
		c0,1.1,1.6,3.1,1.5,4.6v0.5c0,1.3,0.5,2.8,0.7,4.2c0.3,5.2-1.1,20.5-2.1,22.3c-0.2,0-0.3,1.8-0.5,1.6c-1.5,7.7-5.1,13-8.2,14.4
		c-0.7,0.2-0.8,0-1.5,0c-0.3,0.3-0.2,0.3-0.7,0.5c0.2,0.3,0.2,0.3,0.2,0.8c-1.1,0.3-1.8,1.5-2.6,1.8h-2.1c-0.3,0.8-4.1,5.7-5.2,5.9
		c-0.3-0.2-3.3,1.3-3.8,1.3l-5.4,2.3c-1.3,0.7-2.1,1.8-3.3,2.4c-1.8,0.3-3.4,0.5-5.2,0.7c-0.8,0.2-2.1,0.3-3.9,0.3
		C600.5,392.4,593.3,391.6,591.2,390z M611.2,366.5c1.1,0,3.1-1.6,4.6-1.6c2.8-1.3,4.1-11.3,4.1-17.4c0-1.5,0-2.8-0.2-3.6
		c-0.7-3.3-0.5-5.7-1.3-8.8c-0.2-0.5-1.5-2.4-1.5-2.4c-2-2.6-3.4-4.6-7.3-6.2c-2.3-1.1-3.9-0.7-5.4-2.1c-0.3,0.3-3.1,2-4.1,1.5
		c-1,1.3-3.6,0.5-4.7,1.8c-1.6,2.6-3.3,4.2-4.2,7.5c-0.5,2.4-0.8,4.9-0.8,7.3c0,6.4,1.8,12.6,5.7,16.8l5.4,4.4
		c2.4,1.6,3.4,3.3,6.7,3.3C608.9,366.8,609.9,366.7,611.2,366.5z"/>
	<path class="st1" d="M733.4,389.7l0.2,0.5c-0.7-0.2-0.8-0.5-1.3-0.8c-0.8,0.8-1.1,0.8-2,1.5c-0.7,0-2.8-1-2.8-1
		c0.3-0.7,0.2-0.5,0-1H727c-0.5,0.5-0.5,0.8-0.7,1.1c-1-0.7-1.1-0.7-2.1-0.3c0-0.7,0-0.7-0.3-1c-0.8,0.3-0.8,0.2-1.1,0.8
		c0.2,0.7,0.2,0.7-0.2,1.1c-2.6,0.2-3.9-1.8-4.7-3.8c-1,0.2-2,1.3-2.9,1.6l-0.2-0.2c-0.2-5.4-0.3-10.3-0.3-15.8
		c0-3.9,0.2-8,0.5-12.6l0.5-5.2c0.3-2.3,0.5-4.9,0.5-7.3c0-4.1-0.3-8-0.3-10.3c0-4.4-3.9-8.5-7.7-8.5c-7.3,0-16.3,8.3-17.4,9.1
		c-0.3,0.5-0.3,2.6-0.3,5.2v7c0,2.4,0,4.6-0.2,6c-0.2,2.6,0.2,5.2,0.7,7.5c0.5,2.4,0.7,4.9,0.7,7.2v4.1c0,1.3,0,2.6,0.2,3.9
		c0.5,3.4,1,6.7,1,9.8h-0.8c-1,0.7-2.6,2.9-3.9,1.5v-0.7c-0.3,0.3-0.7,0.5-1.1,0.5c0.2-0.2,0.2-0.5,0.2-0.7
		c-1.3,0.5-0.8,1.6-1.6,2.3c-0.2-0.2-0.2-0.3-0.2-0.5c-0.3-0.5-0.5-1.1-0.7-1.8c-0.3-0.2-1-0.2-1.3-0.3c-0.2,0.3-0.2,0.3-0.5,0.5
		c-1.6-0.3-3.6-1.1-4.7-0.5c0,0.3,0,0.2-0.2,0.5c-1.1-0.5-1.8-1-3.1-1c-0.8,0.5-1.8,0.8-2.9,1c-1-2.3-4.9-1.5-5.2-3.1
		c-1.3-0.7-1-2.9-1.3-4.4c-0.5-2.8-0.5-6.2-1-9.5v-4.9c-1-5.4-1-12.1-1-18.6c0-6.7,0-13.2-0.8-18.4c-0.2-1-0.2-2-0.2-3.1
		c0-2.1,0.2-4.1,0.2-6c0-1,0-1.8-0.2-2.6c0.2-6,0-12.9,2.6-15.2h0.7c1,0,1.3-0.7,2.6-0.2c0.2-0.7,0.7-1.3,1-2v0.3
		c0.2,0.7,0.3,1.3,0.8,1.8h0.5c0.2-0.7,0.2-1.3,0.2-1.8c0.8,0.3,2-0.2,3.1,0.2c0-0.7-0.2-0.5,0.3-0.8c0.3,0.8,2.3,1.3,3.4,1.3
		c0-0.3,0-0.3,0.3-0.7l0.2,0.2c0.7,0.3,0.3,0.5,1,0.8c0.8-1.6,5.5,1.5,7.3,1.8c0,0.3,0.3,0.5,0.5,0.5c0.5,0,1-0.3,1.3,0.3
		c0.2,0.2,0.2,0.3,0.2,0.7c0,0.7-0.2,1.6-0.2,2.6v1.5c0,0.8,0.2,1.6,0.8,2.3v-0.2c1.8-2,3.6-3.8,6.4-6c2.3-2,7-3.9,10.8-5.5
		c2.1-0.5,3.9-1.1,6-1.3c1.6-0.2,3.4-0.2,5.1-0.2c14.2,0,19.2,7.2,24,17.1c1.8,3.8,1.6,12.1,2.4,16.5c0.5,2.8,0,7,0.7,9.8
		c0.2,0.8,0.2,2,0.2,3.4c0,4.7-0.5,11.6-0.7,12.7c0.2,4.9-1.1,10.1-1,13.5v0.3c0,1.1-0.7,1.8-0.5,2.6c0.2,0.2,0.2,1,0.2,2
		c0,2-0.2,4.7-0.2,5.2c-0.2,0.5,0,0.3-0.5,0.5c0,0,0.5,0.8,0.3,1.1c-0.2,0.5-0.2,1-0.2,1.6c0,1.6,0.5,3.3,0.2,4.7
		c-1.3,0.3-1.1,1-1.1,2C737.4,391.4,736.5,392.1,733.4,389.7z"/>
	<path class="st1" d="M237,583.7c-2.3-0.5-5.2-0.7-8.2-0.7c-5.5,0-11.6,0.5-15.8,0.7c-2.8,0-5.4,0.3-8.2,0.2c-7.3-0.5-15-0.2-22.2-2
		c0.2-1-0.2-1.3,0-1.8l1-1c-0.2-0.2-1.1-0.3-1-0.7c0.7,0,0.7-0.2,1-0.5v-0.2l-0.7-0.5c0.3-0.3,0.7-0.7,1-2.6c-0.3-0.8-0.7-1-0.7-1.8
		c0.7-0.2,2.4-1.3,2.9-1.8c-1,0-1.6,0.5-2.4,0c0-0.2-0.2-0.2-0.2-0.2c0.3-0.5,0.5-0.8,1.1-0.8v-0.5l-0.8-0.8h0.3
		c0.3-0.2,0.7-0.5,1.1-0.7c-0.3-0.7-0.3-1.1-0.2-1.6c0,0,3.9-2,4.1-2.1v-0.7h-0.7c0.2-0.2,0.3-0.3,0.5-0.3c-0.2-0.2-0.3-0.3-0.5-0.3
		c-0.7,0-2-50.1-2.1-54.1c-0.3-7.2-1-16.6-1-23.2c0-4.1,0.2-9.1,2.3-12.1c1,0.2,1,0.2,2,0.5c0.2-0.5,0.2-0.8,0.3-1.1
		c0.8,0.7,1,0.3,2,0.7c0-0.7,0-0.8,0.3-1.1c0.3,0,0.8,0,1.1-0.2c0.3,0.7,1,1,1.5,1c0-0.7,0-0.7,0.3-1.1c1.5,0,1-0.2,2.1-0.5
		c0.3,0.5,0.3,0.7,1,0.8v-0.5c0.2,0,0.5,0.2,0.7,0.3c0.2-1,0.3-0.2,0.7-1.1c2.4,1.1,3.4,2.1,4.4,3.3c1-0.5,1-0.8,1.3-1.6l0.5,0.5
		c0.3,0.7,0.7,1,1.1,1.5l0.3-0.3c-0.2-0.5-0.2-1-0.3-1.3h0.3c0.5,1.5,1.8,2.8,3.1,1.6c1.8,4.7,2.3,9.1,2.3,13.7
		c0,3.8-0.3,7.7-0.3,11.7c0,8.8,1,17.4,1.6,26.1c0.3,4.1,0.5,8,0.5,12.1c0,2.3-0.2,4.9-0.2,7.2c0,3.3,1,10.4,0.8,14.2l0.2,0.2
		c4.4-0.2,10.9-0.7,16.5-0.7c1.6,0,3.1,0,4.4,0.2c2.9,0.2,6.5-0.2,8.8,0.7c2.9,1,5.9,3.1,5.9,5.7c0,0.5,0,1.1-0.3,1.6
		c0.7,0.5,1,1,1,2.1c-2,1.3-2.3,3.1-3.4,4.9c0.2,0.3,0.2,0.8,0.2,1.1c0,1.1-0.3,2.3-1.1,3.4c0.2,0.5,0.2,0.5,0.5,0.8
		c-0.3,1-0.5,1.1-0.5,2.4c-2,0.2-2.8,1.3-4.1,1.6c-0.7,0.2-1.3,0.2-2,0.2C239.8,584.2,238.3,583.9,237,583.7z"/>
	<path class="st1" d="M326,587.1c-1,0.2-2,0.3-2.9,0.3c-0.8-0.3-1.5-1-2.1-1.3c-0.7-0.7-1.5-1-2.3-1.3c-2-3.1-2.6-5.7-3.3-8.2
		c-1.8,1.1-3.6,2.3-4.9,2.9c-6.4,3.1-14,3.4-18.9,4.7c-8,0-13.4-2.3-20.4-5.5c-2-1.6-7.3-5.5-8.8-8c-4.7-7.8-7.8-16.3-7.8-30.7
		c0-9,6.2-22.2,10.1-24.8c1-1.8,2.1-3.6,3.1-5.7c2-2.4,10.6-8.8,18.8-9.6c2.3-0.7,6.7-2.1,9.9-2c1.8,0,8.2,0.7,12.7,2
		c1.8,0.8,4.4,2.4,6.7,3.4l0.2-3.3c1.5-0.2,3.9-0.5,5.1-1.6c0.5,0.3,2.8,0.5,3.6,0.5c0.2-0.5,0.5-0.7,1-1.1c0.7,0.7,0,1.3,0.8,2
		l0.8-0.3c0.2,0.3,0.5,0.5,0.8,0.8c0-0.5-0.3-0.5,0-0.8c0.3,0,0.3-0.3,0.5-0.5c0,0.2,0.2,0.2,0.3,0.5l0.2,0.3h1
		c0-0.2-0.2-0.3-0.2-0.8c0.3,0.5,3.6,3.1,4.2,3.3c0-1.5,0.2-1.6,0.5-2.3l0.2,0.2c0.7,1.8,2,2.1,2.8,3.4c0.5,1.5,1.1,4.9,1.6,6.4
		c0.7,1.8,0.8,3.4,0.8,4.9c0,2-0.3,3.9-0.3,5.9c0,0.7,0,1.3,0.2,1.8c-0.7,7.3-1,13.9-1,19.4c0,13,1.5,21.7,2,23.3
		c1.1,3.8,3.1,10.1,2.9,14.5c-2.1,0.8-3.1,3.6-5.5,4.6h-2.6c-2.1,1-4.4,2.1-7,3.1c-0.3,0-0.7,0.2-1.1,0.2
		C326.5,587.6,326.5,587.3,326,587.1z M304.5,558.6c2.4-1.8,4.4-2.9,6.2-4.6c-0.5-1-0.7-6.4-0.7-11.7c0-4.7,0.2-10.4,0.5-14.5
		c-1-1-3.1-1-4.1-2.1c-2-0.5-3.1-1.6-5.2-2.3c-1.5-0.5-3.3-0.8-5.2-0.8c-1.1,0-2.6,0.2-3.8,0.7c-1.8,1.6-8.6,10.1-8.6,16.5
		c0,7.8,3.4,20.4,13.7,20.4C299.9,560.1,303.4,559.4,304.5,558.6z"/>
	<path class="st1" d="M366.6,619.1c-0.5,0.3-1.6,0.3-1.8,0.5c-1-1-2.9-2.4-2.8-2.9c-0.3-0.5-1-0.8-1.3-1.3c0-0.3-0.2-0.5-0.2-0.8
		c-1,0-1-0.7-1.8-1.3c0.7-0.5,1-0.7,0.7-1.3c-0.5-0.2-1.6,0-2.4-0.7c-0.2-0.5-0.3-1.1-0.2-1.8c-1.5-1-5.5-4.1-5.7-4.7
		c3.8-3.6,8.3-4.9,12.9-12.6c1.5-2.9,5.4-8.6,6.8-11.6c0.7-1.5,1-3.1,1.6-4.6c1.5-1.8,2.8-3.3,3.9-5.7c-0.7-2.4-2.4-4.2-3.6-6.4
		c0-0.5-0.2-1-0.2-1.5c-1.3-1.6-2.8-3.6-3.9-5.2c-0.5-0.8-0.3-2-1-2.6c0-0.2-1-0.5-1.3-0.8s-0.2-0.8-0.5-1.3
		c-0.7-1.3-2.6-2.8-3.3-4.1c-5.9-11.3-12.9-22.2-16-35.9c0.8,0,1.1-0.5,1.6-0.7v-0.8c0-1,0.3-1.3,1.5-1.5c0.2-0.5,0-1,0.2-1.5
		c0.2,0,0.3,0.2,0.5,0l0.2-1.1c-0.2,0-0.2-0.2-0.3-0.3c0.3,0,0.7,0.2,1.1,0.3v-1c0.3,0,0.7,0,1,0.2v-0.7c0.3,0.2,1.5,0.5,2.6,0.7
		v-0.3l-0.2-2.1h1c0.5,0,0.5,0,1.3,0.5c0.5-0.5,1.5-0.5,2-1.1c-0.5-0.2-0.3,0-0.5-0.5c0-0.2,0.2-0.3,0.3-0.3c1-0.2,0.8-0.2,2,0.2
		l1.5-0.7c-0.2-0.3-0.2-0.7-0.2-0.8c-0.2-0.3-0.3-0.5-0.5-0.7c0.7,0.2,0.7,0.3,2.4,0.3c0.5-0.7,0.8-1.5,0.3-2.3v-0.2
		c1.3,0,2.3,0.2,3.3,0c0-0.2,0.2-0.3,0.2-0.5c0.5,0,0.8,0.2,1.3,0.2c1.1,1.8,2.1,3.9,3.3,5.9c1.5,3.6,2.6,7,4.6,10.6
		c2.1,4.2,4.1,9.5,6.2,13.7c2,3.8,4.6,9.6,7.5,12.1c0.5-1.5,1.6-2.8,2.3-3.9c1.6-3.6,2.3-7.2,3.8-10.6c2.3-5.2,5.5-9.8,7.5-15.2
		c1.5-3.6,4.7-6.7,5.4-10.8c2-0.5,1.5-1.1,3.6-0.7l0.5-0.5c0.7,0.2,1.1,0.5,1.8,0.7c0.2-0.2,0.2-0.5,0.3-0.7
		c0.2,0.2,0.3,0.3,0.3,0.5c0.3-0.5,2.4-0.8,2.6-0.7c0.3,0.8,0.7,0.8,0.8,1.8c0.7-0.5,1-1.1,1-1.8h0.7c0,0.3,0.2,0.8,0.2,1.3
		c0.3-0.2,0.7-0.3,0.8-0.5l0.5-1c1.5,0,2.3,0.2,2.9,0.2c0.8,0,1-0.2,1.3-0.3c0.7,1.8,2.1,1.3,2.6,1.8l1.5,1.5h0.2l0.5-2
		c0.5,0,0.3-0.2,1.1-0.2c0.3,0.8,0.7,1.5,1.1,2.3l0.5-0.5c0.2,0.5,0.2,1,0.3,1.3c0.3-0.5,0.2-0.2,0.5-0.3c0.2,1.1,0.3,2.1,0.3,3.3
		c0,3.6-1.1,6.8-2.6,9.9c-0.3,1-0.5,2-0.7,3.1c-1,1.3-2.3,2.8-2.8,4.2c-5.2,13.4-11.1,22-15.8,34.7c-1.8,4.7-4.1,9.9-6.5,13.9
		L389,604.1c-0.8,1.5-1.1,3.8-2,5.4c-2.1,3.6-11.3,13.2-16,14.3C368.9,622.3,367.8,620.9,366.6,619.1z"/>
	<path class="st1" d="M466.4,585.7c-2.6-2.1-5.7-4.2-9-6l-3.6-3.3c-2.4-1.1-6.4-6.4-8-9.1c-2.4-4.4-5.1-9-6.7-13.7
		c-1.5-4.7-2.3-9.3-2.3-13.7c0-11.9,5.1-22.2,11.7-30.3c2.3-2.8,11.1-8,14.5-9.3c1-0.3,1.8,0.3,2.6,0c2.4-0.8,4.2-2.9,7-3.8
		c2.1-0.7,5.5-0.2,7.7-1.1c3.4,0.8,6.5,0.8,9.9,1.8c11.7,3.4,22.2,11.4,28.7,20.7c1.3,2,2.4,4.6,3.6,6.2c-0.2,0.2-0.2,0.3-0.2,0.5
		c0,1.1,1.6,3.1,1.5,4.6v0.5c0,1.3,0.5,2.8,0.7,4.2c0.3,5.2-1.1,20.5-2.1,22.3c-0.2,0-0.3,1.8-0.5,1.6c-1.5,7.7-5.1,13-8.2,14.3
		c-0.7,0.2-0.8,0-1.5,0c-0.3,0.3-0.2,0.3-0.7,0.5c0.2,0.3,0.2,0.3,0.2,0.8c-1.1,0.3-1.8,1.5-2.6,1.8h-2.1c-0.3,0.8-4.1,5.7-5.2,5.9
		c-0.3-0.2-3.3,1.3-3.8,1.3l-5.4,2.3c-1.3,0.7-2.1,1.8-3.3,2.4c-1.8,0.3-3.4,0.5-5.2,0.7c-0.8,0.2-2.1,0.3-3.9,0.3
		C475.7,588.1,468.5,587.3,466.4,585.7z M486.5,562.2c1.1,0,3.1-1.6,4.6-1.6c2.8-1.3,4.1-11.3,4.1-17.4c0-1.5,0-2.8-0.2-3.6
		c-0.7-3.3-0.5-5.7-1.3-8.8c-0.2-0.5-1.5-2.4-1.5-2.4c-2-2.6-3.4-4.6-7.3-6.2c-2.3-1.1-3.9-0.7-5.4-2.1c-0.3,0.3-3.1,2-4.1,1.5
		c-1,1.3-3.6,0.5-4.7,1.8c-1.6,2.6-3.3,4.2-4.2,7.5c-0.5,2.4-0.8,4.9-0.8,7.3c0,6.4,1.8,12.6,5.7,16.8l5.4,4.4
		c2.4,1.6,3.4,3.3,6.7,3.3C484.2,562.5,485.2,562.3,486.5,562.2z"/>
	<path class="st1" d="M599,585.8c-0.5,0.2-1,0.2-1.5,0.3c-0.3-0.3-0.5-0.5-0.7-0.8h-0.5c-1,0-1.8,0.7-2.4,0.2
		c-1-1.1-1.3-4.1-1.3-6.2c0-1,0-1.8,0.2-2.1c-3.8,3.9-9.1,7.2-14.8,8.3h-11.3c-1.6-0.3-3.3-1.1-4.7-1.5c-0.7,0-1.5-0.7-2.3-0.5
		c-1.3-0.5-6.7-2.6-8-3.4c-3.9-3.6-7.2-8-9.5-14.2c-1.6-3.6-5.2-12.9-5.2-24.5c0.2-4.4-0.5-9.6-0.3-14c0-3.4-0.2-6.5-0.2-9.5
		c0-8.2,0.5-14.7,2.8-21.7c2.9,0.3,4.4,0.8,5.1,0.8c0-0.5,0.2-0.7,0.2-1h0.2c0,0.2,0,0.5,0.2,0.7c0.8-0.5,1.1-0.5,2-1.5
		c0.8,0.8,0.5,1.8,1.1,2.6c0.2-0.7,0.3-1.6,0.7-2.4c0,0,0.2,0.2,0.5,0.2l0.5-1c1,0,1.6,0,2.3-0.5c1.3,0.5,2.8,0.8,3.4,1.8
		c0.3,0,0.5-0.3,0.8-0.5l0.7,1.1h0.3c0.7,0,1.6-0.3,2.6-0.3c0-0.7-0.2-0.3,0.2-0.8c0.3,0.2,0.3,0.2,0.3,0.5c0.5,0.5,1.5-0.2,1.8,0.5
		c0.7,1,2-1.1,2.3,0.3l0.3,8c0.3,2.3-0.5,4.1-0.5,6.2c0,0.7,0,1.1,0.2,1.8c0.2,0.2,0,5.1,0,10.3c0,5.2,0.2,10.6,0.3,12.1
		c0,5.9,0.5,9,1.3,12.9c0.2,1.8,1.1,3.1,1.5,4.7c1,2,0.7,4.2,3.4,6.5c1,0.8,2.6,1.1,4.2,1.1c1.5,0,2.9-0.3,3.9-0.5
		c7.2-1,11.6-9.5,12.4-11.6c0.2-0.5,0.3-0.8,0.3-1.1c0-0.8-0.3-1.5-0.3-2.1c0-0.5,0.2-0.8,0.5-1.3h-0.5c0.2-4.1,0-7.8-0.2-11.6
		v-23.3c0.3-2.8,1.3-11.3,3.1-12.4c0.5-0.2,0.2-0.2,0.7,0c0-0.5,0-1,0.3-1.1c0.2,0.8,0.2,0.2,0.5,0.7c1-0.7,1-1,1.6-0.8
		c0.2,0.8,1,2,1.5,1.6c0-0.5,0.5-1.1-0.2-1.6c0,0.3,0,0.8,0.2,1.1c-0.2-0.2-0.2-0.2-0.3-0.2c0-0.5,0-0.7-0.2-1
		c0.5-0.3,1.6-1,1.6-1.5h0.7c0.3,0.5,0.5,0.7,0.8,0.7c0-0.3,0-0.8,0.2-1.5c0.3,0.7,0.8,1.1,1.1,1.6c0.2-0.5,0.2-0.3,0.3-0.7h0.2
		c0.2,0.5,0.5,1,1,1.1c0-0.3,0.2-0.7,0.2-1c0.7,0.8,1.5,2,2.3,2.8h1.1c-0.3-0.5-0.3-1.1-0.5-1.6c0,0,0-0.2,0.2-0.2h0.7
		c0.3,0.3,0.7,1,1,1.3c0-0.2,0-0.3-0.2-0.8c0.8,0.5,0.7,1,1.1,1.6c0.8,0.2,1.5,0.5,2.3,0.5s1.8-0.3,3.1-1.1c2,5.1,2.9,18.1,2.6,25.6
		h-0.5c1.3,2,1,10.3,1.1,13.9c0,1,0.8,29.2,1,29.8c0.3,1,0.8,4.2,0.8,7c0,1.6-0.2,3.3-0.8,3.9c0.2,0.3,0.2,0.8,0.2,1.3
		c0,1.5-0.7,3.3-1,4.6c-1.1,0-0.7,0.3-1.1,0.7l-1.1-0.5c-0.2,0.8-0.5,1-1,1c-1,0-2.3-0.8-3.3-0.8c-0.7,0-2.1,0.8-3.1,1.8
		c-0.7-0.2-1.3-0.5-2.1-0.7c-0.2,1-0.3,1.1-1,1.5L605,585l-0.3,0.5c-1-0.8-1.5-1-2.4-1c-0.3,1.1-1,1.6-1.8,2.1
		C599.8,586.5,599.5,586,599,585.8z"/>
	<path class="st1" d="M672.2,586h-2.6c-5.4-1.3-12.2-1.8-15.8-5.1c-1.5-1.5-2-3.3-3.3-5.2c-0.3-0.3-1.3-0.7-1.6-1.1
		c-2-2.8-5.1-8.3-6.2-11.9c-1.3-3.6-1.3-7.8-2.3-11.1c-0.2-0.7-0.3-2.6-0.3-4.9c0-3.4,0.2-7.7,0.2-10.8c0-1.5,0-2.8-0.2-3.6
		c-0.2-0.7-0.2-1.3-0.2-2c0-3.4,0.8-6.7,0.8-10.9h-0.3c-0.5,0-11.7-0.3-12.6-0.7c-0.8-0.5-2-1.8-2.6-2.4v-0.2l0.7-0.5
		c-0.2-0.3-0.5-0.7-0.7-1.1c0.3-0.3,0.8-0.5,1.3-0.8c-0.2-1,0-1-0.3-2c0.7-0.2,1-1,1.8-1.6c-0.5-1-0.8-1.1-0.5-2
		c0.7-0.3,1.3-2.3,1-2.6l-0.5-2.8c-0.2-0.2-0.2-0.3-0.3-0.7c0.7-0.2,1.1-0.3,1.6-0.7v-0.3c0-0.8,0.5-1.5,0.2-2.4
		c1-1.1,2.3-1.5,4.2-2c1.1-0.2,6.7,0.5,7.7,0.2c0-3.9,0.2-13.4,1.6-16h0.8l0.5-2.1l1,0.5c1.6-0.8,2.9-2.3,3.8-3.8c1,0.2,2,0,2.8,0.2
		l0.5-2.1c0.7,0.2,1.3,0.5,2,0.7c0.7-0.5,0.5-1,1-1.3s1-0.5,1.6-0.5s1.5,0.2,2.1,0.3l2-1.8c0-0.3,0-0.7-0.2-1h1.1
		c0.2,0.2,0.7,0.2,1,0.2c0.7,0,1.5-0.2,1.8-0.5c0.5,0.2,2.3,0.2,2.6,0.3c1,1.3,0.5,2.6,1.5,3.9c1.3,2.9,1.8,5.1,1.8,10.6l-0.2,7.8
		c0,1.1,0,2.4,0.2,3.6h10.6c2.9-0.2,4.2-0.5,5.9-0.5c0.8,0,1.6,0,2.8,0.2c0.5,0,0.8,0.2,1.1,0.2c1.1,0,2-0.3,2.6-0.3
		c1,0,1.8,0.3,3.1,1.5v0.3c0,1.3,1,3.1,0.5,4.2c-0.3,0.3-0.7,0.8-1,1.3c0,0.2-0.2,0.5-0.2,0.8c0,1.1,0.5,2.8,0.5,3.3l-0.3,4.6
		c-0.3,0.5-0.7,1.1-1,1.8c-0.5,0.5-1,0.2-1.5,0.7c-0.3,1-0.7,2-0.8,3.1h-0.7c-1.1,0-1,0.5-1.8,1c-1,0.3-2.3,0.5-3.8,0.5
		c-1,0-2,0-2.9-0.2c-2.9-0.3-10.1,0.3-13,1.1c-0.2,4.7-1,6.8-1,11.1c0,1.5,0,3.1,0.3,4.7c0.3,2.1,0.5,9.6,0.8,11.1
		c0.5,3.6,0.3,9.9,3.4,11.7c1.1,0.7,2.4,1.8,3.3,1.8s2,0.2,2.9,0.2c1.1,0,2.4-0.2,3.4-0.5c3.8-1.3,4.9-0.8,9.6-2.9
		c0.8,1.3,1,2.6,1.1,4.6c-0.8,1.6,2,2.6,2.6,4.7c0,0.3-0.7,0.3-0.8,0.5c-0.3,1.5,1.8,3.8,1.5,5.2c0.5,1.1,0.7,2.3,0.7,3.1
		c0,1.1-0.3,2-0.5,2.1l0.5,2.1c-0.2,0.5-6.8,3.9-6.8,3.9c-3.9,2.1-10.4,3.3-16.3,3.3C674.3,586.1,673.2,586,672.2,586z"/>
</g>
</svg>
