<?xml version="1.0" encoding="utf-8"?>
<!-- Generator: Adobe Illustrator 26.5.0, SVG Export Plug-In . SVG Version: 6.00 Build 0)  -->
<svg version="1.1" id="Слой_1" xmlns="http://www.w3.org/2000/svg" xmlns:xlink="http://www.w3.org/1999/xlink" x="0px" y="0px"
	 viewBox="0 0 850.4 850.4" style="enable-background:new 0 0 850.4 850.4;" xml:space="preserve">
<style type="text/css">
	.st0{fill:#010202;}
	.st1{fill:#F39200;}
</style>
<circle class="st0" cx="425.2" cy="425.2" r="418"/>
<g>
	<path class="st1" d="M66.3,480c-6.2-6.4-9.3-15.3-9.3-26.7v-58.1c0-11.5,3.1-20.4,9.3-26.8c6.2-6.4,15.3-9.5,27.2-9.5
		c12,0,21,3.2,27.2,9.5c6.2,6.3,9.3,15.3,9.3,26.8v58.1c0,11.5-3.1,20.4-9.3,26.8c-6.2,6.4-15.3,9.5-27.2,9.5
		C81.6,489.6,72.5,486.4,66.3,480z M107.6,467.6c3-3.3,4.5-8.1,4.5-14.3v-58.1c0-6.2-1.5-11-4.5-14.3c-3-3.3-7.7-5-14.1-5
		c-6.4,0-11.1,1.7-14.1,5c-3,3.3-4.5,8.1-4.5,14.3v58.1c0,6.2,1.5,11,4.5,14.3c3,3.3,7.7,5,14,5S104.6,470.9,107.6,467.6z"/>
	<path class="st1" d="M149,396.1h18.8V415H149V396.1z M149,469.5h18.8v18.8H149V469.5z"/>
	<path class="st1" d="M196,480c-6.2-6.4-9.3-15.3-9.3-26.7v-58.1c0-11.5,3.1-20.4,9.3-26.8c6.2-6.4,15.3-9.5,27.2-9.5
		c12,0,21,3.2,27.2,9.5c6.2,6.3,9.3,15.3,9.3,26.8v58.1c0,11.5-3.1,20.4-9.3,26.8c-6.2,6.4-15.3,9.5-27.2,9.5
		C211.3,489.6,202.2,486.4,196,480z M237.3,467.6c3-3.3,4.5-8.1,4.5-14.3v-58.1c0-6.2-1.5-11-4.5-14.3c-3-3.3-7.7-5-14.1-5
		c-6.4,0-11.1,1.7-14.1,5c-3,3.3-4.5,8.1-4.5,14.3v58.1c0,6.2,1.5,11,4.5,14.3c3,3.3,7.7,5,14,5S234.2,470.9,237.3,467.6z"/>
	<path class="st1" d="M284.2,472.7l44.6-59.5c2.6-3.4,4.6-6.9,6-10.6c1.4-3.7,2.2-7.1,2.2-10.2v-0.2c0-5.1-1.5-9.1-4.5-11.9
		s-7.2-4.2-12.8-4.2c-5.2,0-9.4,1.5-12.7,4.6c-3.2,3.1-5.2,7.4-5.9,13.1v0.1h-18.6v-0.1c1.1-7.3,3.2-13.6,6.5-18.8
		s7.5-9.1,12.6-11.9c5.2-2.7,11.1-4.1,17.9-4.1c7.6,0,14.1,1.3,19.5,3.9c5.4,2.6,9.5,6.4,12.3,11.4c2.8,5,4.2,11,4.2,18v0.1
		c0,4.5-0.9,9.2-2.8,14.2c-1.9,4.9-4.5,9.7-7.8,14.2l-37,50.3h48.4v17.1h-72.1V472.7z"/>
	<path class="st1" d="M377,396.1h18.8V415H377V396.1z M377,469.5h18.8v18.8H377V469.5z"/>
	<path class="st1" d="M438.5,485.9c-5-2.5-9.1-6.2-12.2-11c-3.1-4.8-5.2-10.6-6.3-17.3v-0.1H438v0.1c0.6,4.7,2.5,8.3,5.6,11
		c3.1,2.6,7.2,3.9,12.1,3.9c5.7,0,10.2-1.9,13.3-5.8c3.1-3.8,4.7-9.2,4.7-16.2v-10.7c0-6.9-1.6-12.3-4.7-16.1
		c-3.1-3.8-7.6-5.8-13.3-5.8c-3.1,0-6.1,0.9-9,2.6c-2.9,1.8-5.4,4.2-7.6,7.4h-16.4v-67.4H488v17.1h-47.2v28.8
		c2.2-1.8,4.7-3.2,7.5-4.2c2.8-1,5.6-1.5,8.4-1.5c7.4,0,13.7,1.5,19,4.6c5.2,3,9.2,7.5,12,13.4c2.7,5.9,4.1,12.9,4.1,21.2v10.7
		c0,8.3-1.4,15.3-4.2,21.2c-2.8,5.9-6.9,10.3-12.3,13.4s-11.9,4.6-19.4,4.6C449.3,489.6,443.5,488.4,438.5,485.9z"/>
	<path class="st1" d="M536.6,485.9c-5-2.5-9.1-6.2-12.2-11c-3.1-4.8-5.2-10.6-6.3-17.3v-0.1H536v0.1c0.6,4.7,2.5,8.3,5.6,11
		c3.1,2.6,7.2,3.9,12.1,3.9c5.7,0,10.2-1.9,13.3-5.8c3.1-3.8,4.7-9.2,4.7-16.2v-10.7c0-6.9-1.6-12.3-4.7-16.1
		c-3.1-3.8-7.6-5.8-13.3-5.8c-3.1,0-6.1,0.9-9,2.6c-2.9,1.8-5.4,4.2-7.6,7.4h-16.4v-67.4h65.2v17.1h-47.2v28.8
		c2.2-1.8,4.7-3.2,7.5-4.2c2.8-1,5.6-1.5,8.4-1.5c7.4,0,13.7,1.5,19,4.6c5.2,3,9.2,7.5,12,13.4c2.7,5.9,4.1,12.9,4.1,21.2v10.7
		c0,8.3-1.4,15.3-4.2,21.2c-2.8,5.9-6.9,10.3-12.3,13.4c-5.4,3.1-11.9,4.6-19.4,4.6C547.4,489.6,541.6,488.4,536.6,485.9z"/>
	<path class="st1" d="M614,396.1h18.8V415H614V396.1z M614,469.5h18.8v18.8H614V469.5z"/>
	<path class="st1" d="M687.9,488.3h-17.9V379.9l-18.2,11.2v-18.6l18.2-12.1h17.9V488.3z"/>
	<path class="st1" d="M735.4,485.9c-5-2.5-9.1-6.2-12.2-11c-3.1-4.8-5.2-10.6-6.3-17.3v-0.1h17.9v0.1c0.6,4.7,2.5,8.3,5.6,11
		c3.1,2.6,7.2,3.9,12.1,3.9c5.7,0,10.2-1.9,13.3-5.8c3.1-3.8,4.7-9.2,4.7-16.2v-10.7c0-6.9-1.6-12.3-4.7-16.1
		c-3.1-3.8-7.6-5.8-13.3-5.8c-3.1,0-6.1,0.9-9,2.6c-2.9,1.8-5.4,4.2-7.6,7.4h-16.4v-67.4h65.2v17.1h-47.2v28.8
		c2.2-1.8,4.7-3.2,7.5-4.2c2.8-1,5.6-1.5,8.4-1.5c7.4,0,13.7,1.5,19,4.6c5.2,3,9.2,7.5,12,13.4c2.7,5.9,4.1,12.9,4.1,21.2v10.7
		c0,8.3-1.4,15.3-4.2,21.2c-2.8,5.9-6.9,10.3-12.3,13.4c-5.4,3.1-11.9,4.6-19.4,4.6C746.2,489.6,740.4,488.4,735.4,485.9z"/>
</g>
</svg>
