<?xml version="1.0" encoding="utf-8"?>
<!-- Generator: Adobe Illustrator 24.1.2, SVG Export Plug-In . SVG Version: 6.00 Build 0)  -->
<svg version="1.1" id="Слой_1" xmlns="http://www.w3.org/2000/svg" xmlns:xlink="http://www.w3.org/1999/xlink" x="0px" y="0px"
	 viewBox="0 0 122.77 53.64" style="enable-background:new 0 0 122.77 53.64;" xml:space="preserve">
<style type="text/css">
	.st0{fill-rule:evenodd;clip-rule:evenodd;fill:#FFFFFF;}
</style>
<path class="st0" d="M85.11,27.74c0.57-0.11,1.12-0.26,1.66-0.44l2.16,2.41c1.05-0.46,2.04-1.03,2.95-1.71l-1.01-3.08
	c0.43-0.38,0.84-0.78,1.21-1.21l3.08,1.01c0.67-0.91,1.25-1.9,1.71-2.95l-2.41-2.16c0.18-0.54,0.33-1.09,0.44-1.66l3.17-0.66
	c0.06-0.56,0.09-1.13,0.09-1.71c0-0.58-0.03-1.15-0.09-1.71l-3.17-0.66c-0.11-0.57-0.26-1.12-0.44-1.66l2.41-2.16
	c-0.46-1.05-1.03-2.04-1.71-2.95l-3.08,1.01c-0.38-0.43-0.78-0.84-1.21-1.21l1.01-3.08c-0.91-0.67-1.9-1.25-2.95-1.71l-2.16,2.41
	c-0.54-0.18-1.09-0.33-1.66-0.44l-0.66-3.17c-0.56-0.06-1.13-0.09-1.71-0.09c-0.58,0-1.14,0.03-1.71,0.09l-0.66,3.17
	c-0.57,0.11-1.12,0.26-1.66,0.44l-2.16-2.41c-1.05,0.46-2.04,1.04-2.95,1.71l1.01,3.08c-0.43,0.38-0.84,0.78-1.21,1.21l-3.08-1.01
	c-0.67,0.91-1.25,1.9-1.71,2.95l2.41,2.16c-0.18,0.54-0.33,1.09-0.44,1.66l-3.17,0.66c-0.06,0.56-0.09,1.13-0.09,1.71
	c0,0.58,0.03,1.15,0.09,1.71l3.17,0.66c0.11,0.57,0.26,1.12,0.44,1.66l-2.41,2.16c0.46,1.05,1.03,2.04,1.71,2.95l3.08-1.01
	c0.38,0.43,0.78,0.84,1.21,1.21L73.61,28c0.91,0.67,1.9,1.25,2.95,1.71l2.16-2.41c0.54,0.18,1.09,0.33,1.66,0.44l0.66,3.17
	C81.6,30.97,82.17,31,82.75,31c0.58,0,1.15-0.03,1.71-0.09L85.11,27.74L85.11,27.74z M-0.27,32.69h29.26v10.62
	c1.65,0.01,3.25,0.07,4.83-0.03c0.23,1.73,1.47,3.15,3.34,3.15c1.06,0,2.32-0.5,2.32-1.74c0-1.51-1.74-1.91-2.86-2.15
	c-2.86-0.64-6.56-1.79-6.56-5.3c0-3.92,3.99-4.94,7.17-4.94c3.64,0,6.75,1.05,7.24,5.03c-1.64,0.1-3.28,0.19-4.92,0.29
	c-0.25-1.48-1.34-2.17-2.84-2.17c-0.84,0-1.83,0.33-1.83,1.32c0,0.94,1.45,1.2,2.13,1.34c3.31,0.71,7.53,1.64,7.53,5.86
	c0,4.25-3.86,5.78-7.47,5.78c-3.74,0-7.12-1.44-8.09-5.03v4.78H-0.27V32.69L-0.27,32.69z M110.74,32.63h11.76v16.88h-11.76V36.42
	l-2.88,13.09h-5.11l-2.96-10.62l-2.95,10.62h-5.11l-3.75-16.88h4.95l1.78,9.43l2.6-9.43h4.94l2.61,9.43l1.78-9.43H110.74
	L110.74,32.63L110.74,32.63z M45.56,32.59h5.21v5.91h5.7v-5.91h5.24v16.88h-5.24v-6.83h-5.7v6.83h-5.21V32.59L45.56,32.59z
	 M100.53,3.5h10.97c2.16,0,3.9,0.29,5.24,0.88c1.33,0.59,2.43,1.43,3.3,2.52c0.87,1.1,1.5,2.37,1.89,3.83
	c0.39,1.46,0.58,3,0.58,4.63c0,2.55-0.29,4.53-0.87,5.94c-0.58,1.41-1.39,2.59-2.42,3.53c-1.03,0.95-2.14,1.58-3.32,1.9
	c-1.62,0.43-3.09,0.65-4.4,0.65h-10.97V3.5L100.53,3.5z M107.91,8.91v13.05h1.81c1.55,0,2.64-0.17,3.29-0.51
	c0.65-0.34,1.16-0.94,1.53-1.79c0.37-0.85,0.55-2.24,0.55-4.15c0-2.53-0.41-4.26-1.23-5.19c-0.83-0.93-2.2-1.4-4.11-1.4H107.91
	L107.91,8.91z M42.72,3.5h7.72l5.38,17.19L61.11,3.5h7.5l-8.86,23.88h-8L42.72,3.5L42.72,3.5z M39.07,23.44l1.17,3.94h7.72
	L38.99,3.5h-8.05l-8.55,22.76v-4.01H8.51L21.9,8.27V3.5H-0.24v5.1h13.21L-0.27,22.42v4.95h22.24h0.42h7.12l1.16-3.94H39.07
	L39.07,23.44z M37.53,18.27h-5.27l2.62-8.59L37.53,18.27L37.53,18.27z M75.08,51.45l-1.19,2.36c-0.45-0.07-0.91-0.16-1.36-0.29
	c-0.45-0.12-0.9-0.27-1.32-0.43l0.15-2.64c-0.42-0.21-0.83-0.44-1.21-0.7l-2.21,1.45c-0.73-0.58-1.39-1.25-1.96-1.97l1.45-2.21
	c-0.26-0.39-0.49-0.79-0.7-1.21l-2.64,0.15c-0.34-0.86-0.58-1.76-0.72-2.69l2.36-1.19c-0.03-0.46-0.03-0.93,0-1.4l-2.36-1.19
	c0.07-0.45,0.16-0.91,0.29-1.36c0.12-0.45,0.27-0.9,0.43-1.32l2.64,0.15c0.21-0.42,0.44-0.83,0.7-1.21l-1.45-2.21
	c0.58-0.73,1.25-1.39,1.97-1.97l2.21,1.45c0.39-0.26,0.79-0.49,1.21-0.7l-0.15-2.64c0.86-0.34,1.76-0.58,2.69-0.72l1.19,2.36
	c0.46-0.03,0.93-0.03,1.4,0l1.19-2.36c0.45,0.07,0.91,0.16,1.36,0.29c0.45,0.12,0.9,0.27,1.32,0.43l-0.15,2.64
	c0.42,0.21,0.83,0.44,1.21,0.7l2.21-1.45c0.73,0.58,1.39,1.25,1.96,1.97l-1.45,2.21c0.26,0.39,0.49,0.79,0.7,1.21l2.64-0.15
	c0.34,0.86,0.58,1.76,0.72,2.69l-2.36,1.19c0.03,0.46,0.03,0.93,0,1.4l2.36,1.19c-0.07,0.45-0.16,0.91-0.29,1.36
	c-0.12,0.45-0.27,0.89-0.43,1.32l-2.64-0.15c-0.21,0.42-0.44,0.83-0.7,1.21l1.45,2.21c-0.58,0.73-1.25,1.39-1.97,1.96l-2.21-1.45
	c-0.39,0.26-0.79,0.49-1.21,0.7l0.15,2.64c-0.86,0.34-1.76,0.58-2.69,0.72l-1.19-2.36C76.02,51.49,75.55,51.49,75.08,51.45
	L75.08,51.45z M73.44,50.12c4.83,1.29,9.79-1.57,11.09-6.4c1.29-4.83-1.57-9.79-6.4-11.09c-4.83-1.29-9.79,1.57-11.09,6.4
	C65.74,43.87,68.61,48.83,73.44,50.12L73.44,50.12z M73.54,49.74c4.62,1.24,9.37-1.5,10.6-6.12c1.24-4.62-1.5-9.37-6.12-10.6
	c-4.62-1.24-9.37,1.5-10.6,6.12C66.18,43.76,68.92,48.51,73.54,49.74L73.54,49.74z M73.77,48.87c4.14,1.11,8.39-1.35,9.5-5.49
	c1.11-4.14-1.35-8.39-5.49-9.5c-4.14-1.11-8.39,1.35-9.5,5.49C67.18,43.51,69.63,47.77,73.77,48.87L73.77,48.87z M75.16,43.71
	c1.29,0.34,2.61-0.42,2.95-1.71c0.34-1.29-0.42-2.61-1.71-2.95c-1.29-0.34-2.61,0.42-2.95,1.71C73.11,42.04,73.87,43.37,75.16,43.71
	L75.16,43.71z M75.56,42.19c0.45,0.12,0.91-0.15,1.02-0.59c0.12-0.45-0.14-0.9-0.59-1.02c-0.45-0.12-0.9,0.15-1.02,0.59
	C74.85,41.61,75.12,42.07,75.56,42.19L75.56,42.19z M82.75,26.68c-6.13,0-11.1-4.97-11.1-11.1c0-6.13,4.97-11.1,11.1-11.1
	c6.13,0,11.1,4.97,11.1,11.1C93.84,21.72,88.88,26.68,82.75,26.68L82.75,26.68z M82.75,26.2c-5.86,0-10.62-4.75-10.62-10.62
	c0-5.86,4.75-10.62,10.62-10.62c5.86,0,10.62,4.75,10.62,10.62C93.36,21.45,88.61,26.2,82.75,26.2L82.75,26.2z M82.75,25.1
	c-5.25,0-9.51-4.26-9.51-9.51c0-5.25,4.26-9.51,9.51-9.51c5.25,0,9.51,4.26,9.51,9.51C92.26,20.84,88,25.1,82.75,25.1L82.75,25.1z
	 M82.75,18.54c-1.63,0-2.96-1.32-2.96-2.96c0-1.63,1.32-2.96,2.96-2.96c1.63,0,2.96,1.32,2.96,2.96
	C85.7,17.22,84.38,18.54,82.75,18.54L82.75,18.54z M82.75,16.61c-0.57,0-1.03-0.46-1.03-1.03c0-0.57,0.46-1.03,1.03-1.03
	c0.57,0,1.03,0.46,1.03,1.03C83.77,16.15,83.31,16.61,82.75,16.61z"/>
</svg>
