<?xml version="1.0" encoding="utf-8"?>
<!-- Generator: Adobe Illustrator 26.5.0, SVG Export Plug-In . SVG Version: 6.00 Build 0)  -->
<svg version="1.1" xmlns="http://www.w3.org/2000/svg" xmlns:xlink="http://www.w3.org/1999/xlink" x="0px" y="0px"
	 viewBox="0 0 841.9 297.6" style="enable-background:new 0 0 841.9 297.6;" xml:space="preserve">
<style type="text/css">
	.st0{display:none;}
	.st1{display:inline;}
	.st2{fill:#FFFFFF;stroke:#FFFFFF;stroke-width:8;stroke-miterlimit:10;}
	.st3{fill:#FFFFFF;}
	.st4{fill:none;stroke:#FFD325;stroke-width:8;stroke-linecap:round;stroke-miterlimit:10;}
	.st5{fill:#FFFFFF;stroke:#FFFFFF;stroke-miterlimit:10;}
	.st6{fill:none;stroke:#F9B233;stroke-width:8;stroke-miterlimit:10;}
	.st7{fill:#E5348B;}
</style>
<g id="Слой_3" class="st0">
	<rect x="-89.8" y="-20.5" class="st1" width="896.4" height="364.6"/>
</g>
<g id="Слой_1">
	<g>
		<line class="st2" x1="30" y1="18.5" x2="30" y2="283.9"/>
		<polyline class="st2" points="312.3,149.6 151.4,149.6 30.8,149.6 		"/>
		<polygon class="st3" points="309.6,159.6 320.7,150.3 309.6,139.5 		"/>
		<polygon class="st3" points="37.4,21.7 30.2,7.5 21.8,21.7 		"/>
	</g>
	<path class="st4" d="M34,149.8c58.1-251.7,115.5,0,115.5,0"/>
	<path class="st4" d="M149.5,148.8c58.1,260.5,115.5,0,115.5,0"/>
</g>
<g id="Слой_2">
	<g>
		<line class="st2" x1="388.2" y1="19" x2="388.2" y2="284.2"/>
		<polyline class="st2" points="670.4,150 509.6,150 389,150 		"/>
		<polygon class="st5" points="667.7,160 678.8,150.7 667.7,139.9 		"/>
		<polygon class="st5" points="395.6,22.2 388.4,7.9 380,22.2 		"/>
	</g>
	<line class="st4" x1="388.2" y1="74" x2="504.1" y2="74"/>
	<path class="st6" d="M504.1,89"/>
	<path class="st6" d="M504.1,34.1"/>
	<line class="st4" x1="504.1" y1="228.4" x2="504.1" y2="74"/>
	<line class="st4" x1="504.8" y1="228.6" x2="622" y2="228.6"/>
	<line class="st4" x1="622.5" y1="228.4" x2="622.5" y2="74"/>
	<g>
		<path class="st3" d="M305.6,164.5h3.1c0.5,0,0.9,0,1.2,0.1s0.6,0.2,0.8,0.4c0.2,0.1,0.4,0.3,0.5,0.5s0.2,0.4,0.2,0.6
			c0,0.2,0.1,0.4,0.1,0.6c0,0.9-0.4,1.5-1.2,1.8c0.5,0.1,0.9,0.3,1.2,0.7c0.3,0.4,0.4,0.8,0.4,1.3c0,1.6-1,2.4-3,2.4h-3.3V164.5z
			 M306.9,165.7v2.3h2c1,0,1.5-0.4,1.5-1.1c0-0.8-0.5-1.1-1.5-1.1H306.9z M306.9,169.1v2.6h2.3c1,0,1.5-0.4,1.5-1.3
			c0-0.4-0.1-0.7-0.4-0.9s-0.6-0.4-1.1-0.4H306.9z"/>
		<path class="st3" d="M316.8,166.8c0.8,0,1.6,0.3,2.1,0.9s0.8,1.3,0.8,2.2c0,0.9-0.3,1.6-0.8,2.2c-0.6,0.6-1.3,0.9-2.1,0.9
			c-0.4,0-0.8-0.1-1.1-0.3c-0.3-0.2-0.6-0.4-0.8-0.7v3.1h-1.2v-8.2h0.8l0.1,1.1c0.2-0.4,0.5-0.6,0.9-0.9S316.4,166.8,316.8,166.8z
			 M318.1,168.5c-0.4-0.4-0.8-0.5-1.3-0.5c-0.5,0-1,0.2-1.3,0.5c-0.4,0.4-0.6,0.8-0.6,1.4s0.2,1,0.6,1.4c0.4,0.4,0.8,0.5,1.3,0.5
			c0.5,0,1-0.2,1.3-0.5c0.4-0.4,0.6-0.8,0.6-1.4C318.6,169.4,318.4,168.9,318.1,168.5z"/>
		<path class="st3" d="M324.3,166.8c0.6,0,1.2,0.1,1.6,0.4s0.8,0.7,1,1.2c0.1,0.2,0.2,0.5,0.2,0.9c0,0.3,0,0.6-0.1,0.8h-4.6
			c0,0.5,0.2,0.9,0.5,1.2c0.3,0.3,0.8,0.5,1.4,0.5c0.7,0,1.3-0.2,1.9-0.5l0.6,0.7c-0.8,0.6-1.7,0.9-2.6,0.9c-0.9,0-1.7-0.3-2.2-0.9
			c-0.6-0.6-0.9-1.3-0.9-2.2c0-0.9,0.3-1.6,0.8-2.2C322.6,167.1,323.3,166.8,324.3,166.8z M324.3,167.9c-0.5,0-0.9,0.2-1.2,0.5
			s-0.5,0.7-0.5,1.1h3.4c0-0.2,0-0.4-0.1-0.6c-0.1-0.3-0.3-0.5-0.6-0.7C324.9,168,324.6,167.9,324.3,167.9z"/>
		<path class="st3" d="M335.3,172.9h-1.2v-4l-1.9,2.2l-1.9-2.2v4H329v-6h0.8l2.4,2.7l2.4-2.7h0.8V172.9z"/>
		<path class="st3" d="M342.4,172.9h-1.2v-1.8h-1c-0.3,0-0.5,0.1-0.7,0.2s-0.4,0.4-0.6,0.8l-0.6,0.9h-1.3l0.7-1.1
			c0,0,0.1-0.1,0.1-0.2c0.1-0.1,0.1-0.2,0.2-0.2c0,0,0.1-0.1,0.1-0.2c0.1-0.1,0.1-0.1,0.2-0.2c0.1,0,0.1-0.1,0.2-0.1
			c-0.4-0.1-0.8-0.4-1-0.7c-0.3-0.3-0.4-0.7-0.4-1.1c0-0.6,0.2-1.1,0.6-1.5s1.1-0.6,1.9-0.6h2.8V172.9z M341.2,168.1h-1.8
			c-0.4,0-0.7,0.1-0.9,0.3c-0.2,0.2-0.3,0.4-0.3,0.7c0,0.3,0.1,0.5,0.3,0.7c0.2,0.2,0.5,0.3,0.9,0.3h1.8V168.1z"/>
	</g>
	<g>
		<path class="st3" d="M671.7,164.5h3.1c0.5,0,0.9,0,1.2,0.1c0.4,0.1,0.6,0.2,0.8,0.4c0.2,0.1,0.4,0.3,0.5,0.5s0.2,0.4,0.2,0.6
			c0,0.2,0.1,0.4,0.1,0.6c0,0.9-0.4,1.5-1.2,1.8c0.5,0.1,0.9,0.3,1.2,0.7c0.3,0.4,0.4,0.8,0.4,1.3c0,1.6-1,2.4-3,2.4h-3.3V164.5z
			 M673,165.7v2.3h2c1,0,1.5-0.4,1.5-1.1c0-0.8-0.5-1.1-1.5-1.1H673z M673,169.1v2.6h2.3c1,0,1.5-0.4,1.5-1.3c0-0.4-0.1-0.7-0.4-0.9
			s-0.6-0.4-1.1-0.4H673z"/>
		<path class="st3" d="M682.9,166.8c0.8,0,1.6,0.3,2.1,0.9c0.6,0.6,0.8,1.3,0.8,2.2c0,0.9-0.3,1.6-0.8,2.2c-0.6,0.6-1.3,0.9-2.1,0.9
			c-0.4,0-0.8-0.1-1.1-0.3c-0.3-0.2-0.6-0.4-0.8-0.7v3.1h-1.2v-8.2h0.8l0.1,1.1c0.2-0.4,0.5-0.6,0.9-0.9
			C682,166.9,682.4,166.8,682.9,166.8z M684.1,168.5c-0.4-0.4-0.8-0.5-1.3-0.5s-1,0.2-1.3,0.5c-0.4,0.4-0.6,0.8-0.6,1.4
			s0.2,1,0.6,1.4c0.4,0.4,0.8,0.5,1.3,0.5s1-0.2,1.3-0.5s0.6-0.8,0.6-1.4C684.7,169.4,684.5,168.9,684.1,168.5z"/>
		<path class="st3" d="M690.3,166.8c0.6,0,1.2,0.1,1.6,0.4s0.8,0.7,1,1.2c0.1,0.2,0.2,0.5,0.2,0.9c0,0.3,0,0.6-0.1,0.8h-4.6
			c0,0.5,0.2,0.9,0.5,1.2s0.8,0.5,1.3,0.5c0.7,0,1.3-0.2,1.9-0.5l0.6,0.7c-0.8,0.6-1.7,0.9-2.6,0.9c-0.9,0-1.7-0.3-2.2-0.9
			c-0.6-0.6-0.9-1.3-0.9-2.2c0-0.9,0.3-1.6,0.8-2.2C688.7,167.1,689.4,166.8,690.3,166.8z M690.3,167.9c-0.5,0-0.9,0.2-1.2,0.5
			s-0.5,0.7-0.5,1.1h3.4c0-0.2,0-0.4-0.1-0.6c-0.1-0.3-0.3-0.5-0.6-0.7C691,168,690.7,167.9,690.3,167.9z"/>
		<path class="st3" d="M701.3,172.9h-1.2v-4l-1.9,2.2l-1.9-2.2v4H695v-6h0.8l2.4,2.7l2.4-2.7h0.8V172.9z"/>
		<path class="st3" d="M708.4,172.9h-1.2v-1.8h-1c-0.3,0-0.5,0.1-0.7,0.2s-0.4,0.4-0.6,0.8l-0.6,0.9H703l0.7-1.1
			c0,0,0.1-0.1,0.2-0.2c0.1-0.1,0.1-0.2,0.2-0.2c0,0,0.1-0.1,0.1-0.2c0.1-0.1,0.1-0.1,0.2-0.2s0.1-0.1,0.2-0.1
			c-0.4-0.1-0.8-0.4-1-0.7c-0.3-0.3-0.4-0.7-0.4-1.1c0-0.6,0.2-1.1,0.6-1.5s1.1-0.6,1.9-0.6h2.8V172.9z M707.2,168.1h-1.8
			c-0.4,0-0.7,0.1-0.9,0.3c-0.2,0.2-0.3,0.4-0.3,0.7c0,0.3,0.1,0.5,0.3,0.7c0.2,0.2,0.5,0.3,0.9,0.3h1.8V168.1z"/>
	</g>
	<g>
		<path class="st3" d="M44.4,2.4h1.1c1,0,1.5-0.4,1.5-1.1c0-0.4-0.1-0.7-0.4-0.9c-0.2-0.2-0.6-0.3-1.1-0.3h-0.1
			c-0.4,0-0.8,0.1-1.2,0.3C43.7,0.5,43.3,0.7,43,1l-0.8-0.8c0.4-0.4,0.9-0.8,1.4-1s1.1-0.4,1.7-0.4h0.1c0.5,0,1,0.1,1.3,0.2
			c0.4,0.1,0.7,0.3,0.9,0.6C47.8-0.1,48,0.1,48,0.3c0.1,0.2,0.1,0.5,0.1,0.7c0,0.5-0.1,0.9-0.3,1.2c-0.2,0.3-0.5,0.6-0.9,0.7
			c0.5,0.1,0.8,0.3,1.1,0.7s0.4,0.8,0.4,1.3c0,0.7-0.3,1.3-0.8,1.7c-0.5,0.4-1.3,0.7-2.3,0.7h-0.1c-0.7,0-1.3-0.1-1.9-0.4
			c-0.6-0.3-1.1-0.7-1.4-1.2L42.8,5c0.3,0.4,0.6,0.7,1.1,0.9c0.5,0.2,0.9,0.3,1.4,0.3h0.1c0.6,0,1-0.1,1.3-0.3
			c0.3-0.2,0.5-0.5,0.5-1c0-0.4-0.1-0.7-0.4-0.9c-0.3-0.2-0.6-0.3-1.1-0.3h-1.3V2.4z"/>
		<path class="st3" d="M55.7,7.3h-1.2V4.9h-3.2v2.5h-1.2v-6h1.2v2.4h3.2V1.3h1.2V7.3z"/>
		<path class="st3" d="M63.6,7.3h-0.8l-0.1-1.1c-0.2,0.4-0.5,0.6-0.9,0.9c-0.4,0.2-0.8,0.3-1.3,0.3c-0.8,0-1.6-0.3-2.1-0.9
			c-0.6-0.6-0.8-1.3-0.8-2.2c0-0.9,0.3-1.6,0.8-2.2c0.6-0.6,1.3-0.9,2.1-0.9c0.5,0,0.9,0.1,1.3,0.3c0.4,0.2,0.7,0.5,0.9,0.9l0.1-1.1
			h0.8V7.3z M59.3,5.7c0.4,0.4,0.8,0.5,1.3,0.5c0.5,0,1-0.2,1.3-0.5s0.6-0.8,0.6-1.4c0-0.6-0.2-1-0.6-1.4s-0.8-0.5-1.3-0.5
			c-0.5,0-1,0.2-1.3,0.5c-0.4,0.4-0.6,0.8-0.6,1.4C58.7,4.9,58.9,5.4,59.3,5.7z"/>
		<path class="st3" d="M71.4,7.3h-1.2V5.2c-0.4,0.5-1,0.8-1.8,0.8c-1.8,0-2.7-1-2.7-3V1.3h1.2v1.6c0,0.7,0.1,1.1,0.4,1.5
			c0.3,0.3,0.7,0.5,1.3,0.5c1.1,0,1.6-0.6,1.6-1.8V1.3h1.2V7.3z"/>
		<path class="st3" d="M76.2,1.3c0.6,0,1.2,0.1,1.6,0.4s0.8,0.7,1,1.2C78.9,3.2,79,3.5,79,3.8c0,0.3,0,0.6-0.1,0.8h-4.6
			c0,0.5,0.2,0.9,0.5,1.2c0.3,0.3,0.8,0.5,1.4,0.5c0.7,0,1.3-0.2,1.9-0.5l0.6,0.7c-0.8,0.6-1.7,0.9-2.6,0.9c-0.9,0-1.7-0.3-2.2-0.9
			c-0.6-0.6-0.9-1.3-0.9-2.2c0-0.9,0.3-1.6,0.8-2.2C74.5,1.5,75.3,1.3,76.2,1.3z M76.2,2.3c-0.5,0-0.9,0.2-1.2,0.5s-0.5,0.7-0.5,1.1
			h3.4c0-0.2,0-0.4-0.1-0.6c-0.1-0.3-0.3-0.5-0.6-0.7C76.9,2.4,76.5,2.3,76.2,2.3z"/>
		<path class="st3" d="M86.4,7.3h-1.2V4.9h-3.2v2.5h-1.2v-6h1.2v2.4h3.2V1.3h1.2V7.3z"/>
		<path class="st3" d="M94.1,7.3h-1.2v-4l-3.5,4h-0.8v-6h1.2v4l3.5-4h0.8V7.3z"/>
		<path class="st3" d="M98.9,1.3c0.6,0,1.2,0.1,1.6,0.4s0.8,0.7,1,1.2c0.1,0.2,0.2,0.5,0.2,0.9c0,0.3,0,0.6-0.1,0.8h-4.6
			c0,0.5,0.2,0.9,0.5,1.2c0.3,0.3,0.8,0.5,1.4,0.5c0.7,0,1.3-0.2,1.9-0.5l0.6,0.7c-0.8,0.6-1.7,0.9-2.6,0.9c-0.9,0-1.7-0.3-2.2-0.9
			c-0.6-0.6-0.9-1.3-0.9-2.2c0-0.9,0.3-1.6,0.8-2.2C97.2,1.5,98,1.3,98.9,1.3z M98.9,2.3c-0.5,0-0.9,0.2-1.2,0.5s-0.5,0.7-0.5,1.1
			h3.4c0-0.2,0-0.4-0.1-0.6c-0.1-0.3-0.3-0.5-0.6-0.7C99.6,2.4,99.2,2.3,98.9,2.3z"/>
		<path class="st3" d="M113.1,7.3h-1.2V2.5h-3.2v4.8h-1.2v-6h5.6V7.3z"/>
		<path class="st3" d="M120.9,7.3h-0.8L120,6.2c-0.2,0.4-0.5,0.6-0.9,0.9c-0.4,0.2-0.8,0.3-1.3,0.3c-0.8,0-1.6-0.3-2.1-0.9
			c-0.6-0.6-0.8-1.3-0.8-2.2c0-0.9,0.3-1.6,0.8-2.2c0.6-0.6,1.3-0.9,2.1-0.9c0.5,0,0.9,0.1,1.3,0.3c0.4,0.2,0.7,0.5,0.9,0.9l0.1-1.1
			h0.8V7.3z M116.6,5.7c0.4,0.4,0.8,0.5,1.3,0.5c0.5,0,1-0.2,1.3-0.5s0.6-0.8,0.6-1.4c0-0.6-0.2-1-0.6-1.4s-0.8-0.5-1.3-0.5
			c-0.5,0-1,0.2-1.3,0.5c-0.4,0.4-0.6,0.8-0.6,1.4C116.1,4.9,116.2,5.4,116.6,5.7z"/>
		<path class="st3" d="M126.2,1.3c0.8,0,1.6,0.3,2.1,0.9s0.8,1.3,0.8,2.2c0,0.9-0.3,1.6-0.8,2.2c-0.6,0.6-1.3,0.9-2.1,0.9
			c-0.4,0-0.8-0.1-1.1-0.3c-0.3-0.2-0.6-0.4-0.8-0.7v3.1h-1.2V1.3h0.8l0.1,1.1c0.2-0.4,0.5-0.6,0.9-0.9S125.7,1.3,126.2,1.3z
			 M127.4,3c-0.4-0.4-0.8-0.5-1.3-0.5c-0.5,0-1,0.2-1.3,0.5c-0.4,0.4-0.6,0.8-0.6,1.4s0.2,1,0.6,1.4c0.4,0.4,0.8,0.5,1.3,0.5
			c0.5,0,1-0.2,1.3-0.5c0.4-0.4,0.6-0.8,0.6-1.4C128,3.8,127.8,3.3,127.4,3z"/>
		<path class="st3" d="M136.6,7.3h-0.8l-0.1-1.1c-0.2,0.4-0.5,0.6-0.9,0.9c-0.4,0.2-0.8,0.3-1.3,0.3c-0.8,0-1.6-0.3-2.1-0.9
			c-0.6-0.6-0.8-1.3-0.8-2.2c0-0.9,0.3-1.6,0.8-2.2c0.6-0.6,1.3-0.9,2.1-0.9c0.5,0,0.9,0.1,1.3,0.3c0.4,0.2,0.7,0.5,0.9,0.9l0.1-1.1
			h0.8V7.3z M132.3,5.7c0.4,0.4,0.8,0.5,1.3,0.5c0.5,0,1-0.2,1.3-0.5s0.6-0.8,0.6-1.4c0-0.6-0.2-1-0.6-1.4s-0.8-0.5-1.3-0.5
			c-0.5,0-1,0.2-1.3,0.5c-0.4,0.4-0.6,0.8-0.6,1.4C131.8,4.9,132,5.4,132.3,5.7z"/>
		<path class="st3" d="M145.1,7.3h-1.2v-4l-1.9,2.2L140,3.3v4h-1.2v-6h0.8l2.4,2.7l2.4-2.7h0.8V7.3z"/>
		<path class="st3" d="M149.9,1.3c0.6,0,1.2,0.1,1.6,0.4s0.8,0.7,1,1.2c0.1,0.2,0.2,0.5,0.2,0.9c0,0.3,0,0.6-0.1,0.8h-4.6
			c0,0.5,0.2,0.9,0.5,1.2c0.3,0.3,0.8,0.5,1.4,0.5c0.7,0,1.3-0.2,1.9-0.5l0.6,0.7c-0.8,0.6-1.7,0.9-2.6,0.9c-0.9,0-1.7-0.3-2.2-0.9
			c-0.6-0.6-0.9-1.3-0.9-2.2c0-0.9,0.3-1.6,0.8-2.2C148.2,1.5,149,1.3,149.9,1.3z M149.9,2.3c-0.5,0-0.9,0.2-1.2,0.5
			s-0.5,0.7-0.5,1.1h3.4c0-0.2,0-0.4-0.1-0.6c-0.1-0.3-0.3-0.5-0.6-0.7C150.6,2.4,150.3,2.3,149.9,2.3z"/>
		<path class="st3" d="M157.1,2.5v4.8h-1.2V2.5h-2V1.3h5.3v1.2H157.1z"/>
		<path class="st3" d="M163.7,1.3c0.8,0,1.6,0.3,2.1,0.9c0.6,0.6,0.8,1.3,0.8,2.2c0,0.9-0.3,1.6-0.8,2.2c-0.6,0.6-1.3,0.9-2.1,0.9
			c-0.4,0-0.8-0.1-1.1-0.3c-0.3-0.2-0.6-0.4-0.8-0.7v3.1h-1.2V1.3h0.8l0.1,1.1c0.2-0.4,0.5-0.6,0.9-0.9
			C162.9,1.4,163.3,1.3,163.7,1.3z M165,3c-0.4-0.4-0.8-0.5-1.3-0.5s-1,0.2-1.3,0.5s-0.6,0.8-0.6,1.4s0.2,1,0.6,1.4s0.8,0.5,1.3,0.5
			s1-0.2,1.3-0.5c0.4-0.4,0.6-0.8,0.6-1.4C165.5,3.8,165.3,3.3,165,3z"/>
		<path class="st3" d="M174.2,7.3h-0.8l-0.1-1.1c-0.2,0.4-0.5,0.6-0.9,0.9c-0.4,0.2-0.8,0.3-1.3,0.3c-0.8,0-1.6-0.3-2.1-0.9
			c-0.6-0.6-0.8-1.3-0.8-2.2c0-0.9,0.3-1.6,0.8-2.2c0.6-0.6,1.3-0.9,2.1-0.9c0.5,0,0.9,0.1,1.3,0.3c0.4,0.2,0.7,0.5,0.9,0.9l0.1-1.1
			h0.8V7.3z M169.9,5.7c0.4,0.4,0.8,0.5,1.3,0.5c0.5,0,1-0.2,1.3-0.5c0.4-0.4,0.6-0.8,0.6-1.4c0-0.6-0.2-1-0.6-1.4
			c-0.4-0.4-0.8-0.5-1.3-0.5c-0.5,0-1,0.2-1.3,0.5s-0.6,0.8-0.6,1.4C169.3,4.9,169.5,5.4,169.9,5.7z"/>
	</g>
	<g>
		<path class="st3" d="M403.4,4.6h1.1c1,0,1.5-0.4,1.5-1.1c0-0.4-0.1-0.7-0.4-0.9c-0.2-0.2-0.6-0.3-1.1-0.3h-0.1
			c-0.4,0-0.8,0.1-1.2,0.3c-0.4,0.2-0.8,0.4-1.1,0.7l-0.8-0.8c0.4-0.4,0.9-0.8,1.4-1s1.1-0.4,1.7-0.4h0.1c0.5,0,1,0.1,1.3,0.2
			c0.4,0.1,0.7,0.3,0.9,0.6c0.2,0.2,0.3,0.5,0.4,0.7c0.1,0.2,0.1,0.5,0.1,0.7c0,0.5-0.1,0.9-0.3,1.2c-0.2,0.3-0.5,0.6-0.9,0.7
			c0.5,0.1,0.8,0.3,1.1,0.7s0.4,0.8,0.4,1.3c0,0.7-0.3,1.3-0.8,1.7c-0.5,0.4-1.3,0.7-2.3,0.7h-0.1c-0.7,0-1.3-0.1-1.9-0.4
			c-0.6-0.3-1.1-0.7-1.4-1.2l0.8-0.8c0.3,0.4,0.6,0.7,1.1,0.9c0.5,0.2,0.9,0.3,1.4,0.3h0.1c0.6,0,1-0.1,1.3-0.3
			c0.3-0.2,0.5-0.5,0.5-1c0-0.4-0.1-0.7-0.4-0.9c-0.3-0.2-0.6-0.3-1.1-0.3h-1.3V4.6z"/>
		<path class="st3" d="M414.8,9.5h-1.2V7.1h-3.2v2.5h-1.2v-6h1.2v2.4h3.2V3.5h1.2V9.5z"/>
		<path class="st3" d="M422.6,9.5h-0.8l-0.1-1.1c-0.2,0.4-0.5,0.6-0.9,0.9c-0.4,0.2-0.8,0.3-1.3,0.3c-0.8,0-1.6-0.3-2.1-0.9
			c-0.6-0.6-0.8-1.3-0.8-2.2c0-0.9,0.3-1.6,0.8-2.2c0.6-0.6,1.3-0.9,2.1-0.9c0.5,0,0.9,0.1,1.3,0.3c0.4,0.2,0.7,0.5,0.9,0.9l0.1-1.1
			h0.8V9.5z M418.3,7.9c0.4,0.4,0.8,0.5,1.3,0.5c0.5,0,1-0.2,1.3-0.5s0.6-0.8,0.6-1.4c0-0.6-0.2-1-0.6-1.4s-0.8-0.5-1.3-0.5
			c-0.5,0-1,0.2-1.3,0.5c-0.4,0.4-0.6,0.8-0.6,1.4C417.7,7.1,417.9,7.6,418.3,7.9z"/>
		<path class="st3" d="M430.4,9.5h-1.2V7.4c-0.4,0.5-1,0.8-1.8,0.8c-1.8,0-2.7-1-2.7-3V3.5h1.2v1.6c0,0.7,0.1,1.1,0.4,1.5
			c0.3,0.3,0.7,0.5,1.3,0.5c1.1,0,1.6-0.6,1.6-1.8V3.5h1.2V9.5z"/>
		<path class="st3" d="M435.2,3.5c0.6,0,1.2,0.1,1.6,0.4s0.8,0.7,1,1.2c0.1,0.2,0.2,0.5,0.2,0.9c0,0.3,0,0.6-0.1,0.8h-4.6
			c0,0.5,0.2,0.9,0.5,1.2s0.8,0.5,1.3,0.5c0.7,0,1.3-0.2,1.9-0.5l0.6,0.7c-0.8,0.6-1.7,0.9-2.6,0.9c-0.9,0-1.7-0.3-2.2-0.9
			c-0.6-0.6-0.9-1.3-0.9-2.2c0-0.9,0.3-1.6,0.8-2.2C433.5,3.8,434.3,3.5,435.2,3.5z M435.2,4.6c-0.5,0-0.9,0.2-1.2,0.5
			s-0.5,0.7-0.5,1.1h3.4c0-0.2,0-0.4-0.1-0.6c-0.1-0.3-0.3-0.5-0.6-0.7C435.9,4.6,435.6,4.6,435.2,4.6z"/>
		<path class="st3" d="M445.5,9.5h-1.2V7.1h-3.2v2.5h-1.2v-6h1.2v2.4h3.2V3.5h1.2V9.5z"/>
		<path class="st3" d="M453.1,9.5h-1.2v-4l-3.5,4h-0.8v-6h1.2v4l3.5-4h0.8V9.5z"/>
		<path class="st3" d="M457.9,3.5c0.6,0,1.2,0.1,1.6,0.4s0.8,0.7,1,1.2c0.1,0.2,0.2,0.5,0.2,0.9c0,0.3,0,0.6-0.1,0.8h-4.6
			c0,0.5,0.2,0.9,0.5,1.2s0.8,0.5,1.3,0.5c0.7,0,1.3-0.2,1.9-0.5l0.6,0.7c-0.8,0.6-1.7,0.9-2.6,0.9c-0.9,0-1.7-0.3-2.2-0.9
			c-0.6-0.6-0.9-1.3-0.9-2.2c0-0.9,0.3-1.6,0.8-2.2C456.3,3.8,457,3.5,457.9,3.5z M457.9,4.6c-0.5,0-0.9,0.2-1.2,0.5
			s-0.5,0.7-0.5,1.1h3.4c0-0.2,0-0.4-0.1-0.6c-0.1-0.3-0.3-0.5-0.6-0.7C458.6,4.6,458.3,4.6,457.9,4.6z"/>
		<path class="st3" d="M472.1,9.5h-1.2V4.7h-3.2v4.8h-1.2v-6h5.6V9.5z"/>
		<path class="st3" d="M479.9,9.5h-0.8l-0.1-1.1c-0.2,0.4-0.5,0.6-0.9,0.9c-0.4,0.2-0.8,0.3-1.3,0.3c-0.8,0-1.6-0.3-2.1-0.9
			c-0.6-0.6-0.8-1.3-0.8-2.2c0-0.9,0.3-1.6,0.8-2.2c0.6-0.6,1.3-0.9,2.1-0.9c0.5,0,0.9,0.1,1.3,0.3c0.4,0.2,0.7,0.5,0.9,0.9l0.1-1.1
			h0.8V9.5z M475.6,7.9c0.4,0.4,0.8,0.5,1.3,0.5c0.5,0,1-0.2,1.3-0.5s0.6-0.8,0.6-1.4c0-0.6-0.2-1-0.6-1.4s-0.8-0.5-1.3-0.5
			c-0.5,0-1,0.2-1.3,0.5c-0.4,0.4-0.6,0.8-0.6,1.4C475.1,7.1,475.3,7.6,475.6,7.9z"/>
		<path class="st3" d="M485.2,3.5c0.8,0,1.6,0.3,2.1,0.9c0.6,0.6,0.8,1.3,0.8,2.2c0,0.9-0.3,1.6-0.8,2.2c-0.6,0.6-1.3,0.9-2.1,0.9
			c-0.4,0-0.8-0.1-1.1-0.3c-0.3-0.2-0.6-0.4-0.8-0.7v3.1h-1.2V3.5h0.8l0.1,1.1c0.2-0.4,0.5-0.6,0.9-0.9
			C484.3,3.6,484.8,3.5,485.2,3.5z M486.5,5.2c-0.4-0.4-0.8-0.5-1.3-0.5c-0.5,0-1,0.2-1.3,0.5s-0.6,0.8-0.6,1.4s0.2,1,0.6,1.4
			s0.8,0.5,1.3,0.5c0.5,0,1-0.2,1.3-0.5c0.4-0.4,0.6-0.8,0.6-1.4C487,6,486.8,5.5,486.5,5.2z"/>
		<path class="st3" d="M495.7,9.5h-0.8l-0.1-1.1c-0.2,0.4-0.5,0.6-0.9,0.9s-0.8,0.3-1.3,0.3c-0.8,0-1.6-0.3-2.1-0.9
			c-0.6-0.6-0.8-1.3-0.8-2.2c0-0.9,0.3-1.6,0.8-2.2c0.6-0.6,1.3-0.9,2.1-0.9c0.5,0,0.9,0.1,1.3,0.3s0.7,0.5,0.9,0.9l0.1-1.1h0.8V9.5
			z M491.4,7.9c0.4,0.4,0.8,0.5,1.3,0.5s1-0.2,1.3-0.5s0.6-0.8,0.6-1.4c0-0.6-0.2-1-0.6-1.4s-0.8-0.5-1.3-0.5s-1,0.2-1.3,0.5
			s-0.6,0.8-0.6,1.4C490.8,7.1,491,7.6,491.4,7.9z"/>
		<path class="st3" d="M504.1,9.5h-1.2v-4L501,7.7L499,5.5v4h-1.2v-6h0.8l2.4,2.7l2.4-2.7h0.8V9.5z"/>
		<path class="st3" d="M508.9,3.5c0.6,0,1.2,0.1,1.6,0.4s0.8,0.7,1,1.2c0.1,0.2,0.2,0.5,0.2,0.9c0,0.3,0,0.6-0.1,0.8h-4.6
			c0,0.5,0.2,0.9,0.5,1.2c0.3,0.3,0.8,0.5,1.4,0.5c0.7,0,1.3-0.2,1.9-0.5l0.6,0.7c-0.8,0.6-1.7,0.9-2.6,0.9c-0.9,0-1.7-0.3-2.2-0.9
			s-0.9-1.3-0.9-2.2c0-0.9,0.3-1.6,0.8-2.2C507.3,3.8,508,3.5,508.9,3.5z M508.9,4.6c-0.5,0-0.9,0.2-1.2,0.5s-0.5,0.7-0.5,1.1h3.4
			c0-0.2,0-0.4-0.1-0.6c-0.1-0.3-0.3-0.5-0.6-0.7C509.6,4.6,509.3,4.6,508.9,4.6z"/>
		<path class="st3" d="M516.1,4.7v4.8h-1.2V4.7h-2V3.5h5.3v1.2H516.1z"/>
		<path class="st3" d="M522.8,3.5c0.8,0,1.6,0.3,2.1,0.9c0.6,0.6,0.8,1.3,0.8,2.2c0,0.9-0.3,1.6-0.8,2.2c-0.6,0.6-1.3,0.9-2.1,0.9
			c-0.4,0-0.8-0.1-1.1-0.3c-0.3-0.2-0.6-0.4-0.8-0.7v3.1h-1.2V3.5h0.8l0.1,1.1c0.2-0.4,0.5-0.6,0.9-0.9
			C521.9,3.6,522.3,3.5,522.8,3.5z M524,5.2c-0.4-0.4-0.8-0.5-1.3-0.5s-1,0.2-1.3,0.5s-0.6,0.8-0.6,1.4s0.2,1,0.6,1.4
			s0.8,0.5,1.3,0.5s1-0.2,1.3-0.5c0.4-0.4,0.6-0.8,0.6-1.4C524.5,6,524.4,5.5,524,5.2z"/>
		<path class="st3" d="M533.2,9.5h-0.8l-0.1-1.1c-0.2,0.4-0.5,0.6-0.9,0.9c-0.4,0.2-0.8,0.3-1.3,0.3c-0.8,0-1.6-0.3-2.1-0.9
			c-0.6-0.6-0.8-1.3-0.8-2.2c0-0.9,0.3-1.6,0.8-2.2c0.6-0.6,1.3-0.9,2.1-0.9c0.5,0,0.9,0.1,1.3,0.3c0.4,0.2,0.7,0.5,0.9,0.9l0.1-1.1
			h0.8V9.5z M528.9,7.9c0.4,0.4,0.8,0.5,1.3,0.5c0.5,0,1-0.2,1.3-0.5c0.4-0.4,0.6-0.8,0.6-1.4c0-0.6-0.2-1-0.6-1.4
			c-0.4-0.4-0.8-0.5-1.3-0.5c-0.5,0-1,0.2-1.3,0.5s-0.6,0.8-0.6,1.4C528.4,7.1,528.5,7.6,528.9,7.9z"/>
	</g>
</g>
<g id="Слой_4">
	<circle class="st7" cx="119.9" cy="68.3" r="12.1"/>
	<circle class="st7" cx="504.1" cy="109.8" r="12.1"/>
</g>
<g id="Слой_5">
	<circle class="st7" cx="144" cy="133.9" r="12.1"/>
	<circle class="st7" cx="164.2" cy="201.8" r="12.1"/>
	<circle class="st7" cx="195.2" cy="258.7" r="12.1"/>
	<circle class="st7" cx="504.1" cy="178.6" r="12.1"/>
	<circle class="st7" cx="591" cy="228.6" r="12.1"/>
	<circle class="st7" cx="527.1" cy="228.4" r="12.1"/>
</g>
</svg>
