<?xml version="1.0" encoding="utf-8"?>
<!-- Generator: Adobe Illustrator 24.1.2, SVG Export Plug-In . SVG Version: 6.00 Build 0)  -->
<svg version="1.1" id="Слой_1" xmlns="http://www.w3.org/2000/svg" xmlns:xlink="http://www.w3.org/1999/xlink" x="0px" y="0px"
	 viewBox="0 0 1000 1000" style="enable-background:new 0 0 1000 1000;" xml:space="preserve">
<style type="text/css">
	.st0{fill:none;stroke:#FFD326;stroke-width:19;stroke-miterlimit:10;}
	.st1{fill:#FFFFFF;}
	.st2{fill:#E4378C;}
</style>
<circle class="st0" cx="500" cy="500" r="414"/>
<g>
	<path class="st1" d="M389.3,138.6c5-5,11-7.5,18.1-7.5s13.1,2.5,18.1,7.5c5,5,7.5,11,7.5,18.1s-2.5,13.1-7.5,18.1
		c-5,5-11,7.5-18.1,7.5s-13.1-2.5-18.1-7.5c-5-5-7.5-11-7.5-18.1C381.9,149.6,384.3,143.6,389.3,138.6z M420,143.7
		c-3.4-3.4-7.6-5.1-12.6-5.1s-9.1,1.7-12.5,5.1c-3.4,3.4-5.1,7.8-5.1,13c0,5.3,1.7,9.6,5.1,13c3.4,3.4,7.6,5.1,12.5,5.1
		s9.1-1.7,12.6-5.1s5.1-7.7,5.1-13C425.1,151.4,423.4,147.1,420,143.7z"/>
	<path class="st1" d="M465.5,130.6l-18.8,51.1h-4.7l18.9-51.1H465.5z"/>
	<path class="st1" d="M511,136.2l-16.7,15.4c1.1-0.2,2.6-0.4,4.6-0.4c4.5,0.4,8,2,10.4,4.6c2.4,2.6,3.7,5.9,3.7,9.8
		c0,4.8-1.6,8.7-4.8,11.8c-3.2,3.1-7.7,4.7-13.6,4.8H494c-8.7-0.1-15.4-3.4-20.2-10l5.1-4.7c4.3,4.9,9.4,7.3,15.1,7.3h0.4
		c3.3-0.1,5.9-1,8-2.9c2.1-1.9,3.1-4.3,3.1-7.3c0-6-3.8-9.1-11.4-9.1c-2.5,0-5.1,0.7-7.8,2l-3.9-2.9l16.8-15.5h-21v-7.4H511
		L511,136.2L511,136.2z"/>
	<path class="st1" d="M541.3,131.1h0.4c6.4,0.1,11.5,2.4,15.3,6.9l-5.1,4.7c-3.1-2.8-6.5-4.2-10.3-4.2h-0.4c-3.9,0-7,1.5-9,4.6
		c-2.1,3.1-3.3,6.9-3.7,11.5c1.1-2.1,2.8-3.8,5-5s4.8-1.9,7.7-1.9c4.8,0,8.9,1.6,12.1,4.6s4.9,7.2,4.9,12.2c0,4.8-1.7,8.9-5,12.4
		s-7.7,5.2-13.3,5.2c-5.7,0-10.3-1.9-13.8-5.8c-3.6-3.9-5.4-8.8-5.4-14.8V158c0-5,0.7-9.4,2.2-13.4c1.4-4,3.7-7.2,6.9-9.7
		C533.1,132.4,536.8,131.1,541.3,131.1z M547.4,157.3c-2-1.9-4.6-2.9-7.7-2.9s-5.7,0.9-7.7,2.8c-2,1.9-3.1,4.1-3.1,6.8
		c0,3,1,5.6,2.9,7.6s4.6,3.1,7.9,3.1c3.1,0,5.7-1,7.7-2.9c2-1.9,3.1-4.3,3.1-7.3S549.5,159.3,547.4,157.3z"/>
	<path class="st1" d="M574.5,138.6c5-5,11-7.5,18.1-7.5s13.1,2.5,18.1,7.5c5,5,7.5,11,7.5,18.1s-2.5,13.1-7.5,18.1
		c-5,5-11,7.5-18.1,7.5s-13.1-2.5-18.1-7.5c-5-5-7.5-11-7.5-18.1C567,149.6,569.5,143.6,574.5,138.6z M605.1,143.7
		c-3.4-3.4-7.6-5.1-12.6-5.1c-5,0-9.1,1.7-12.5,5.1s-5.1,7.8-5.1,13c0,5.3,1.7,9.6,5.1,13c3.4,3.4,7.5,5.1,12.5,5.1
		c5,0,9.2-1.7,12.6-5.1s5.1-7.7,5.1-13C610.2,151.4,608.5,147.1,605.1,143.7z"/>
</g>
<g>
	<path class="st1" d="M804.5,518.7h-0.4c-6.4,0-11.5-2.4-15.3-6.9l5.1-4.7c3.1,2.8,6.5,4.2,10.3,4.2h0.4c3.9,0,7-1.5,9-4.6
		c2.1-3.1,3.3-6.9,3.7-11.5c-1.2,2.1-2.9,3.8-5.1,5s-4.8,1.9-7.7,1.9c-4.8,0-8.9-1.5-12.1-4.6c-3.3-3.1-4.9-7.2-4.9-12.2
		c0-4.8,1.7-8.9,5-12.4c3.3-3.5,7.7-5.2,13.3-5.2c5.6,0,10.3,2,13.8,5.8c3.6,3.9,5.4,8.8,5.4,14.8v3.6c0,5-0.7,9.4-2.2,13.4
		c-1.4,4-3.7,7.2-6.9,9.7C812.8,517.4,809,518.7,804.5,518.7z M798.5,492.5c2,2,4.6,2.9,7.7,2.9c3.1,0,5.7-0.9,7.7-2.8
		c2-1.9,3.1-4.2,3.1-6.9c0-3-1-5.5-2.9-7.6s-4.6-3.1-7.9-3.1c-3.1,0-5.7,1-7.7,2.9c-2,1.9-3.1,4.3-3.1,7.3S796.4,490.5,798.5,492.5z
		"/>
	<path class="st1" d="M841,475.1c5-5,11-7.5,18.1-7.5s13.1,2.5,18.1,7.5c5,5,7.5,11,7.5,18.1s-2.5,13.1-7.5,18.1
		c-5,5-11,7.5-18.1,7.5s-13.1-2.5-18.1-7.5c-5-5-7.5-11-7.5-18.1S836,480.1,841,475.1z M871.6,480.2c-3.4-3.4-7.6-5.1-12.6-5.1
		c-5,0-9.1,1.7-12.5,5.1s-5.1,7.8-5.1,13c0,5.3,1.7,9.6,5.1,13c3.4,3.4,7.5,5.1,12.5,5.1c5,0,9.2-1.7,12.6-5.1
		c3.4-3.4,5.1-7.7,5.1-13C876.7,487.9,875,483.6,871.6,480.2z"/>
</g>
<g>
	<path class="st1" d="M466.1,864.8h-7.9v-35.9l-5.8,7l-5.1-3.9l14.3-17.2h4.5L466.1,864.8L466.1,864.8z"/>
	<path class="st1" d="M504.8,838.2c2.9,0.9,5.2,2.4,6.9,4.6c1.7,2.2,2.6,4.8,2.6,7.8c0,4.4-1.6,8-4.8,10.7s-7.5,4.1-13,4.1h-0.4
		c-5.5,0-9.9-1.4-13.1-4.1c-3.2-2.7-4.8-6.3-4.8-10.7c0-3,0.9-5.6,2.5-7.8c1.7-2.2,4-3.7,6.9-4.6c-5.1-2.1-7.7-5.8-7.7-11.1
		c0-3.5,1.5-6.6,4.4-9.1s6.8-3.8,11.7-3.8h0.7c4.9,0,8.7,1.3,11.6,3.8s4.3,5.5,4.3,9.1C512.5,832.4,509.9,836.1,504.8,838.2z
		 M488.6,855.6c2,1.6,4.5,2.4,7.6,2.4c3.1,0,5.7-0.8,7.6-2.4s3-3.7,3-6.5c0-2.7-1-4.8-2.9-6.3s-4.5-2.4-7.7-2.4
		c-1.2,0-2.3,0.2-3.5,0.4s-2.3,0.8-3.4,1.4c-1.1,0.6-2,1.5-2.7,2.7c-0.7,1.2-1.1,2.6-1.1,4.2C485.7,851.9,486.7,854.1,488.6,855.6z
		 M490,823c-1.7,1.2-2.5,3-2.5,5.4c0,2.4,0.8,4.2,2.5,5.4s3.8,1.9,6.3,1.9s4.6-0.6,6.3-1.9c1.7-1.2,2.5-3,2.5-5.4
		c0-2.4-0.8-4.2-2.5-5.4s-3.8-1.9-6.3-1.9S491.6,821.8,490,823z"/>
	<path class="st1" d="M530.4,821.7c5-5,11-7.5,18.1-7.5s13.1,2.5,18.1,7.5c5,5,7.5,11,7.5,18.1s-2.5,13.1-7.5,18.1
		c-5,5-11,7.5-18.1,7.5s-13.1-2.5-18.1-7.5s-7.5-11-7.5-18.1C522.9,832.7,525.4,826.7,530.4,821.7z M561,826.8
		c-3.4-3.4-7.6-5.2-12.6-5.2c-5,0-9.1,1.7-12.5,5.2c-3.4,3.4-5.1,7.8-5.1,13c0,5.3,1.7,9.6,5.1,13c3.4,3.4,7.5,5.1,12.5,5.1
		c5,0,9.2-1.7,12.6-5.1s5.1-7.7,5.1-13C566.1,834.6,564.4,830.2,561,826.8z"/>
</g>
<g>
	<path class="st1" d="M146.9,505.8h-38.3v-4.6l21.8-18.5c2.7-2.3,4.7-4.3,5.9-6c1.2-1.6,1.8-3.4,1.8-5.4c0-2.7-1-4.8-2.9-6.3
		s-4.3-2.3-7.1-2.4h-0.6c-4.5,0-8.7,2.1-12.8,6.3l-5.1-4.7c5.3-6,11.5-9,18.5-9h0.7c5.2,0,9.3,1.5,12.4,4.3
		c3.1,2.8,4.7,6.3,4.7,10.3c0,3.4-1,6.5-3.1,9.3s-5.4,6.2-10,9.9l-10.7,9.3h24.8L146.9,505.8L146.9,505.8z"/>
	<path class="st1" d="M188,460.4l-25.3,45.5h-8.5l23.8-42.6h-23.9v-7.4H188V460.4z"/>
	<path class="st1" d="M201.6,462.7c5-5,11-7.5,18.1-7.5c7.1,0,13.1,2.5,18.1,7.5c5,5,7.5,11,7.5,18.1s-2.5,13.1-7.5,18.1
		c-5,5-11,7.5-18.1,7.5c-7.1,0-13.1-2.5-18.1-7.5c-5-5-7.5-11-7.5-18.1C194.1,473.7,196.6,467.7,201.6,462.7z M232.2,467.8
		c-3.4-3.4-7.6-5.1-12.6-5.1c-5,0-9.1,1.7-12.5,5.1s-5.1,7.8-5.1,13c0,5.3,1.7,9.6,5.1,13c3.4,3.4,7.6,5.1,12.5,5.1
		c5,0,9.1-1.7,12.6-5.1c3.4-3.4,5.1-7.7,5.1-13C237.3,475.6,235.6,471.3,232.2,467.8z"/>
</g>
<ellipse transform="matrix(0.1602 -0.9871 0.9871 0.1602 347.3086 555.3123)" class="st2" cx="500" cy="73.6" rx="39.2" ry="39.2"/>
<circle class="st2" cx="500" cy="919.7" r="39.2"/>
<circle class="st2" cx="830.2" cy="255.2" r="39.2"/>
<circle class="st2" cx="822.7" cy="762.3" r="39.2"/>
</svg>
