<?xml version="1.0" encoding="utf-8"?>
<!-- Generator: Adobe Illustrator 26.5.0, SVG Export Plug-In . SVG Version: 6.00 Build 0)  -->
<svg version="1.1" id="Слой_1" xmlns="http://www.w3.org/2000/svg" xmlns:xlink="http://www.w3.org/1999/xlink" x="0px" y="0px"
	 viewBox="0 0 269.3 269.3" style="enable-background:new 0 0 269.3 269.3;" xml:space="preserve">
<style type="text/css">
	.st0{fill:#FFD41E;}
	.st1{fill:#322A29;}
	.st2{fill:#221D1C;}
	.st3{fill:#FFD418;}
	.st4{fill:#221915;}
	.st5{fill:#1E1A1A;}
</style>
<g transform="translate(50, 400) scale(1.7)">
	<g>
		<g id="symbol">
			<path class="st0" d="M9.9-200.4C37-209.3,64-236,91-227c20.5,6.9,16.9,40,22,61c1.9,7.9,3.9,18.2-1.5,24.2
				c-7.6,8.5-20.4,12-31.7,12.8c-3.8,0.3,1.1-8.1,3.7-10.9c3.7-3.9,13.9-2.5,14.1-8c1.1-23.8-4.6-47.6-10.7-70.6
				c-1.7-6.4-5.2-15.8-11.9-15.9c-48-0.7-79.5,57-77.8,98.8c0.4,8.3,8.6,14.1,13,21.1c3.2,4.9,15.1,16,9.4,14.7
				c-25.8-5.6-38.1-9.4-34.5-52.8C-13.3-170.6,9.9-218.4,9.9-200.4"/>
			<path class="st1" d="M33.9-219.3c13.8-5.1,27.4-10.5,41.3-15.1c2.9-1-5.5,2.9-8.3,4.1c-7.8,3.2-15.6,11.6-23.6,9.1
				c-6.1-1.8,13.6-5.5,15-11.7C58.6-234.9,34.9-219.9,33.9-219.3"/>
			<path class="st2" d="M7.6-180.6c8.8-12.9,16.5-26.6,26.3-38.7c1.2-1.5,24.5-14.5,24.3-13.8c-1.5,6.2-11,6.8-15,11.7
				c-21.3,25.9-37.6,52.2-32.9,88.5c0.8,6.7,12.8,5.7,16.9,11c3.6,4.7-1,17.9,4.9,17.1c13.7-1.7,25.5-12.1,34.9-22.2
				c5.3-5.7,2.5-15.8,6.7-22.5c3.3-5.2,12.6-5.6,14.5-11.5c3.7-11.7,4.7-25,1.1-36.7c-3.9-12.7-17.7-20.4-22.4-32.8
				c-1.1-2.9,5.6-5.6,8.3-4.1c5.7,3.4,10.2,9.6,11.9,15.9c6,23.1,11.7,46.8,10.6,70.6c-0.3,5.4-10.4,4.1-14.1,8
				c-5.5,5.9-0.8,18.2-7.2,23.2c-3.4,2.6-9.2-1.6-13.1,0.4c-12,6.4-21.7,16.6-33.2,24c-2.6,1.7-6.4,5.4-8.9,3.3
				c-3.1-2.5,0.2-8.2-1.4-11.9c-2.1-5.1-6.3-9.1-9.3-13.7c-4.5-7-12.7-12.8-13-21.1C-3.3-151.1-6.2-187.5,7.6-180.6"/>
			<path class="st3" d="M19-185.3c15.9-15,27.2-52.4,47.8-45.1c22.9,8.1,19.3,45.3,21.4,69.5c0.5,6.1-11.2,6.3-14.5,11.5
				c-4.1,6.7-1.3,16.8-6.6,22.5c-9.4,10.1-21.3,20.5-34.9,22.2c-5.9,0.7-1.3-12.5-4.9-17.2c-4.1-5.3-16-4.4-16.9-11
				C8-150.5,16.1-167.9,19-185.3 M36.4-161.9c0.6,10.5-3,22.1,1.8,31.4c2.1,4,6.7-12.2,9.8-9c4,4.1-5.5,12.5-2.1,17
				c2.4,3.2,7.8-4,9-7.8c1.2-3.7-4.3-7.7-2.9-11.3c1.2-3.2,8-1.8,9-5.1c3.1-9.9,4.1-20.9,2.3-31.1c-0.5-2.6-5.6-2-7.9-0.6
				C48.1-174.1,42.7-167.4,36.4-161.9"/>
			<path class="st4" d="M36.4-161.9c6.3-5.5,11.7-12.2,18.9-16.5c2.3-1.4,7-1.9,8,0.6c0.5,1.3,2.7,25.2-2.3,31.1
				c-2.2,2.6-7.8,1.8-9,5.1c-1.4,3.6,4.1,7.6,2.9,11.3c-1.2,3.7-6.6,10.9-9,7.8c-3.4-4.6,6-12.9,2.1-17c-3.1-3.2-6,11.3-9.8,9
				c-4.8-3-2.4-11.1-2.8-16.8C35.1-152.3,31.4-161.9,36.4-161.9"/>
			<path class="st5" d="M29.2-87.5c13.1-8.6,24.7-20.2,39.3-25.7c3.2-1.2,5.9,5.4,5.4,8.8c-0.3,2.3-4.6,0.5-6.7,1.5
				c-9.6,4.7-19.1,9.7-27.9,15.5c-4.2,2.7-6.1,10.2-11.2,10.1C25.1-77.2,29.2-90.5,29.2-87.5"/>
		</g>
	</g>
</g>
</svg>
