<?xml version="1.0" encoding="utf-8"?>
<!-- Generator: Adobe Illustrator 26.5.0, SVG Export Plug-In . SVG Version: 6.00 Build 0)  -->
<svg version="1.1" id="Слой_1" xmlns="http://www.w3.org/2000/svg" xmlns:xlink="http://www.w3.org/1999/xlink" x="0px" y="0px"
	 viewBox="0 0 269.3 269.3" style="enable-background:new 0 0 269.3 269.3;" xml:space="preserve">
<style type="text/css">
	.st0{fill:#FFFFFF;}
	.st1{fill:#FFD521;}
	.st2{fill:#332A29;}
	.st3{fill:#231E1D;}
	.st4{fill:#FFD41A;}
	.st5{fill:#231A16;}
	.st6{fill:#1F1B1B;}
</style>
<circle class="st0" cx="134.6" cy="134.6" r="130.1"/>
<g transform="translate(50, 400) scale(1.7)">
	<g>
		<g id="symbol">
			<path class="st1" d="M18.3-191.1c21.4-7,42.8-28.1,64.1-21c16.2,5.5,13.4,31.6,17.4,48.2c1.5,6.2,3.1,14.4-1.2,19.1
				c-6,6.7-16.1,9.5-25.1,10.1c-3,0.2,0.9-6.4,2.9-8.6c2.9-3.1,11-2,11.1-6.3c0.9-18.8-3.6-37.6-8.5-55.8
				c-1.3-5.1-4.1-12.5-9.4-12.6c-37.9-0.6-62.8,45.1-61.5,78.1c0.3,6.6,6.8,11.1,10.3,16.7c2.5,3.9,11.9,12.6,7.4,11.6
				C5.6-116-4.2-119-1.3-153.3C0-167.5,18.3-205.3,18.3-191.1"/>
			<path class="st2" d="M37.3-206c10.9-4,21.7-8.3,32.7-11.9c2.3-0.8-4.3,2.3-6.6,3.2c-6.2,2.5-12.3,9.2-18.7,7.2
				c-4.8-1.4,10.8-4.3,11.9-9.2C56.8-218.3,38.1-206.5,37.3-206"/>
			<path class="st3" d="M16.5-175.4c7-10.2,13-21,20.8-30.6c0.9-1.2,19.4-11.5,19.2-10.9c-1.2,4.9-8.7,5.4-11.9,9.2
				c-16.8,20.5-29.7,41.3-26,70c0.6,5.3,10.1,4.5,13.4,8.7c2.8,3.7-0.8,14.2,3.9,13.5c10.8-1.3,20.2-9.6,27.6-17.6
				c4.2-4.5,2-12.5,5.3-17.8c2.6-4.1,10-4.4,11.5-9.1c2.9-9.2,3.7-19.8,0.9-29c-3.1-10-14-16.1-17.7-25.9c-0.9-2.3,4.4-4.4,6.6-3.2
				c4.5,2.7,8.1,7.6,9.4,12.6c4.7,18.3,9.2,37,8.4,55.8c-0.2,4.3-8.2,3.2-11.1,6.3c-4.3,4.7-0.6,14.4-5.7,18.3
				c-2.7,2.1-7.3-1.3-10.4,0.3c-9.5,5.1-17.2,13.1-26.2,19c-2.1,1.3-5.1,4.3-7,2.6c-2.5-2,0.2-6.5-1.1-9.4c-1.7-4-5-7.2-7.4-10.8
				c-3.6-5.5-10-10.1-10.3-16.7C7.9-152.1,5.6-180.9,16.5-175.4"/>
			<path class="st4" d="M25.5-179.1C38.1-191,47-220.6,63.3-214.8c18.1,6.4,15.3,35.8,16.9,54.9c0.4,4.8-8.9,5-11.5,9.1
				c-3.2,5.3-1,13.3-5.2,17.8c-7.4,8-16.8,16.2-27.6,17.6c-4.7,0.6-1-9.9-3.9-13.6c-3.2-4.2-12.6-3.5-13.4-8.7
				C16.8-151.6,23.2-165.4,25.5-179.1 M39.2-160.6c0.5,8.3-2.4,17.5,1.4,24.8c1.7,3.2,5.3-9.6,7.7-7.1c3.2,3.2-4.3,9.9-1.7,13.4
				c1.9,2.5,6.2-3.2,7.1-6.2c0.9-2.9-3.4-6.1-2.3-8.9c0.9-2.5,6.3-1.4,7.1-4c2.5-7.8,3.2-16.5,1.8-24.6c-0.4-2.1-4.4-1.6-6.2-0.5
				C48.5-170.3,44.2-165,39.2-160.6"/>
			<path class="st5" d="M39.2-160.6c5-4.3,9.2-9.6,14.9-13c1.8-1.1,5.5-1.5,6.3,0.5c0.4,1,2.1,19.9-1.8,24.6c-1.7,2.1-6.2,1.4-7.1,4
				c-1.1,2.8,3.2,6,2.3,8.9c-0.9,2.9-5.2,8.6-7.1,6.2c-2.7-3.6,4.7-10.2,1.7-13.4c-2.5-2.5-4.7,8.9-7.7,7.1
				c-3.8-2.4-1.9-8.8-2.2-13.3C38.2-153,35.3-160.6,39.2-160.6"/>
			<path class="st6" d="M33.6-101.8c10.4-6.8,19.5-16,31.1-20.3c2.5-0.9,4.7,4.3,4.3,7c-0.2,1.8-3.6,0.4-5.3,1.2
				c-7.6,3.7-15.1,7.7-22.1,12.3c-3.3,2.1-4.8,8.1-8.9,8C30.3-93.7,33.6-104.2,33.6-101.8"/>
		</g>
	</g>
</g>
</svg>
