<?xml version="1.0" encoding="utf-8"?>
<!-- Generator: Adobe Illustrator 24.1.2, SVG Export Plug-In . SVG Version: 6.00 Build 0)  -->
<svg version="1.1" id="Слой_1" xmlns="http://www.w3.org/2000/svg" xmlns:xlink="http://www.w3.org/1999/xlink" x="0px" y="0px"
	 viewBox="0 0 708.66 317.48" style="enable-background:new 0 0 708.66 317.48;" xml:space="preserve">
<style type="text/css">
	.st0{fill-rule:evenodd;clip-rule:evenodd;fill:#FFFFFF;}
</style>
<path class="st0" d="M33.58,87.47l34.41-30.83H0.06V22.16H120.8v34.52L86.57,87.47l34.23,30.79v34.52H0.06V118.3h67.93L33.58,87.47
	L33.58,87.47z M495.63,157.75c3.24-0.63,6.4-1.47,9.46-2.53l12.33,13.79c5.99-2.63,11.64-5.91,16.85-9.75l-5.77-17.58
	c2.46-2.15,4.77-4.46,6.92-6.93l17.57,5.78c3.84-5.21,7.12-10.86,9.75-16.87l-13.78-12.34c1.05-3.07,1.9-6.23,2.53-9.47l18.09-3.79
	c0.71-6.48,0.71-13,0-19.49l-18.09-3.79c-0.63-3.24-1.47-6.4-2.53-9.47l13.78-12.34c-2.63-6-5.91-11.65-9.75-16.87l-17.57,5.77
	c-2.15-2.46-4.46-4.78-6.92-6.92l5.77-17.58c-5.21-3.84-10.86-7.12-16.85-9.75L505.1,21.41c-3.06-1.06-6.22-1.9-9.46-2.53
	l-3.78-18.1c-6.49-0.71-12.98-0.71-19.47,0l-3.79,18.1c-3.24,0.63-6.4,1.48-9.46,2.53L446.8,7.62c-6,2.63-11.64,5.91-16.85,9.76
	l5.77,17.58c-2.46,2.15-4.77,4.46-6.92,6.92l-17.57-5.77c-3.84,5.21-7.12,10.86-9.75,16.87l13.78,12.34
	c-1.05,3.07-1.9,6.23-2.53,9.47l-18.09,3.79c-0.35,3.2-0.54,6.45-0.54,9.74s0.19,6.54,0.54,9.74l18.09,3.79
	c0.63,3.24,1.47,6.4,2.53,9.47l-13.78,12.34c2.63,6,5.91,11.65,9.75,16.87l17.57-5.77c2.14,2.46,4.46,4.78,6.92,6.93l-5.77,17.58
	c5.21,3.84,10.86,7.12,16.85,9.75l12.33-13.79c3.06,1.05,6.22,1.9,9.46,2.53l3.79,18.1c6.47,0.72,13,0.72,19.47,0L495.63,157.75
	L495.63,157.75z M482.11,151.73c-35,0-63.36-28.39-63.36-63.41c0-35.02,28.37-63.41,63.36-63.41c35,0,63.37,28.39,63.37,63.41
	C545.48,123.34,517.11,151.73,482.11,151.73L482.11,151.73z M482.11,148.97c-33.47,0-60.61-27.15-60.61-60.65
	c0-33.5,27.13-60.65,60.61-60.65c33.47,0,60.61,27.15,60.61,60.65C542.72,121.81,515.59,148.97,482.11,148.97L482.11,148.97z
	 M482.11,142.66c-29.99,0-54.3-24.33-54.3-54.35c0-30.01,24.31-54.35,54.3-54.35c29.99,0,54.31,24.33,54.31,54.35
	C536.42,118.33,512.1,142.66,482.11,142.66L482.11,142.66z M482.11,105.21c-9.33,0-16.89-7.56-16.89-16.9
	c0-9.33,7.56-16.9,16.89-16.9c9.33,0,16.89,7.57,16.89,16.9C499,97.65,491.44,105.21,482.11,105.21L482.11,105.21z M482.11,94.18
	c-3.23,0-5.86-2.62-5.86-5.86c0-3.24,2.62-5.86,5.86-5.86c3.24,0,5.86,2.62,5.86,5.86C487.97,91.55,485.35,94.18,482.11,94.18
	L482.11,94.18z M438.34,293.25l-6.8,13.46c-5.26-0.81-10.38-2.18-15.34-4.11l0.84-15.06c-2.42-1.18-4.73-2.51-6.92-3.99l-12.62,8.26
	c-4.17-3.34-7.93-7.12-11.22-11.24l8.25-12.63c-1.49-2.21-2.82-4.52-3.99-6.91l-15.06,0.84c-1.93-4.92-3.31-10.06-4.12-15.35
	l13.46-6.81c-0.18-2.64-0.18-5.31,0.01-8l-13.45-6.8c0.81-5.27,2.18-10.39,4.11-15.35l15.05,0.84c1.18-2.42,2.51-4.73,3.99-6.93
	l-8.25-12.63c3.34-4.17,7.11-7.93,11.24-11.23l12.62,8.26c2.21-1.49,4.52-2.82,6.91-3.99l-0.84-15.07
	c4.92-1.93,10.06-3.32,15.34-4.13l6.8,13.47c2.64-0.18,5.31-0.18,7.99,0.01l6.8-13.46c5.26,0.81,10.38,2.18,15.34,4.11l-0.84,15.06
	c2.42,1.18,4.73,2.51,6.92,3.99l12.62-8.26c4.17,3.34,7.93,7.12,11.22,11.24l-8.25,12.63c1.49,2.21,2.82,4.52,3.99,6.92l15.06-0.84
	c1.93,4.92,3.32,10.06,4.12,15.34l-13.46,6.81c0.18,2.64,0.18,5.31-0.01,7.99l13.45,6.81c-0.81,5.27-2.18,10.39-4.11,15.35
	l-15.05-0.84c-1.18,2.42-2.51,4.73-3.99,6.93l8.25,12.63c-3.34,4.17-7.11,7.93-11.24,11.23l-12.62-8.26
	c-2.21,1.49-4.52,2.82-6.91,3.99l0.84,15.07c-4.91,1.93-10.06,3.32-15.33,4.13l-6.8-13.47C443.7,293.44,441.03,293.44,438.34,293.25
	L438.34,293.25z M428.96,285.66c27.57,7.39,55.91-8.98,63.29-36.57c7.39-27.59-8.97-55.95-36.54-63.34
	c-27.57-7.39-55.9,8.98-63.29,36.57C385.03,249.9,401.39,278.26,428.96,285.66L428.96,285.66z M429.54,283.48
	c26.37,7.07,53.47-8.59,60.54-34.98c7.07-26.39-8.58-53.51-34.95-60.58c-26.37-7.07-53.47,8.59-60.54,34.98
	C387.52,249.29,403.17,276.41,429.54,283.48L429.54,283.48z M430.87,278.51c23.63,6.34,47.91-7.7,54.24-31.34
	c6.33-23.64-7.69-47.95-31.32-54.28c-23.63-6.34-47.91,7.7-54.24,31.34C393.22,247.87,407.25,272.18,430.87,278.51L430.87,278.51z
	 M438.77,249.01c7.35,1.97,14.9-2.39,16.87-9.75c1.97-7.35-2.39-14.91-9.74-16.88c-7.35-1.97-14.9,2.39-16.87,9.75
	C427.07,239.48,431.43,247.04,438.77,249.01L438.77,249.01z M441.1,240.32c2.55,0.68,5.17-0.83,5.85-3.38
	c0.68-2.55-0.83-5.17-3.38-5.85c-2.55-0.68-5.17,0.83-5.85,3.38C437.04,237.01,438.55,239.63,441.1,240.32L441.1,240.32z
	 M574.07,243.08h-46.54c0,7.85,0,15.7,0,23.55h46.54h0.33h0.9h0.9h0.9h0.9h0.9h0.9h0.9h0.9h0.9h0.9h0.9h0.9l12.4-12.41v-65.11
	h-23.54v25.61h-23.01v-25.61c-7.85,0-15.69,0-23.54,0v25.61v0.13v0.44v0.44v0.44v0.44v0.44v8.84l12.4,12.41h34.15V243.08
	L574.07,243.08z M257.07,189.12c0,25.84,0,51.68,0,77.51c35.41,0,70.81,0,106.22,0c0-25.84,0-51.68,0-77.51c-7.85,0-15.69,0-23.54,0
	v53.96h-17.8v-53.96c-7.85,0-15.69,0-23.54,0v53.96h-17.8v-53.96C272.76,189.12,264.92,189.12,257.07,189.12L257.07,189.12z
	 M575.86,118.3l39.64-96.14h46.58l39.67,96.14h6.97c0,11.49,0,22.99,0,34.48c-46.61,0-93.22,0-139.84,0c0-11.49,0-22.99,0-34.48
	H575.86L575.86,118.3z M659.02,118.3l-20.71-62.29l-20.77,62.29H659.02L659.02,118.3z M307.9,87.39l34.32-30.75H307.9V87.39
	L307.9,87.39z M273.45,22.16c40.53,0,81.06,0,121.59,0v34.52l-34.23,30.79l34.23,30.79v34.52c-40.53,0-81.06,0-121.59,0h0
	C273.45,109.24,273.45,65.7,273.45,22.16L273.45,22.16L273.45,22.16z M307.9,118.3h34.32L307.9,87.55V118.3L307.9,118.3z
	 M606.43,189.12c34.1,0,68.19,0,102.29,0c0,25.84,0,51.68,0,77.51c-34.1,0-68.19,0-102.29,0
	C606.43,240.8,606.43,214.96,606.43,189.12L606.43,189.12z M211.78,102.97c-4.81-15.65-9.62-31.3-14.44-46.96
	c-4.78,15.65-9.56,31.3-14.34,46.96C192.59,102.97,202.19,102.97,211.78,102.97L211.78,102.97z M220.23,131.22
	c-15.32,0-30.63,0-45.95,0c-2.11,7.19-4.21,14.38-6.32,21.56c-13.74,0-27.47,0-41.21,0c16.35-43.54,32.7-87.08,49.05-130.62
	c14.66,0,29.32,0,43.97,0c16.36,43.54,32.72,87.08,49.08,130.62c-14.07,0-28.14,0-42.21,0C224.5,145.59,222.37,138.41,220.23,131.22
	L220.23,131.22z M0.06,266.64c81.95,0,163.05,0,245,0c0-25.84,0-51.68,0-77.51c-81.95,0-163.05,0-245,0
	C0.06,214.96,0.06,240.8,0.06,266.64L0.06,266.64z M516.06,282.8c0.05-0.42,0.05-0.98,0-1.39c-0.04-0.29-0.12-0.79-0.51-0.79h-12.59
	c-0.39,0-0.47,0.49-0.5,0.79c-0.05,0.41-0.05,0.98,0,1.39c0.04,0.29,0.13,0.79,0.5,0.79h4.47v14.43c0,0.24,0.18,0.36,0.39,0.43
	c0.67,0.21,2.21,0.21,2.88,0c0.2-0.07,0.39-0.19,0.39-0.43V283.6h4.47C515.93,283.6,516.03,283.08,516.06,282.8L516.06,282.8z
	 M527.96,297.77c-0.04,0.29-0.13,0.75-0.51,0.75h-8.97c-0.72,0-1.08-0.45-1.08-1.15v-15.61c0-0.7,0.35-1.15,1.08-1.15h8.93
	c0.37,0,0.45,0.47,0.49,0.75c0.05,0.4,0.05,0.95,0,1.35c-0.04,0.28-0.13,0.76-0.49,0.76h-6.38v4.36h5.38c0.37,0,0.47,0.45,0.5,0.74
	c0.05,0.39,0.05,0.93,0,1.32c-0.04,0.29-0.13,0.72-0.5,0.72h-5.38v5.04h6.42c0.37,0,0.47,0.47,0.51,0.75
	C528.01,296.81,528.01,297.37,527.96,297.77L527.96,297.77z M543.16,297.15c0.35,0.69,0.7,1.31-0.36,1.41
	c-0.68,0.07-1.54,0.07-2.23,0.01c-0.49-0.04-0.85-0.05-1.06-0.54l-3.37-6.46l-3.34,6.46c-0.25,0.49-0.56,0.5-1.09,0.54
	c-0.65,0.05-1.48,0.06-2.12-0.01c-0.4-0.04-0.72-0.17-0.58-0.64c0.05-0.19,0.17-0.45,0.34-0.77l4.28-7.82l-3.98-7.35
	c-0.33-0.68-0.76-1.33,0.32-1.42c0.7-0.06,1.55-0.06,2.25,0c0.55,0.04,0.83,0.04,1.08,0.54l3.16,5.92l3.04-5.92
	c0.25-0.48,0.49-0.5,1.01-0.54c0.64-0.05,1.43-0.05,2.07,0c1.01,0.09,0.61,0.79,0.32,1.42l-3.98,7.3L543.16,297.15L543.16,297.15z
	 M560.46,289.37c0-5.66-2.37-9.05-8.29-9.05c-5.94,0-8.64,3.9-8.64,9.37c0,5.74,2.27,9.15,8.3,9.15
	C557.75,298.83,560.46,294.99,560.46,289.37L560.46,289.37z M556.64,289.55c0,3.17-0.96,6.28-4.69,6.28c-3.92,0-4.59-3.03-4.59-6.34
	c0-3.14,1-6.21,4.69-6.21C555.89,283.28,556.64,286.31,556.64,289.55L556.64,289.55z M575.26,295.2c-1.73,4.19-7.79,3.32-11.43,3.32
	c-0.78,0-1.12-0.43-1.12-1.19v-15.56c0-0.7,0.36-1.15,1.08-1.15h10.13c0.39,0,0.49,0.44,0.53,0.75c0.05,0.39,0.05,0.95,0,1.34
	c-0.04,0.29-0.15,0.76-0.52,0.76h-7.59v4.45c3.07,0,7.4-0.52,8.92,2.91C575.84,292.14,575.8,293.9,575.26,295.2L575.26,295.2z
	 M572,293.2c0-3.1-3.56-2.58-5.66-2.58v5.16C568.4,295.78,572,296.29,572,293.2L572,293.2z M588.19,297.77
	c-0.04,0.29-0.13,0.75-0.51,0.75h-8.97c-0.72,0-1.08-0.45-1.08-1.15v-15.61c0-0.7,0.35-1.15,1.08-1.15h8.93
	c0.37,0,0.45,0.47,0.49,0.75c0.05,0.39,0.05,0.95,0,1.35c-0.04,0.28-0.13,0.76-0.49,0.76h-6.38v4.36h5.38c0.37,0,0.47,0.45,0.5,0.74
	c0.05,0.39,0.05,0.93,0,1.32c-0.04,0.29-0.13,0.72-0.5,0.72h-5.38v5.04h6.42c0.37,0,0.47,0.47,0.51,0.75
	C588.24,296.82,588.24,297.37,588.19,297.77L588.19,297.77z M602.34,296.41c-0.07,0.78-0.3,1.01-0.98,1.4c-1.26,0.69-2.82,1-4.25,1
	c-5.56,0-7.97-3.78-7.97-9c0-5.15,2.59-9.47,8.29-9.47c1.24,0,3.51,0.45,4.42,1.37c0.35,0.36,0.39,0.59,0.43,1.09
	c0.03,0.42,0.03,0.93-0.01,1.35c-0.07,0.7-0.32,1.08-1,0.57c-1.11-0.84-2.27-1.32-3.68-1.32c-3.43,0-4.51,3.33-4.51,6.22
	c0,3.09,1.02,6.1,4.61,6.1c1.41,0,2.55-0.45,3.7-1.22c0.64-0.43,0.87-0.24,0.94,0.52C602.37,295.44,602.38,295.98,602.34,296.41
	L602.34,296.41z M618.09,298.06c0,0.23-0.17,0.35-0.37,0.41c-0.61,0.19-2.26,0.19-2.86,0c-0.2-0.07-0.39-0.18-0.39-0.41v-14.4h-6.68
	v14.4c0,0.23-0.19,0.35-0.39,0.41c-0.61,0.19-2.26,0.19-2.86,0c-0.2-0.07-0.37-0.18-0.37-0.41v-16.29c0-0.69,0.34-1.15,1.06-1.15
	h11.81c0.73,0,1.05,0.45,1.05,1.15V298.06L618.09,298.06z M631.73,297.77c-0.04,0.29-0.13,0.75-0.51,0.75h-8.97
	c-0.72,0-1.08-0.45-1.08-1.15v-15.61c0-0.7,0.35-1.15,1.08-1.15h8.93c0.37,0,0.45,0.47,0.49,0.75c0.05,0.4,0.05,0.95,0,1.35
	c-0.04,0.28-0.13,0.76-0.49,0.76h-6.38v4.36h5.38c0.37,0,0.47,0.45,0.5,0.74c0.05,0.39,0.05,0.93,0,1.32
	c-0.04,0.29-0.13,0.72-0.5,0.72h-5.38v5.04h6.42c0.37,0,0.47,0.47,0.51,0.75C631.78,296.81,631.78,297.37,631.73,297.77
	L631.73,297.77z M646.06,298.04c0,0.41-0.61,0.49-0.92,0.52c-0.51,0.07-1.21,0.06-1.72,0c-0.3-0.04-0.99-0.1-0.99-0.52v-6.11
	c-1.84,0.18-3.73,0.3-5.56-0.1c-2.94-0.64-3.92-2.77-3.92-5.6v-5.12c0-0.42,0.6-0.49,0.91-0.52c0.52-0.07,1.21-0.06,1.73,0
	c0.3,0.04,0.99,0.1,0.99,0.52v4.75c0,1.42,0.33,2.59,1.81,3.05c1.14,0.36,2.85,0.19,4.05,0.04v-7.85c0-0.42,0.69-0.49,0.99-0.52
	c0.52-0.06,1.2-0.07,1.72,0c0.3,0.04,0.92,0.11,0.92,0.52V298.04L646.06,298.04z M659.69,297.77c-0.04,0.29-0.13,0.75-0.51,0.75
	h-8.97c-0.3,0-0.56-0.09-0.76-0.27c-0.21-0.18-0.31-0.47-0.31-0.88v-15.61c0-0.41,0.1-0.7,0.31-0.88c0.21-0.18,0.46-0.27,0.76-0.27
	h8.93c0.37,0,0.45,0.47,0.49,0.75c0.05,0.4,0.05,0.95,0,1.35c-0.04,0.28-0.13,0.76-0.49,0.76h-6.38v4.36h5.38
	c0.37,0,0.47,0.45,0.5,0.74c0.05,0.39,0.05,0.93,0,1.32c-0.04,0.29-0.13,0.72-0.5,0.72h-5.38v5.04h6.42c0.37,0,0.47,0.47,0.51,0.75
	C659.74,296.81,659.74,297.37,659.69,297.77L659.69,297.77z M676.09,298.03c0,0.43-0.62,0.5-0.94,0.54c-0.52,0.07-1.23,0.06-1.75,0
	c-0.32-0.04-0.93-0.11-0.93-0.54v-7.24h-6.71v7.24c0,0.44-0.6,0.5-0.93,0.54c-0.52,0.07-1.23,0.06-1.75,0
	c-0.32-0.04-0.94-0.1-0.94-0.54v-16.91c0-0.44,0.63-0.5,0.94-0.54c0.53-0.06,1.23-0.07,1.75,0c0.32,0.04,0.93,0.1,0.93,0.54v6.59
	h6.71v-6.59c0-0.43,0.61-0.5,0.93-0.54c0.53-0.06,1.23-0.07,1.75,0c0.32,0.04,0.94,0.1,0.94,0.54V298.03L676.09,298.03z
	 M693.72,298.06c0,0.42-0.64,0.49-0.95,0.52c-0.54,0.05-1.22,0.05-1.76,0c-0.31-0.03-0.92-0.09-0.92-0.52
	c0.01-3.8,0.02-7.61,0.03-11.41c-2.3,3.9-5.04,7.67-7.56,11.43c-0.29,0.38-0.5,0.48-0.99,0.52c-0.47,0.04-1.09,0.04-1.57-0.01
	c-0.36-0.04-0.84-0.09-0.84-0.55v-16.94c0-0.42,0.65-0.49,0.95-0.52c0.53-0.05,1.22-0.05,1.74,0c0.31,0.03,0.93,0.1,0.93,0.52
	c0,3.73,0.17,7.69-0.06,11.4h0.03c2.26-3.86,5.07-7.69,7.57-11.41c0.28-0.37,0.5-0.46,0.97-0.51c0.47-0.05,1.09-0.05,1.56,0
	c0.33,0.04,0.86,0.1,0.86,0.53V298.06L693.72,298.06z M707.37,297.77c-0.04,0.29-0.13,0.75-0.51,0.75h-8.97
	c-0.72,0-1.08-0.45-1.08-1.15v-15.61c0-0.7,0.35-1.15,1.08-1.15h8.93c0.37,0,0.45,0.47,0.49,0.75c0.05,0.4,0.05,0.95,0,1.35
	c-0.04,0.28-0.13,0.76-0.49,0.76h-6.38v4.36h5.38c0.37,0,0.47,0.45,0.5,0.74c0.05,0.38,0.05,0.93,0,1.32
	c-0.04,0.29-0.13,0.72-0.5,0.72h-5.38v5.04h6.42c0.37,0,0.47,0.47,0.51,0.75C707.42,296.82,707.42,297.37,707.37,297.77
	L707.37,297.77z M0.42,317.72h708.19v-5.73H0.42V317.72L0.42,317.72z M15,300.29c-0.61,0.06-1.4,0.06-2.02,0
	c-0.53-0.05-1-0.13-1.17-0.69l-1.54-4.27c-0.31-0.89-0.76-1.94-1.47-2.59c-0.88-0.8-1.97-0.72-3.08-0.72v7.68
	c0,0.27-0.17,0.38-0.4,0.46c-0.57,0.22-2.49,0.22-3.06,0c-0.22-0.09-0.41-0.2-0.41-0.46v-18.1c0-0.47,0.66-0.54,1.01-0.57
	c0.57-0.06,1.31-0.06,1.88,0c0.35,0.04,0.99,0.1,0.99,0.57v7.18c0.68,0,1.39,0.05,2.04-0.18c1.3-0.47,1.88-1.87,2.3-3.07l1.29-3.81
	c0.21-0.57,0.56-0.63,1.11-0.69c0.62-0.06,1.95-0.08,2.55,0.11c0.47,0.15,0.39,0.52,0.3,0.92c-0.35,1.43-1.96,5.69-2.97,6.88
	c-0.49,0.6-1.07,0.98-1.79,1.25v0.01c0.79,0.34,1.41,0.73,1.98,1.38c1.31,1.54,2.42,5.05,3.16,6.92
	C16.14,299.62,16.37,300.16,15,300.29L15,300.29z M39.29,286.91c0,1.08-0.17,2.03-0.5,2.86c-1.5,3.75-5.33,3.84-8.73,3.84v6.11
	c0,0.25-0.19,0.39-0.41,0.46c-0.69,0.23-2.37,0.22-3.06,0c-0.22-0.08-0.4-0.21-0.4-0.46v-17.22c0-0.85,0.45-1.39,1.32-1.39
	c2.38,0,4.93-0.18,7.28,0.27C37.63,281.94,39.29,284.02,39.29,286.91L39.29,286.91z M35.24,287.19c0-2.36-1.41-3.1-3.51-3.1h-1.67
	v6.51h1.76C34.01,290.6,35.24,289.39,35.24,287.19L35.24,287.19z M61.61,299.89c-0.08,0.19-0.21,0.34-0.43,0.34h-9.6
	c-0.77,0-1.15-0.48-1.15-1.23v-16.69c0-0.74,0.38-1.23,1.15-1.23h9.55c0.22,0,0.34,0.14,0.41,0.33c0.19,0.54,0.22,1.85,0,2.38
	c-0.08,0.19-0.2,0.34-0.41,0.34h-6.83v4.67h5.75c0.21,0,0.35,0.15,0.43,0.33c0.2,0.44,0.2,1.88,0,2.32
	c-0.08,0.18-0.22,0.32-0.43,0.32h-5.75v5.39h6.87c0.22,0,0.35,0.15,0.43,0.34C61.79,297.99,61.83,299.39,61.61,299.89L61.61,299.89z
	 M112.38,283.91c-0.07,0.18-0.22,0.36-0.43,0.36h-4.78v15.44c0,0.25-0.2,0.38-0.41,0.46c-0.7,0.22-2.37,0.22-3.08,0
	c-0.22-0.07-0.41-0.2-0.41-0.46v-15.44h-4.78c-0.23,0-0.35-0.17-0.43-0.36c-0.2-0.54-0.2-1.93,0-2.47c0.08-0.2,0.2-0.35,0.43-0.35
	h13.47c0.21,0,0.36,0.16,0.43,0.35C112.59,281.99,112.59,283.36,112.38,283.91L112.38,283.91z M138.5,299.74
	c0,0.25-0.21,0.37-0.41,0.44c-0.64,0.2-2.43,0.21-3.07,0c-0.21-0.07-0.39-0.2-0.39-0.44c0-3.96-0.21-8.28,0.06-12.21h-0.03
	c-2.47,4.17-5.39,8.2-8.08,12.22c-0.16,0.2-0.31,0.39-0.57,0.47c-0.58,0.17-2.16,0.16-2.71-0.04c-0.22-0.08-0.35-0.23-0.35-0.47
	v-18.12c0-0.25,0.21-0.37,0.42-0.44c0.66-0.2,2.4-0.21,3.06,0c0.21,0.07,0.4,0.2,0.4,0.44c0,4,0.18,8.21-0.06,12.19h0.03
	c2.41-4.13,5.42-8.23,8.09-12.21c0.16-0.22,0.28-0.35,0.54-0.44c0.58-0.2,2.14-0.17,2.71,0.02c0.22,0.08,0.37,0.2,0.37,0.46V299.74
	L138.5,299.74z M164.64,294.49c0,2.58-1.38,4.3-3.75,5.17c-2.48,0.89-6.33,0.58-8.94,0.58c-0.77,0-1.15-0.49-1.15-1.23v-16.69
	c0-0.74,0.38-1.23,1.15-1.23c2.33,0,5.55-0.22,7.77,0.3c2.36,0.55,3.77,2.09,3.77,4.56c0,1.81-0.93,3.3-2.65,3.93
	C163.19,290.33,164.64,292.1,164.64,294.49L164.64,294.49z M159.62,286.42c0-1.92-1.34-2.42-3.04-2.42h-1.96v4.97h2.16
	C158.44,288.97,159.62,288.18,159.62,286.42L159.62,286.42z M160.62,294.63c0-2.25-1.75-2.82-3.69-2.82h-2.3v5.45h2.81
	C159.14,297.27,160.62,296.54,160.62,294.63L160.62,294.63z M190.84,299.71c0,0.25-0.2,0.39-0.41,0.46c-0.69,0.22-2.33,0.23-3.06,0
	c-0.21-0.08-0.4-0.21-0.4-0.46v-7.74h-7.17v7.74c0,0.24-0.19,0.39-0.4,0.46c-0.7,0.22-2.36,0.22-3.06,0
	c-0.22-0.07-0.41-0.21-0.41-0.46v-18.09c0-0.25,0.2-0.38,0.41-0.46c0.66-0.23,2.39-0.21,3.06,0c0.21,0.07,0.4,0.22,0.4,0.46v7.04
	h7.17v-7.04c0-0.25,0.19-0.38,0.4-0.46c0.68-0.21,2.39-0.23,3.06,0c0.21,0.07,0.41,0.21,0.41,0.46V299.71L190.84,299.71z
	 M217.99,297.88c-3.04,3.42-10.39,3.73-13.54,0.32c-3.12-3.39-2.92-11.36,0.14-14.75c3.04-3.4,10.34-3.75,13.5-0.34
	C221.25,286.49,221.05,294.49,217.99,297.88L217.99,297.88z M215.22,285.78c-0.87-1.38-2.31-1.84-3.88-1.84
	c-1.64,0-3.02,0.58-3.94,1.98c-1.46,2.23-1.45,7.37-0.04,9.62c0.88,1.39,2.31,1.82,3.88,1.82c1.63,0,3.05-0.57,3.94-1.98
	C216.62,293.12,216.65,288.04,215.22,285.78L215.22,285.78z M242.93,299.89c-0.08,0.18-0.21,0.34-0.43,0.34h-9.6
	c-0.77,0-1.15-0.49-1.15-1.23v-16.69c0-0.74,0.38-1.23,1.15-1.23h9.55c0.22,0,0.34,0.14,0.41,0.33c0.21,0.6,0.2,1.78,0,2.38
	c-0.06,0.18-0.21,0.34-0.41,0.34h-6.83v4.67h5.75c0.21,0,0.35,0.15,0.43,0.33c0.2,0.45,0.2,1.87,0,2.32
	c-0.08,0.18-0.22,0.32-0.43,0.32h-5.75v5.39h6.87c0.21,0,0.36,0.15,0.43,0.34C243.11,298.07,243.16,299.36,242.93,299.89
	L242.93,299.89z M89,298.79c0.23,0.69,0.54,1.43-0.47,1.5c-0.76,0.06-1.55,0.04-2.31,0.02c-0.49-0.02-0.95-0.05-1.1-0.59l-1.26-3.85
	h-7.22l-1.21,3.74c-0.08,0.28-0.18,0.47-0.46,0.57c-0.54,0.2-2.13,0.16-2.7,0.1c-0.96-0.11-0.63-0.87-0.41-1.52l5.89-16.99
	c0.22-0.66,0.67-0.73,1.3-0.75c0.87-0.03,1.73-0.02,2.6,0c0.7,0.02,1.21,0.06,1.43,0.79L89,298.79L89,298.79z M80.22,284.73h-0.02
	l-2.66,8.14h5.37L80.22,284.73z"/>
</svg>
